<svg width="192" height="68" viewBox="0 0 192 68" fill="none" xmlns="http://www.w3.org/2000/svg">
<rect width="11.2485" height="70.9413" rx="5.62425" transform="matrix(-0.87462 0.48481 0.48481 0.87462 38.7998 0)" fill="#CEDDFB" fill-opacity="0.25"/>
<rect x="31.0303" y="65.6025" width="11.3779" height="40.3399" rx="5.68896" transform="rotate(-90 31.0303 65.6025)" fill="#CEDDFB" fill-opacity="0.25"/>
<rect x="34.3926" width="11.2485" height="70.9413" rx="5.62425" transform="rotate(29 34.3926 0)" fill="#CEDDFB" fill-opacity="0.75"/>
<rect x="63.3545" width="11.2485" height="70.9413" rx="5.62425" transform="rotate(29 63.3545 0)" fill="#CEDDFB" fill-opacity="0.75"/>
<rect x="92.3164" width="11.2485" height="70.9413" rx="5.62425" transform="rotate(29 92.3164 0)" fill="#CEDDFB" fill-opacity="0.75"/>
<path d="M159.871 15.6432L137.787 55.1556H137.529L125.116 15.6432H134.115L140.166 37.1061L150.975 15.6432H159.871Z" fill="#CEDDFB"/>
<path d="M177.048 15.6432L173.273 46.467H191.167L190.288 53.7075H164.895L169.549 15.6432H177.048Z" fill="#CEDDFB"/>
<path d="M114.049 47.2945H101.43L97.3957 54.7419H90L112.032 15.1777H112.446L124.754 54.7419H116.066L114.049 47.2945ZM112.342 40.9849L109.808 31.7274L104.791 40.9849H112.342Z" fill="#CEDDFB"/>
</svg>
