<svg viewBox="0 0 120 120" fill="none" xmlns="http://www.w3.org/2000/svg">
<path d="M52 29.5C52.8333 32 53.25 34.0833 53.25 35.75C53.25 37.25 53 39.25 52.5 41.75C41.3333 41.75 35.75 47.5 35.75 59C35.75 63.1667 37.9167 65.5 42.25 66C48.5833 66.5 51.75 70.5833 51.75 78.25C51.75 84.0833 50.3333 88.5833 47.5 91.75C44.8333 94.75 39.9167 96.25 32.75 96.25C22.9167 96.25 18 89.5833 18 76.25C18 62.9167 20.6667 51.8333 26 43C31.3333 34 40 29.5 52 29.5ZM97.25 29.5C98.0833 32 98.5 34.0833 98.5 35.75C98.5 37.25 98.25 39.25 97.75 41.75C86.5833 41.75 81 47.5 81 59C81 63.1667 83.1667 65.5 87.5 66C93.8333 66.5 97 70.5833 97 78.25C97 84.0833 95.5833 88.5833 92.75 91.75C90.0833 94.75 85.1667 96.25 78 96.25C68.1667 96.25 63.25 89.5833 63.25 76.25C63.25 62.9167 65.9167 51.8333 71.25 43C76.5833 34 85.25 29.5 97.25 29.5Z" fill="#C9C6FB"/>
</svg>
