<svg width="281" height="175" viewBox="0 0 281 175" fill="none" xmlns="http://www.w3.org/2000/svg">
<g clip-path="url(#clip0)">
<path d="M71.7416 133.417C110.226 133.417 141.425 131.743 141.425 129.677C141.425 127.611 110.226 125.936 71.7416 125.936C33.2567 125.936 2.05859 127.611 2.05859 129.677C2.05859 131.743 33.2567 133.417 71.7416 133.417Z" fill="#3F3D56"/>
<path opacity="0.1" d="M57.7545 132.385C86.5836 132.385 109.954 131.23 109.954 129.805C109.954 128.381 86.5836 127.226 57.7545 127.226C28.9253 127.226 5.55469 128.381 5.55469 129.805C5.55469 131.23 28.9253 132.385 57.7545 132.385Z" fill="black"/>
<path d="M207.363 159.851C245.848 159.851 277.046 158.009 277.046 155.737C277.046 153.464 245.848 151.622 207.363 151.622C168.878 151.622 137.68 153.464 137.68 155.737C137.68 158.009 168.878 159.851 207.363 159.851Z" fill="#3F3D56"/>
<path opacity="0.1" d="M193.376 158.716C222.205 158.716 245.575 157.446 245.575 155.878C245.575 154.311 222.205 153.041 193.376 153.041C164.546 153.041 141.176 154.311 141.176 155.878C141.176 157.446 164.546 158.716 193.376 158.716Z" fill="black"/>
<path d="M96.9935 148.38C121.553 148.38 141.462 147.375 141.462 146.136C141.462 144.896 121.553 143.891 96.9935 143.891C72.4345 143.891 52.5254 144.896 52.5254 146.136C52.5254 147.375 72.4345 148.38 96.9935 148.38Z" fill="#3F3D56"/>
<path d="M60.5014 170.353C92.2305 170.353 117.952 169.066 117.952 167.477C117.952 165.889 92.2305 164.601 60.5014 164.601C28.7723 164.601 3.05078 165.889 3.05078 167.477C3.05078 169.066 28.7723 170.353 60.5014 170.353Z" fill="#3F3D56"/>
<path d="M18.3184 139.737C30.1677 139.737 39.7735 139.252 39.7735 138.654C39.7735 138.056 30.1677 137.571 18.3184 137.571C6.46907 137.571 -3.13672 138.056 -3.13672 138.654C-3.13672 139.252 6.46907 139.737 18.3184 139.737Z" fill="#3F3D56"/>
<path d="M234.865 174.336C256.918 174.336 274.796 173.433 274.796 172.32C274.796 171.207 256.918 170.305 234.865 170.305C212.811 170.305 194.934 171.207 194.934 172.32C194.934 173.433 212.811 174.336 234.865 174.336Z" fill="#3F3D56"/>
<path d="M230.589 107.98H150.666V155.362H230.589V107.98Z" fill="#3F3D56"/>
<path d="M176.391 150.125C186.322 150.125 194.374 142.086 194.374 132.17C194.374 122.254 186.322 114.215 176.391 114.215C166.459 114.215 158.408 122.254 158.408 132.17C158.408 142.086 166.459 150.125 176.391 150.125Z" fill="#6C63FF"/>
<path d="M205.863 115.462H199.869V121.447H205.863V115.462Z" fill="#6C63FF"/>
<path opacity="0.5" d="M213.356 115.462H207.361V121.447H213.356V115.462Z" fill="#6C63FF"/>
<path opacity="0.2" d="M220.848 115.462H214.854V121.447H220.848V115.462Z" fill="#6C63FF"/>
<path d="M205.863 122.943H199.869V128.928H205.863V122.943Z" fill="#2F2E41"/>
<path opacity="0.5" d="M213.356 122.943H207.361V128.928H213.356V122.943Z" fill="#2F2E41"/>
<path opacity="0.2" d="M220.848 122.943H214.854V128.928H220.848V122.943Z" fill="#2F2E41"/>
<path d="M205.863 130.424H199.869V136.409H205.863V130.424Z" fill="#FF6584"/>
<path opacity="0.5" d="M213.356 130.424H207.361V136.409H213.356V130.424Z" fill="#FF6584"/>
<path opacity="0.2" d="M220.848 130.424H214.854V136.409H220.848V130.424Z" fill="#FF6584"/>
<path opacity="0.5" d="M176.391 114.215V150.125C186.322 150.125 194.873 142.086 194.873 132.17C194.873 122.254 186.322 114.215 176.391 114.215Z" fill="#3F3D56"/>
<path d="M247.699 111.347C247.699 111.347 258.189 116.085 254.442 121.572C250.696 127.058 239.457 137.532 239.207 139.776C238.957 142.021 237.459 144.016 237.459 144.016C237.459 144.016 232.463 138.779 232.963 138.28C233.462 137.781 238.458 133.043 238.707 131.796C238.957 130.549 246.45 120.824 246.45 120.824L239.706 114.838L247.699 111.347Z" fill="#FFB9B9"/>
<path opacity="0.1" d="M247.699 111.347C247.699 111.347 258.189 116.085 254.442 121.572C250.696 127.058 239.457 137.532 239.207 139.776C238.957 142.021 237.459 144.016 237.459 144.016C237.459 144.016 232.463 138.779 232.963 138.28C233.462 137.781 238.458 133.043 238.707 131.796C238.957 130.549 246.45 120.824 246.45 120.824L239.706 114.838L247.699 111.347Z" fill="black"/>
<path d="M234.463 121.821C234.463 121.821 241.706 124.814 241.206 129.552C240.707 134.29 249.948 147.757 249.948 147.757C249.948 147.757 250.947 150.998 250.697 151.996C250.447 152.993 257.191 152.744 257.191 152.744V150.5C257.191 150.5 251.946 141.522 251.447 139.028C250.947 136.535 247.95 126.809 247.95 126.809C247.95 126.809 246.951 118.081 241.956 118.081C240.502 118.081 239.068 118.419 237.767 119.068C236.467 119.717 235.335 120.66 234.463 121.821Z" fill="#FFB9B9"/>
<path d="M234.836 99.2524C234.836 99.2524 249.822 111.472 249.322 112.47C248.823 113.467 241.58 117.208 240.331 117.457C239.082 117.706 230.246 99.2524 230.246 99.2524H234.836Z" fill="#2F2E41"/>
<path opacity="0.1" d="M234.836 99.2524C234.836 99.2524 249.822 111.472 249.322 112.47C248.823 113.467 241.58 117.208 240.331 117.457C239.082 117.706 230.246 99.2524 230.246 99.2524H234.836Z" fill="black"/>
<path d="M218.601 101.746C218.601 101.746 217.103 108.48 221.099 111.223C225.095 113.966 231.839 124.689 232.588 124.689C233.337 124.689 244.077 118.953 243.577 117.956C243.078 116.958 237.583 108.23 237.583 108.23L235.835 99.0032C235.835 99.0032 220.599 98.5044 218.601 101.746Z" fill="#2F2E41"/>
<path d="M234.836 79.8013L237.084 94.2652L241.08 104.49C241.08 104.49 247.074 110.724 243.578 111.223C240.081 111.722 238.083 104.49 238.083 104.49L234.836 98.5046V79.8013Z" fill="#FFB9B9"/>
<path opacity="0.1" d="M234.836 79.8013L237.084 94.2652L241.08 104.49C241.08 104.49 247.074 110.724 243.578 111.223C240.081 111.722 238.083 104.49 238.083 104.49L234.836 98.5046V79.8013Z" fill="black"/>
<path d="M226.468 63.7163C226.468 63.7163 226.468 68.9532 224.719 69.452C222.971 69.9508 231.713 76.684 231.713 76.684C231.713 76.684 230.714 67.9557 234.21 65.7113L226.468 63.7163Z" fill="#FFB9B9"/>
<path opacity="0.1" d="M226.468 63.7163C226.468 63.7163 226.468 68.9532 224.719 69.452C222.971 69.9508 231.713 76.684 231.713 76.684C231.713 76.684 230.714 67.9557 234.21 65.7113L226.468 63.7163Z" fill="black"/>
<path d="M230.465 67.9557C233.638 67.9557 236.21 65.3878 236.21 62.2201C236.21 59.0523 233.638 56.4844 230.465 56.4844C227.293 56.4844 224.721 59.0523 224.721 62.2201C224.721 65.3878 227.293 67.9557 230.465 67.9557Z" fill="#FFB9B9"/>
<path d="M230.715 74.1902C230.715 74.1902 225.47 67.7064 224.72 67.9557C223.971 68.2051 218.476 73.6914 217.977 75.4371C217.477 77.1827 216.478 89.6516 217.228 92.1454C217.977 94.6392 217.977 101.123 217.727 101.622C217.477 102.121 215.979 103.367 217.477 103.367C218.976 103.367 224.221 99.6267 227.718 100.375C231.214 101.123 235.96 100.125 236.209 99.6267C236.459 99.128 235.96 86.1603 236.209 85.1628C236.459 84.1653 235.71 79.1778 235.46 78.1802C235.21 77.1827 235.21 73.1927 232.713 72.1952L231.648 72.0901L231.588 74.5568L230.715 74.1902Z" fill="#6C63FF"/>
<path d="M219.725 87.1577C219.725 87.1577 220.224 94.8884 223.971 98.1303C227.717 101.372 235.709 106.859 236.209 107.856C236.708 108.854 241.454 114.09 242.453 111.846C242.743 111.146 242.813 110.375 242.653 109.635C242.508 108.899 242.214 108.201 241.788 107.583C241.363 106.964 240.815 106.44 240.18 106.041L237.957 104.614L226.968 93.1428L226.468 87.1577H219.725Z" fill="#FFB9B9"/>
<path d="M234.087 137.407C234.087 137.407 231.214 136.784 230.215 138.529C229.216 140.275 231.214 145.013 231.214 145.013C231.214 145.013 236.959 156.983 237.958 155.487C238.957 153.991 237.209 148.504 237.209 148.504C237.209 148.504 239.706 143.018 238.707 142.769C237.708 142.519 234.087 140.4 234.087 137.407Z" fill="#2F2E41"/>
<path d="M251.693 151.747C251.693 151.747 250.195 150.998 249.945 151.747C249.695 152.495 248.197 156.235 249.945 156.734C251.693 157.233 268.927 157.732 268.427 156.734C267.928 155.737 265.18 154.49 263.432 153.991C261.684 153.492 257.188 149.751 257.188 149.751C257.188 149.751 254.69 152.993 251.693 151.747Z" fill="#2F2E41"/>
<path d="M236.251 57.6678C236.143 57.3059 235.906 56.9963 235.584 56.7982C235.6 56.4105 235.553 56.0228 235.443 55.6506C235.076 54.5672 234.206 54.6293 233.386 54.1503C233.03 53.9425 233.052 53.7588 232.867 53.4175C232.624 52.97 232.26 52.5996 231.817 52.3482C231.291 52.0134 230.735 51.6686 230.112 51.6262C228.804 51.5371 227.801 52.766 226.55 53.1604C225.999 53.3342 225.407 53.3413 224.852 53.5057C224.298 53.67 223.745 54.0624 223.663 54.6337C223.625 54.8974 223.692 55.168 223.653 55.4316C223.576 55.9557 223.116 56.3227 222.808 56.7537C222.126 57.7069 222.204 59.0534 222.749 60.0905C222.864 60.3051 222.995 60.5104 223.142 60.7047C223.188 61.1949 223.329 61.6714 223.557 62.1076C224.102 63.1447 225.04 63.9197 226.02 64.5635C225.94 64.2196 225.891 63.869 225.875 63.5163C225.861 63.3987 225.876 63.2796 225.919 63.1693C226.029 62.9415 226.317 62.881 226.537 62.7562C226.992 62.4978 227.171 61.9261 227.184 61.4033C227.197 60.8805 227.086 60.3568 227.141 59.8368C227.143 59.7172 227.17 59.5994 227.221 59.4909C227.271 59.3825 227.344 59.2858 227.434 59.2071C227.602 59.1114 227.794 59.0657 227.988 59.0754C228.921 59.0374 229.896 59.0203 230.719 58.5798C230.984 58.4038 231.269 58.2597 231.568 58.1505C232.268 57.9684 232.983 58.4578 233.386 59.0568C233.789 59.6559 233.99 60.3687 234.362 60.9875C234.734 61.6064 235.376 62.1582 236.095 62.0849C236.135 62.085 236.176 62.0765 236.213 62.0601C236.25 62.0437 236.283 62.0196 236.31 61.9895C236.341 61.9339 236.355 61.8703 236.349 61.8069L236.389 59.0626C236.423 58.5932 236.376 58.1215 236.251 57.6678Z" fill="#2F2E41"/>
<path d="M221.975 74.4395C221.975 74.4395 227.469 76.9332 227.22 82.1702C226.97 87.4071 228.718 87.9058 224.472 88.4046C220.226 88.9034 219.227 88.4046 218.978 88.9034C218.728 89.4021 217.229 77.432 218.228 76.1851C219.227 74.9382 221.975 74.4395 221.975 74.4395Z" fill="#6C63FF"/>
<path d="M111.453 32.1697C115.867 32.1697 119.446 28.5968 119.446 24.1896C119.446 19.7823 115.867 16.2095 111.453 16.2095C107.039 16.2095 103.461 19.7823 103.461 24.1896C103.461 28.5968 107.039 32.1697 111.453 32.1697Z" fill="#2F2E41"/>
<path d="M116.824 111.597L112.328 123.816C112.328 123.816 108.582 126.809 110.83 127.806C113.077 128.804 117.573 126.809 117.573 126.809L121.07 117.831L120.57 111.597H116.824Z" fill="#2F2E41"/>
<path opacity="0.1" d="M116.824 111.597L112.328 123.816C112.328 123.816 108.582 126.809 110.83 127.806C113.077 128.804 117.573 126.809 117.573 126.809L121.07 117.831L120.57 111.597H116.824Z" fill="black"/>
<path d="M117.198 39.1523L120.944 39.6511C120.944 39.6511 122.693 53.3669 121.943 54.3644C121.194 55.3619 117.448 59.352 115.949 58.3545C114.451 57.3569 117.198 39.1523 117.198 39.1523Z" fill="#575A89"/>
<path d="M81.3586 64.2148C81.3586 64.2148 76.1136 66.4592 75.1146 66.7086C74.1156 66.958 72.617 69.4518 74.3653 69.9505C76.1136 70.4493 82.8571 65.4617 82.8571 65.4617L81.3586 64.2148Z" fill="#A0616A"/>
<path d="M118.572 116.585L121.32 126.809C121.32 126.809 121.569 130.55 122.818 130.799C124.067 131.048 127.813 129.552 127.813 129.053C127.813 128.555 126.315 124.565 126.315 124.565C126.315 124.565 126.315 121.572 124.816 120.325C123.318 119.078 121.968 114.901 121.968 114.901L118.572 116.585Z" fill="#2F2E41"/>
<path d="M122.07 93.1428C122.574 94.3174 122.512 102.839 121.96 108.51C121.693 111.265 121.31 113.347 120.821 113.592L117.242 112.699L115.826 112.345L115.788 109.243L115.576 92.1453L111.33 74.4395V69.9507L122.07 70.9482L123.773 73.619L123.818 73.6914C123.818 73.6914 121.32 91.3972 122.07 93.1428Z" fill="#2F2E41"/>
<path opacity="0.1" d="M119.822 98.6292C120.356 99.4297 121.248 104.223 121.96 108.51C121.693 111.265 121.31 113.347 120.821 113.592L117.242 112.699C117.187 112.584 117.132 112.465 117.075 112.345C116.617 111.387 116.188 110.33 115.788 109.243L115.576 92.1453L111.33 74.4395V69.9507L122.07 70.9482L123.773 73.619L113.828 72.9432L116.076 82.669L118.823 92.8935C118.823 92.8935 118.823 97.1329 119.822 98.6292Z" fill="black"/>
<path d="M102.088 59.9753C102.088 59.9753 98.5916 67.706 103.587 78.4293C106.678 85.1025 109.429 91.9275 111.829 98.8783C111.829 98.8783 113.577 107.108 116.075 112.345C118.572 117.582 118.073 117.831 118.073 117.831L122.069 115.587C122.069 115.587 119.821 100.125 118.822 98.6289C117.823 97.1326 117.823 92.8932 117.823 92.8932L115.076 82.6687L112.828 72.943L123.817 73.6911C123.817 73.6911 123.817 59.4766 118.822 56.7334L102.088 59.9753Z" fill="#2F2E41"/>
<path d="M106.209 27.9302C106.209 27.9302 106.209 31.9202 104.96 32.1696C103.711 32.419 101.214 32.419 100.464 33.6659C99.7152 34.9128 106.209 51.3717 106.209 51.3717L112.952 47.1323L115.2 35.9103C115.2 35.9103 111.953 33.9153 111.953 32.9177V28.4289L106.209 27.9302Z" fill="#A0616A"/>
<path opacity="0.1" d="M106.209 27.9302C106.209 27.9302 106.209 31.9202 104.96 32.1696C103.711 32.419 101.214 32.419 100.464 33.6659C99.7152 34.9128 106.209 51.3717 106.209 51.3717L112.952 47.1323L115.2 35.9103C115.2 35.9103 111.953 33.9153 111.953 32.9177V28.4289L106.209 27.9302Z" fill="black"/>
<path d="M110.08 32.2948C113.391 32.2948 116.074 29.6152 116.074 26.3098C116.074 23.0043 113.391 20.3247 110.08 20.3247C106.77 20.3247 104.086 23.0043 104.086 26.3098C104.086 29.6152 106.77 32.2948 110.08 32.2948Z" fill="#A0616A"/>
<path d="M106.958 46.3845C106.958 46.3845 104.71 32.1699 104.211 32.1699C103.711 32.1699 96.7181 33.6662 96.2185 33.9156C95.719 34.1649 93.9707 36.4093 93.9707 36.4093L97.4673 46.3845C97.4673 46.3845 98.9659 53.367 99.9649 54.6139C100.964 55.8608 102.962 59.3521 101.963 59.8509C100.964 60.3496 99.9649 61.0978 100.964 61.0978C101.963 61.0978 110.205 59.6015 110.705 60.3496C111.204 61.0978 119.446 57.6065 119.446 57.3571C119.446 57.1077 118.447 45.3869 118.447 45.3869L120.945 39.6513L113.452 34.4143L106.958 46.3845Z" fill="#575A89"/>
<path d="M96.4671 35.1621L93.9695 36.409C93.9695 36.409 86.9762 52.3692 86.4767 52.6186C85.9771 52.8679 83.4795 57.6061 83.2298 58.6036C82.98 59.6012 82.4805 62.8431 81.7312 63.3418C81.3293 63.6143 80.9124 63.8641 80.4824 64.09C80.4824 64.09 81.981 66.5837 82.7303 66.5837C83.4795 66.5837 85.9771 63.0924 85.9771 63.0924C85.9771 63.0924 91.4719 66.5837 92.9704 63.8406C94.469 61.0974 98.2154 43.641 98.2154 43.641L96.4671 35.1621Z" fill="#575A89"/>
<path d="M116.073 42.7685C116.073 42.7685 112.577 34.2896 110.579 35.2872C108.581 36.2847 112.077 42.2697 114.325 43.2672L116.073 42.7685Z" fill="#A0616A"/>
<path opacity="0.1" d="M112.578 43.018L116.082 42.2271L116.824 46.0106C116.824 46.0106 120.071 51.7462 119.322 54.24C118.572 56.7338 114.077 60.7239 112.578 58.4794C111.079 56.235 109.831 52.7438 110.83 50.7487C111.829 48.7537 113.327 44.0155 112.578 43.018Z" fill="black"/>
<path d="M113.328 42.519L116.832 41.728L117.574 45.5115C117.574 45.5115 120.821 51.2472 120.072 53.741C119.322 56.2348 114.827 60.2248 113.328 57.9804C111.829 55.736 110.581 52.2447 111.58 50.2497C112.579 48.2547 114.077 43.5165 113.328 42.519Z" fill="#575A89"/>
<path d="M117.131 25.1079C117.804 23.6736 115.92 21.3742 112.922 19.9719C109.924 18.5697 106.948 18.5957 106.275 20.0299C105.602 21.4642 107.487 23.7637 110.485 25.1659C113.483 26.5682 116.458 26.5422 117.131 25.1079Z" fill="#2F2E41"/>
<path d="M116.2 20.9479C118.131 20.9479 119.696 19.3848 119.696 17.4566C119.696 15.5284 118.131 13.9653 116.2 13.9653C114.269 13.9653 112.703 15.5284 112.703 17.4566C112.703 19.3848 114.269 20.9479 116.2 20.9479Z" fill="#2F2E41"/>
<path d="M112.952 16.2096C112.952 15.3485 113.27 14.5178 113.847 13.8772C114.423 13.2365 115.216 12.8311 116.074 12.7389C115.585 12.6856 115.091 12.7357 114.624 12.8859C114.156 13.036 113.725 13.2828 113.359 13.6103C112.994 13.9377 112.701 14.3384 112.501 14.7863C112.301 15.2341 112.197 15.7191 112.197 16.2096C112.197 16.7 112.301 17.185 112.501 17.6328C112.701 18.0807 112.994 18.4814 113.359 18.8088C113.725 19.1363 114.156 19.3831 114.624 19.5332C115.091 19.6834 115.585 19.7335 116.074 19.6802C115.216 19.588 114.423 19.1826 113.847 18.5419C113.27 17.9013 112.952 17.0706 112.952 16.2096Z" fill="#2F2E41"/>
<path d="M100.465 69.0776H13.0488V129.676H100.465V69.0776Z" fill="#3F3D56"/>
<path d="M31.53 75.0625H20.041V86.5339H31.53V75.0625Z" fill="#F2F2F2"/>
<path d="M31.53 93.7661H20.041V105.238H31.53V93.7661Z" fill="#6C63FF"/>
<path d="M31.53 112.469H20.041V123.941H31.53V112.469Z" fill="#F2F2F2"/>
<path d="M91.7229 78.6787H37.0254V79.6762H91.7229V78.6787Z" fill="#F2F2F2"/>
<path d="M54.0091 81.9209H37.0254V82.9184H54.0091V81.9209Z" fill="#F2F2F2"/>
<path d="M91.7229 97.3818H37.0254V98.3793H91.7229V97.3818Z" fill="#F2F2F2"/>
<path d="M54.0091 100.624H37.0254V101.622H54.0091V100.624Z" fill="#F2F2F2"/>
<path d="M91.7229 116.085H37.0254V117.083H91.7229V116.085Z" fill="#F2F2F2"/>
<path d="M54.0091 119.328H37.0254V120.325H54.0091V119.328Z" fill="#F2F2F2"/>
<path d="M244.077 166.817C244.077 171.894 241.055 173.666 237.327 173.666C237.24 173.666 237.154 173.665 237.068 173.663C236.896 173.659 236.724 173.651 236.555 173.64C233.19 173.402 230.576 171.538 230.576 166.817C230.576 161.933 236.828 155.768 237.299 155.311L237.299 155.31C237.317 155.292 237.327 155.284 237.327 155.284C237.327 155.284 244.077 161.742 244.077 166.817Z" fill="#6C63FF"/>
<path d="M237.08 172.889L239.549 169.445L237.074 173.267L237.068 173.663C236.895 173.659 236.724 173.651 236.555 173.639L236.821 168.561L236.819 168.521L236.823 168.514L236.849 168.034L234.367 164.202L236.856 167.674L236.862 167.776L237.063 163.939L234.939 159.979L237.089 163.266L237.299 155.31L237.299 155.283V155.31L237.264 161.583L239.379 159.096L237.256 162.123L237.2 165.559L239.175 162.262L237.192 166.064L237.161 167.975L240.027 163.385L237.149 168.641L237.08 172.889Z" fill="#3F3D56"/>
<path d="M25.0363 132.153C25.0363 137.23 22.0142 139.002 18.2857 139.002C18.1994 139.002 18.113 139.001 18.0273 138.999C17.8545 138.995 17.683 138.987 17.5141 138.976C14.149 138.738 11.5352 136.874 11.5352 132.153C11.5352 127.269 17.7868 121.104 18.2578 120.647L18.2584 120.646C18.2764 120.628 18.2857 120.62 18.2857 120.62C18.2857 120.62 25.0363 127.078 25.0363 132.153Z" fill="#6C63FF"/>
<path d="M18.0394 138.225L20.5085 134.781L18.0332 138.604L18.027 138.999C17.8543 138.995 17.6828 138.987 17.5138 138.976L17.7797 133.897L17.7779 133.858L17.7822 133.851L17.8077 133.371L15.3262 129.539L17.8151 133.011L17.8214 133.112L18.022 129.276L15.8978 125.316L18.0481 128.602L18.2575 120.647L18.2581 120.62V120.646L18.2234 126.919L20.3383 124.432L18.2147 127.46L18.1587 130.895L20.1339 127.598L18.1507 131.401L18.1196 133.311L20.9857 128.722L18.1084 133.977L18.0394 138.225Z" fill="#3F3D56"/>
</g>
<defs>
<clipPath id="clip0">
<rect width="280.182" height="174.336" fill="white"/>
</clipPath>
</defs>
</svg>
