<svg width="539" height="383" viewBox="0 0 539 383" fill="none" xmlns="http://www.w3.org/2000/svg">
<g clip-path="url(#clip0)">
<path d="M409.21 115.82C423.782 115.82 435.596 103.944 435.596 89.2937C435.596 74.6434 423.782 62.7671 409.21 62.7671C394.637 62.7671 382.823 74.6434 382.823 89.2937C382.823 103.944 394.637 115.82 409.21 115.82Z" fill="#F2F2F2"/>
<path d="M394.665 219.984C415.446 219.984 432.293 203.048 432.293 182.156C432.293 161.265 415.446 144.329 394.665 144.329C373.884 144.329 357.037 161.265 357.037 182.156C357.037 203.048 373.884 219.984 394.665 219.984Z" fill="#F2F2F2"/>
<path d="M414.245 336.312C437.469 336.312 456.295 317.386 456.295 294.039C456.295 270.692 437.469 251.766 414.245 251.766C391.022 251.766 372.195 270.692 372.195 294.039C372.195 317.386 391.022 336.312 414.245 336.312Z" fill="#F2F2F2"/>
<path d="M155.331 80.5554H18.834V151.601H155.331V80.5554Z" fill="#6C63FF"/>
<path d="M539 345.874H0V347.127H539V345.874Z" fill="#2F2E41"/>
<path d="M285.361 160.029L293.506 189.082C293.506 189.082 291.827 214.815 299.659 209.78C307.674 204.628 304.694 182.928 304.694 182.928L299.999 156.865L285.361 160.029Z" fill="#FFB9B9"/>
<path d="M289.713 78.5312L296.439 85.2568V117.302C296.439 117.302 300.395 123.237 299.604 124.819C298.813 126.402 298.021 126.402 298.813 127.588C299.604 128.775 300.395 129.567 299.604 130.358C298.813 131.149 298.813 133.127 299.604 133.918C300.395 134.71 301.978 135.897 300.791 137.083C299.604 138.27 298.021 137.479 299.604 141.831C301.186 146.183 303.956 147.37 303.164 148.952C302.373 150.535 302.373 154.491 302.373 154.491L285.361 156.865L281.801 112.159L289.713 78.5312Z" fill="#D0CDE1"/>
<path d="M303.164 154.095L283.383 154.886L284.174 163.194L301.582 160.03L303.164 154.095Z" fill="#3F3D56"/>
<path d="M248.767 37.1887L246.393 60.9257L270.526 64.4864L272.306 50.8378L274.086 37.1887H248.767Z" fill="#FFB9B9"/>
<path opacity="0.1" d="M248.767 37.1887L246.393 60.9257L270.526 64.4864L272.306 50.8378L274.086 37.1887H248.767Z" fill="black"/>
<path d="M196.347 150.139L209.798 179.019C209.798 179.019 212.172 192.471 215.732 192.866C219.293 193.262 222.853 179.019 222.853 179.019L218.106 171.503L212.567 150.139H196.347Z" fill="#FFB9B9"/>
<path d="M224.435 176.25L213.358 193.657C213.358 193.657 202.676 359.423 204.259 358.236C205.841 357.05 210.984 356.654 212.962 353.489C214.94 350.324 227.205 353.489 227.205 353.489L234.326 345.972V340.038C234.326 338.851 248.568 248.253 248.568 248.253V271.199C248.568 271.199 244.216 355.467 251.338 354.676C258.459 353.885 273.097 349.137 273.097 349.137C273.097 349.137 294.065 191.679 287.735 185.745C281.405 179.811 278.636 166.359 278.636 166.359L224.435 176.25Z" fill="#2F2E41"/>
<path d="M262.019 44.9031C272.507 44.9031 281.009 36.4011 281.009 25.9132C281.009 15.4254 272.507 6.92334 262.019 6.92334C251.531 6.92334 243.029 15.4254 243.029 25.9132C243.029 36.4011 251.531 44.9031 262.019 44.9031Z" fill="#FFB9B9"/>
<path d="M219.688 64.6843L216.919 63.1018C216.919 63.1018 204.655 71.4099 200.698 90.0042C196.742 108.598 193.973 113.346 193.973 113.346C193.973 113.346 190.016 114.137 192.786 116.907C195.555 119.676 195.555 119.28 193.181 120.863C190.808 122.445 189.225 119.28 190.808 122.445C192.39 125.61 194.368 124.819 192.786 126.797C191.203 128.775 188.434 128.775 190.016 130.358C191.599 131.94 188.434 135.501 190.412 137.083C192.39 138.666 193.181 139.061 193.181 141.831C193.169 143.447 193.437 145.053 193.973 146.578H214.545C214.545 146.578 210.589 139.061 211.776 137.479C212.963 135.896 213.358 134.314 212.567 133.523C211.776 132.731 209.402 134.314 211.776 132.336C214.149 130.358 214.941 131.545 214.149 129.171C213.358 126.797 211.776 127.984 213.358 126.797C214.941 125.61 216.128 126.006 215.336 124.819C214.545 123.632 212.963 123.632 214.545 122.841C216.128 122.05 217.314 122.841 216.919 120.863C216.523 118.885 216.128 119.676 216.919 118.885C217.71 118.094 226.018 91.1911 226.018 90.3999C226.018 89.6086 219.688 64.6843 219.688 64.6843Z" fill="#D0CDE1"/>
<path d="M215.732 144.996L190.808 146.579L197.138 152.513L214.545 152.908L215.732 144.996Z" fill="#3F3D56"/>
<path d="M222.853 174.667L217.71 184.162C217.71 184.162 233.139 186.141 238.678 188.119C244.217 190.097 258.459 192.866 258.459 192.866L262.02 179.019L222.853 174.667Z" fill="#3F3D56"/>
<path d="M267.954 179.019L272.306 192.075L289.714 188.514L287.736 176.25L267.954 179.019Z" fill="#3F3D56"/>
<path d="M275.076 51.2332C275.076 51.2332 273.889 50.442 271.119 52.0245C268.35 53.607 259.251 54.3982 254.899 49.6507C250.547 44.9033 247.382 40.947 246.195 41.7383C245.008 42.5295 244.217 51.6289 244.217 51.6289L240.261 54.7938L216.919 63.1019L218.897 116.511L222.458 128.775C222.458 128.775 219.688 138.27 223.249 143.809C226.809 149.348 221.271 151.326 221.271 151.326C221.271 151.326 220.084 152.908 220.875 156.865C221.666 160.821 220.084 175.459 220.084 175.459C220.084 175.459 253.712 190.493 288.922 177.437L284.966 162.403L282.988 128.775C282.988 128.775 284.966 123.237 284.57 120.863C284.175 118.489 296.439 85.2568 296.439 85.2568C296.439 85.2568 294.461 68.6407 284.175 65.08C273.889 61.5194 272.306 57.9588 272.306 57.9588C272.306 57.9588 277.054 52.8157 275.076 51.2332Z" fill="#D0CDE1"/>
<path d="M242.898 28.3459C242.898 28.3459 240.926 25.3879 241.684 22.2024C242.138 20.3938 242.317 18.5274 242.215 16.6656C242.215 16.6656 243.808 11.5081 245.401 8.62591C246.994 5.74375 246.235 4.53021 251.241 3.62006C256.247 2.7099 254.199 -3.81286 267.396 3.24083C267.842 3.8625 268.461 4.33835 269.176 4.60832C269.892 4.8783 270.671 4.93029 271.416 4.75775C274.147 4.22683 275.133 8.01913 275.133 8.01913C275.133 8.01913 276.953 6.95728 277.635 8.47421C278.318 9.99113 283.185 7.56377 283.185 17.803C283.185 28.0423 277.647 37.1885 277.647 37.1885C277.647 37.1885 278.053 19.9649 269.027 18.2204C260.001 16.476 250.293 11.3943 247.942 17.9171C246.672 21.578 244.98 25.078 242.898 28.3459Z" fill="#2F2E41"/>
<path d="M277.845 32.4411C278.828 32.4411 279.625 31.3783 279.625 30.0673C279.625 28.7564 278.828 27.6936 277.845 27.6936C276.862 27.6936 276.064 28.7564 276.064 30.0673C276.064 31.3783 276.862 32.4411 277.845 32.4411Z" fill="#FFB9B9"/>
<path d="M267.757 347.736L270.539 356.083C270.539 356.083 270.539 364.43 273.322 368.603C276.104 372.777 278.886 381.819 267.757 382.515C256.628 383.211 251.759 379.037 251.759 379.037C251.759 379.037 253.845 373.472 251.759 371.386C249.672 369.299 251.759 365.125 251.759 365.125L253.845 348.431L267.757 347.736Z" fill="#2F2E41"/>
<path d="M213.556 347.736L210.774 356.083C210.774 356.083 210.774 364.43 207.992 368.603C205.209 372.777 202.427 381.819 213.556 382.515C224.686 383.211 229.555 379.037 229.555 379.037C229.555 379.037 227.468 373.472 229.555 371.386C231.642 369.299 229.555 365.125 229.555 365.125L227.468 348.431L213.556 347.736Z" fill="#2F2E41"/>
<path d="M404.829 85.5903H403.71V345.158H404.829V85.5903Z" fill="#3F3D56"/>
<path d="M404.269 323.341C395.971 323.341 387.86 320.88 380.96 316.27C374.06 311.66 368.683 305.107 365.507 297.441C362.332 289.774 361.501 281.338 363.12 273.2C364.739 265.061 368.734 257.585 374.602 251.717C380.47 245.85 387.946 241.854 396.084 240.235C404.223 238.616 412.659 239.447 420.325 242.622C427.992 245.798 434.544 251.176 439.155 258.075C443.765 264.975 446.225 273.087 446.225 281.385C446.213 292.508 441.789 303.173 433.923 311.038C426.057 318.904 415.393 323.328 404.269 323.341ZM404.269 240.548C396.193 240.548 388.297 242.943 381.582 247.43C374.866 251.917 369.632 258.295 366.541 265.757C363.45 273.219 362.641 281.43 364.217 289.352C365.793 297.273 369.682 304.55 375.393 310.261C381.104 315.972 388.381 319.861 396.303 321.437C404.224 323.013 412.435 322.204 419.897 319.113C427.359 316.022 433.737 310.788 438.224 304.073C442.712 297.357 445.107 289.462 445.107 281.385C445.094 270.558 440.788 260.178 433.132 252.522C425.476 244.866 415.096 240.56 404.269 240.548Z" fill="#3F3D56"/>
<path d="M404.27 209.78C396.968 209.78 389.829 207.614 383.758 203.557C377.686 199.501 372.954 193.734 370.159 186.988C367.365 180.241 366.633 172.818 368.058 165.656C369.483 158.494 372.999 151.915 378.163 146.751C383.326 141.588 389.905 138.071 397.067 136.647C404.229 135.222 411.653 135.953 418.399 138.748C425.146 141.542 430.912 146.275 434.969 152.346C439.026 158.418 441.191 165.556 441.191 172.859C441.18 182.647 437.287 192.032 430.365 198.954C423.443 205.875 414.059 209.769 404.27 209.78ZM404.27 137.056C397.189 137.056 390.267 139.156 384.379 143.09C378.491 147.024 373.903 152.615 371.193 159.158C368.483 165.7 367.774 172.898 369.155 179.843C370.537 186.788 373.947 193.168 378.954 198.175C383.961 203.182 390.34 206.592 397.285 207.973C404.23 209.354 411.429 208.645 417.971 205.936C424.513 203.226 430.105 198.637 434.039 192.749C437.973 186.862 440.072 179.94 440.072 172.859C440.062 163.366 436.286 154.266 429.574 147.554C422.862 140.842 413.762 137.067 404.27 137.056Z" fill="#3F3D56"/>
<path d="M404.269 108.526C398.627 108.526 393.111 106.853 388.419 103.718C383.727 100.583 380.07 96.1273 377.911 90.9141C375.752 85.701 375.187 79.9645 376.287 74.4302C377.388 68.8959 380.106 63.8124 384.096 59.8223C388.086 55.8323 393.169 53.1151 398.703 52.0143C404.238 50.9134 409.974 51.4784 415.187 53.6378C420.4 55.7972 424.856 59.454 427.991 64.1457C431.126 68.8374 432.799 74.3534 432.799 79.9962C432.791 87.5602 429.782 94.8119 424.434 100.16C419.085 105.509 411.833 108.518 404.269 108.526ZM404.269 52.5849C398.848 52.5849 393.548 54.1925 389.04 57.2045C384.533 60.2165 381.019 64.4976 378.945 69.5063C376.87 74.5151 376.327 80.0266 377.385 85.3438C378.442 90.6611 381.053 95.5453 384.887 99.3788C388.72 103.212 393.604 105.823 398.922 106.881C404.239 107.938 409.75 107.396 414.759 105.321C419.768 103.246 424.049 99.7328 427.061 95.225C430.073 90.7173 431.681 85.4176 431.681 79.9962C431.672 72.7288 428.782 65.7614 423.643 60.6226C418.504 55.4838 411.537 52.5931 404.269 52.5849Z" fill="#3F3D56"/>
<path d="M404.829 79.4368H331.546V80.5556H404.829V79.4368Z" fill="#3F3D56"/>
<path d="M419.374 148.804H346.091V149.923H419.374V148.804Z" fill="#3F3D56"/>
<path d="M461.889 163.908H388.605V165.027H461.889V163.908Z" fill="#3F3D56"/>
<path d="M163.163 144.888H25.5469V72.7236H163.163V144.888ZM26.6657 143.769H162.044V73.8425H26.6657V143.769Z" fill="#3F3D56"/>
<path d="M94.3548 109.155L25.8496 73.7803L26.3632 72.7856L94.3548 107.897L162.346 72.7856L162.86 73.7803L94.3548 109.155Z" fill="#3F3D56"/>
<path d="M71.1497 347.092L70.5493 346.867C70.4174 346.818 57.2865 341.787 51.1354 330.379C44.984 318.971 47.996 305.236 48.0272 305.099L48.1689 304.474L48.7691 304.699C48.901 304.748 62.0316 309.779 68.183 321.187C74.3344 332.595 71.3223 346.33 71.2912 346.467L71.1497 347.092ZM52.1204 329.848C57.3209 339.493 67.6973 344.437 70.3264 345.566C70.8263 342.748 72.3939 331.353 67.198 321.718C62.0027 312.083 51.6221 307.131 48.992 306C48.4918 308.819 46.9247 320.213 52.1204 329.848Z" fill="#3F3D56"/>
<path d="M55.8358 326.378C66.8901 333.028 71.1475 346.238 71.1475 346.238C71.1475 346.238 57.4822 348.666 46.4279 342.015C35.3736 335.364 31.1162 322.154 31.1162 322.154C31.1162 322.154 44.7814 319.727 55.8358 326.378Z" fill="#6C63FF"/>
</g>
<defs>
<clipPath id="clip0">
<rect width="539" height="382.593" fill="white"/>
</clipPath>
</defs>
</svg>
