<svg viewBox="0 0 515 428" fill="none" xmlns="http://www.w3.org/2000/svg">
<g clip-path="url(#clip0)">
<path opacity="0.1" d="M299.219 56.7854C266.203 55.6385 234.758 44.99 204.732 33.3373C174.706 21.6846 144.965 8.77281 112.74 2.59983C92.0129 -1.37106 68.307 -1.93178 51.6103 9.17041C35.536 19.875 30.3429 38.3022 27.5524 55.4193C25.4507 68.2954 24.2162 81.8495 29.9705 93.8998C33.9699 102.27 41.0608 109.304 45.9683 117.322C63.0424 145.216 50.9727 179.613 32.4752 206.848C23.803 219.628 13.7278 231.826 7.02978 245.416C0.33173 259.005 -2.76478 274.598 3.09665 288.473C8.90197 302.237 22.7419 312.554 37.7347 319.818C68.1846 334.575 104.052 338.795 139.052 341.186C216.506 346.482 294.367 344.188 372.025 341.895C400.766 341.043 429.629 340.182 457.901 335.742C473.603 333.275 489.81 329.365 501.211 319.914C515.679 307.92 519.265 287.612 509.567 272.57C493.304 247.342 448.351 241.078 436.97 214.005C430.716 199.1 437.138 182.503 446.234 168.679C465.742 139.032 498.436 113.02 500.155 79.1325C501.339 55.8577 485.622 32.5472 461.319 21.5317C435.848 9.9911 400.521 11.4388 381.738 30.549C362.378 50.2251 328.373 57.7947 299.219 56.7854Z" fill="#6C63FF"/>
<path opacity="0.1" d="M246.645 419.064C332.285 419.064 401.711 409.68 401.711 398.104C401.711 386.527 332.285 377.143 246.645 377.143C161.005 377.143 91.5801 386.527 91.5801 398.104C91.5801 409.68 161.005 419.064 246.645 419.064Z" fill="#6C63FF"/>
<path d="M169.879 335.701C169.879 335.701 180.592 333.988 187.019 341.553C187.019 341.553 182.306 345.264 172.164 340.125L169.879 335.701Z" fill="#6C63FF"/>
<path d="M168.737 335.533C168.737 335.533 161.901 343.984 165.253 353.297C165.253 353.297 170.824 351.07 171.431 339.723L168.737 335.533Z" fill="#6C63FF"/>
<path d="M162.615 321.714C162.615 321.714 166.9 313.864 184.041 324.854C184.041 324.854 181.755 330.135 174.185 329.706C166.615 329.278 164.589 325.853 162.615 321.714Z" fill="#6C63FF"/>
<path d="M161.488 321.148C161.488 321.148 152.597 320.128 151.734 340.467C151.734 340.467 157.371 341.639 161.376 335.201C165.38 328.763 163.723 325.165 161.488 321.148Z" fill="#6C63FF"/>
<path d="M156.305 304.928C156.305 304.928 161.304 291.078 179.449 300.926C179.449 300.926 175.307 313.634 158.162 309.638L156.305 304.928Z" fill="#6C63FF"/>
<path d="M150.734 284.227C150.734 284.227 160.162 270.24 176.879 283.208C176.879 283.208 171.022 296.339 152.163 289.202L150.734 284.227Z" fill="#6C63FF"/>
<path d="M148.734 264.531C148.734 264.531 159.733 251.685 176.282 264.531C176.282 264.531 165.849 275.806 148.734 267.814V264.531Z" fill="#6C63FF"/>
<path d="M147.021 245.405C147.021 245.405 158.163 231.984 174.023 244.692C174.023 244.692 161.448 256.538 147.021 248.545V245.405Z" fill="#6C63FF"/>
<path d="M148.02 228.416C148.02 228.416 159.753 211.145 174.592 222.849C174.592 222.849 162.018 237.698 148.02 231.698V228.416Z" fill="#6C63FF"/>
<path d="M150.734 208.576C150.734 208.576 163.161 191.449 177.593 204.58C177.593 204.58 162.876 219.424 150.734 211.716V208.576Z" fill="#6C63FF"/>
<path d="M154.881 190.842C154.881 190.842 169.588 174.75 182.428 181.157C182.428 181.157 167.094 198.249 154.238 195.109L154.881 190.842Z" fill="#6C63FF"/>
<path d="M160.019 174.036C160.019 174.036 177.022 154.335 186.878 160.9C186.878 160.9 174.369 176.192 158.82 177.747L160.019 174.036Z" fill="#6C63FF"/>
<path d="M167.44 154.534C167.44 154.534 182.305 138.436 193.161 142.432C193.161 142.432 180.448 159.136 165.445 159.565L167.44 154.534Z" fill="#6C63FF"/>
<path d="M174.165 136.295C174.165 136.295 190.592 120.88 197.734 123.592C197.734 123.592 185.878 140.719 173.451 139.72L174.165 136.295Z" fill="#6C63FF"/>
<path d="M180.736 119.453C180.736 119.453 194.877 101.041 202.59 102.468C202.59 102.468 194.02 118.882 180.736 121.329V119.453Z" fill="#6C63FF"/>
<path d="M187.862 96.7593C187.862 96.7593 200.365 82.6394 207.114 82.6751C207.114 82.6751 197.248 101.536 187.352 101.362L187.862 96.7593Z" fill="#6C63FF"/>
<path d="M192.091 81.6251L204.161 52.2231C204.161 52.2231 204.768 78.8011 190.551 87.0793L192.091 81.6251Z" fill="#6C63FF"/>
<path d="M196.988 49.2003C196.988 49.2003 198.988 24.6511 197.702 22.653C197.702 22.653 206.339 43.0426 196.906 60.0476L196.988 49.2003Z" fill="#6C63FF"/>
<path d="M155.84 304.596C155.84 304.596 143.316 296.843 135.215 315.811C135.215 315.811 146.356 323.202 157.309 309.434L155.84 304.596Z" fill="#6C63FF"/>
<path d="M150.335 283.437C150.335 283.437 134.98 276.438 127.527 296.242C127.527 296.242 139.393 304.398 151.733 288.443L150.335 283.437Z" fill="#6C63FF"/>
<path d="M148.02 265.708C148.02 265.708 137.021 252.863 120.473 265.708C120.473 265.708 130.9 276.984 148.02 268.991V265.708Z" fill="#6C63FF"/>
<path d="M146.648 245.405C146.648 245.405 135.501 231.984 119.646 244.692C119.646 244.692 132.216 256.538 146.648 248.545V245.405Z" fill="#6C63FF"/>
<path d="M148.021 228.905C148.021 228.905 140.206 209.56 123.219 217.879C123.219 217.879 132.401 235.037 147.333 232.116L148.021 228.905Z" fill="#6C63FF"/>
<path d="M151.719 208.48C151.719 208.48 143.955 188.798 126.723 197.923C126.723 197.923 137.272 215.963 150.954 211.523L151.719 208.48Z" fill="#6C63FF"/>
<path d="M156.534 190.944C156.534 190.944 153.473 169.362 139.215 167.43C139.215 167.43 142.24 190.185 154.631 194.829L156.534 190.944Z" fill="#6C63FF"/>
<path d="M160.385 174.072C160.385 174.072 159.187 148.075 147.377 147.173C147.377 147.173 147.775 166.9 159.054 177.757L160.385 174.072Z" fill="#6C63FF"/>
<path d="M168.671 153.789C168.671 153.789 165.146 132.176 153.877 129.531C153.877 129.531 155.275 150.466 167.554 159.096L168.671 153.789Z" fill="#6C63FF"/>
<path d="M175.501 136.453C175.501 136.453 175.379 113.932 168.492 110.624C168.492 110.624 164.222 131.014 173.506 139.328L175.501 136.453Z" fill="#6C63FF"/>
<path d="M181.26 119.188C181.26 119.188 180.291 95.9946 173.164 92.7272C173.164 92.7272 170.721 111.078 180.189 120.702L181.26 119.188Z" fill="#6C63FF"/>
<path d="M188.862 98.5944C188.862 98.5944 188.816 79.7339 183.724 75.3093C183.724 75.3093 178.664 95.9743 186.204 102.387L188.862 98.5944Z" fill="#6C63FF"/>
<path d="M191.488 80.6973L186.54 49.3022C186.54 49.3022 179.806 75.0289 191.723 86.3605L191.488 80.6973Z" fill="#6C63FF"/>
<path d="M192.458 49.496C192.458 49.496 179.741 28.3978 180.006 26.0479C180.006 26.0479 181.353 48.1707 197.351 59.1811L192.458 49.496Z" fill="#6C63FF"/>
<path d="M193.948 43.2669C193.948 43.2669 181.949 13.2889 176.521 10.8625C176.521 10.8625 193.662 19.5689 194.948 42.4105L193.948 43.2669Z" fill="#6C63FF"/>
<path d="M187.286 101.525L186.465 101.276C196.591 68.28 199.121 47.243 193.581 41.9722L194.173 41.3503C200.04 46.9116 197.662 67.704 187.286 101.525Z" fill="#444053"/>
<path d="M159.402 178.762L158.193 178.333C159.265 175.311 160.423 172.242 161.637 169.214C172.207 142.891 181.205 118.408 186.975 99.6087L188.031 99.099C182.251 117.934 173.416 143.36 162.83 169.714C161.621 172.711 160.469 175.769 159.402 178.762Z" fill="#444053"/>
<path d="M184.954 360.398C184.791 360.215 168.375 341.752 156.938 310.219C150.231 291.764 146.495 272.364 145.868 252.74C145.082 228.207 150.234 200.813 159.06 175.932L160.019 177.054C140.21 232.901 148.082 280.761 158.519 309.587C169.844 340.829 186.066 359.098 186.229 359.277L184.954 360.398Z" fill="#444053"/>
<path d="M331.266 147.733H329.082C328.437 147.733 327.914 148.256 327.914 148.901V183.787C327.914 184.432 328.437 184.955 329.082 184.955H331.266C331.911 184.955 332.434 184.432 332.434 183.787V148.901C332.434 148.256 331.911 147.733 331.266 147.733Z" fill="#3A3768"/>
<path d="M179.082 118.571H178.883C178.238 118.571 177.715 119.094 177.715 119.738V129.658C177.715 130.303 178.238 130.825 178.883 130.825H179.082C179.727 130.825 180.25 130.303 180.25 129.658V119.738C180.25 119.094 179.727 118.571 179.082 118.571Z" fill="#3A3768"/>
<path d="M179.312 141.01H178.791C178.146 141.01 177.623 141.533 177.623 142.177V161.17C177.623 161.815 178.146 162.338 178.791 162.338H179.312C179.957 162.338 180.48 161.815 180.48 161.17V142.177C180.48 141.533 179.957 141.01 179.312 141.01Z" fill="#3A3768"/>
<path d="M179.221 169.8H178.838C178.193 169.8 177.67 170.323 177.67 170.968V190.144C177.67 190.789 178.193 191.311 178.838 191.311H179.221C179.866 191.311 180.389 190.789 180.389 190.144V170.968C180.389 170.323 179.866 169.8 179.221 169.8Z" fill="#3A3768"/>
<path d="M310.462 78.0771H199.039C188.054 78.0771 179.148 86.9754 179.148 97.952V365.266C179.148 376.242 188.054 385.141 199.039 385.141H310.462C321.447 385.141 330.352 376.242 330.352 365.266V97.952C330.352 86.9754 321.447 78.0771 310.462 78.0771Z" fill="#3A3768"/>
<path d="M309.023 86.0547H291.678V88.1395C291.678 89.4373 291.422 90.7223 290.925 91.9212C290.428 93.12 289.699 94.2093 288.781 95.1267C287.862 96.0441 286.772 96.7717 285.571 97.2678C284.371 97.764 283.085 98.019 281.787 98.0183H226.626C225.327 98.019 224.041 97.764 222.841 97.2678C221.641 96.7717 220.55 96.0441 219.632 95.1267C218.713 94.2093 217.985 93.12 217.487 91.9212C216.99 90.7223 216.734 89.4373 216.734 88.1395V86.0547H200.497C197.312 86.0547 194.258 87.3189 192.006 89.5692C189.753 91.8195 188.488 94.8716 188.488 98.054V365.144C188.488 368.326 189.753 371.378 192.006 373.629C194.258 375.879 197.312 377.143 200.497 377.143H309.023C312.207 377.143 315.262 375.879 317.514 373.629C319.766 371.378 321.031 368.326 321.031 365.144V98.0744C321.034 96.4969 320.725 94.9344 320.123 93.4762C319.521 92.018 318.636 90.6928 317.521 89.5764C316.406 88.46 315.081 87.5743 313.623 86.97C312.164 86.3657 310.601 86.0547 309.023 86.0547Z" fill="#6C63FF"/>
<path d="M259.306 87.2474H242.14C241.05 87.2474 240.166 88.1306 240.166 89.2201V89.5566C240.166 90.6461 241.05 91.5293 242.14 91.5293H259.306C260.397 91.5293 261.28 90.6461 261.28 89.5566V89.2201C261.28 88.1306 260.397 87.2474 259.306 87.2474Z" fill="#E6E8EC"/>
<path d="M266.908 91.8199C268.252 91.8199 269.341 90.7313 269.341 89.3884C269.341 88.0455 268.252 86.9569 266.908 86.9569C265.564 86.9569 264.475 88.0455 264.475 89.3884C264.475 90.7313 265.564 91.8199 266.908 91.8199Z" fill="#E6E8EC"/>
<path d="M382.702 64.6098C382.702 64.6098 339.748 62.0204 344.809 92.0951C344.809 92.0951 343.789 97.4117 348.625 99.8228C348.625 99.8228 348.701 97.5953 353.032 98.3548C354.574 98.6102 356.141 98.6854 357.7 98.5791C359.804 98.4409 361.805 97.6233 363.403 96.2495C363.403 96.2495 375.478 91.2643 380.171 71.5474C380.171 71.5474 383.645 67.2452 383.508 66.1391L376.259 69.2332C376.259 69.2332 378.738 74.4581 376.769 78.8011C376.769 78.8011 376.534 69.4218 375.141 69.6257C374.861 69.6665 371.377 71.4353 371.377 71.4353C371.377 71.4353 375.636 80.5342 372.422 87.1506C372.422 87.1506 373.642 75.9363 370.045 72.0929L364.944 75.0697C364.944 75.0697 369.923 84.4694 366.546 92.141C366.546 92.141 367.413 80.3762 363.868 75.7936L359.246 79.3975C359.246 79.3975 363.924 88.6595 361.072 95.0211C361.072 95.0211 360.7 81.3294 358.246 80.2946C358.246 80.2946 354.201 83.8628 353.583 85.3207C353.583 85.3207 356.787 92.0493 354.797 95.5971C354.797 95.5971 353.578 86.4727 352.578 86.4217C352.578 86.4217 348.548 92.4672 348.13 96.6165C348.13 96.6165 348.303 90.4538 351.604 85.8508C351.604 85.8508 347.707 86.5186 345.431 89.0418C345.431 89.0418 346.059 84.7701 352.599 84.3929C352.599 84.3929 355.93 79.8053 356.818 79.53C356.818 79.53 350.318 78.9846 346.375 80.733C346.375 80.733 349.844 76.7009 358.011 78.536L362.577 74.8098C362.577 74.8098 354.017 73.6425 350.385 74.9321C350.385 74.9321 354.563 71.3639 363.806 73.9636L368.775 70.9969C368.775 70.9969 361.475 69.4269 357.129 69.9774C357.129 69.9774 361.72 67.5052 370.234 70.1864L373.805 68.5909C373.805 68.5909 368.459 67.5409 366.893 67.3726C365.327 67.2044 365.245 66.7762 365.245 66.7762C368.632 66.2119 372.109 66.5984 375.289 67.8926C375.289 67.8926 382.829 65.0839 382.702 64.6098Z" fill="#6C63FF"/>
<path d="M338.642 51.2342C338.642 51.2342 319.257 50.0669 321.522 63.6566C321.522 63.6566 321.068 66.0575 323.246 67.1483C323.246 67.1483 323.282 66.1289 325.241 66.4806C325.937 66.5976 326.644 66.6318 327.348 66.5825C328.299 66.5197 329.204 66.1473 329.924 65.5223C329.924 65.5223 335.382 63.2692 337.504 54.3589C337.504 54.3589 339.071 52.4168 339.009 51.9172L335.734 53.3139C335.734 53.3139 336.851 55.674 335.974 57.6366C335.974 57.6366 335.867 53.4006 335.239 53.4975C335.112 53.4975 333.536 54.3181 333.536 54.3181C333.536 54.3181 335.464 58.4318 334.01 61.4188C334.01 61.4188 334.561 56.352 332.934 54.6138L330.628 55.9799C330.628 55.9799 332.878 60.226 331.352 63.6923C331.352 63.6923 331.745 58.3757 330.143 56.3061L328.057 57.9373C328.057 57.9373 330.169 62.1223 328.883 64.9972C328.883 64.9972 328.71 58.809 327.603 58.34C327.603 58.34 325.776 59.9508 325.496 60.6134C325.496 60.6134 326.945 63.6719 326.047 65.2572C326.047 65.2572 325.496 61.1334 325.027 61.113C325.027 61.113 323.205 63.8452 323.017 65.7007C323.108 63.9707 323.649 62.2944 324.588 60.8377C323.537 61.0366 322.567 61.538 321.797 62.2803C321.797 62.2803 322.083 60.3484 325.037 60.1802C325.037 60.1802 326.567 58.1055 326.945 57.9781C326.945 57.9781 324.006 57.7334 322.226 58.5235C322.226 58.5235 323.792 56.7037 327.48 57.5295L329.521 55.8474C329.521 55.8474 325.649 55.3376 324.011 55.9034C324.011 55.9034 325.899 54.2927 330.077 55.4651L332.321 54.1244C332.321 54.1244 329.021 53.4159 327.057 53.6708C327.057 53.6708 329.133 52.5544 332.98 53.7625L334.586 53.0438C334.586 53.0438 332.168 52.5697 331.459 52.4933C330.75 52.4168 330.715 52.2231 330.715 52.2231C332.246 51.9685 333.818 52.145 335.255 52.7328C335.255 52.7328 338.703 51.4483 338.642 51.2342Z" fill="#6C63FF"/>
<path opacity="0.1" d="M307.539 115.294H201.967V339.193H307.539V115.294Z" fill="black"/>
<path d="M304.304 401.697C304.304 401.697 301.815 395.907 300.703 393.236C300.075 391.706 299.014 391.451 298.203 391.487L298.249 390.977L298.448 388.566L298.489 388.057C300.412 387.654 302.06 387.338 302.06 387.338L300.861 325.496C300.861 325.496 300.351 324.843 299.116 320.908C298.504 318.946 295.545 316.535 292.78 314.613C292.347 314.312 291.923 314.027 291.505 313.751C292.512 312.909 293.57 312.129 294.673 311.417C296.244 310.504 296.765 305.3 296.765 305.3L296.504 305.81C296.765 305.3 296.504 292.011 296.504 292.011L295.586 278.217C295.586 278.217 294.933 261.819 289.832 257.522C284.731 253.225 278.288 251.721 278.288 251.721L274.717 250.803L268.136 249.116C267.952 248.815 267.774 248.499 267.626 248.168C267.559 248.041 267.498 247.908 267.437 247.775C269.447 246.353 271.087 244.47 272.219 242.284C273.351 240.097 273.941 237.672 273.941 235.21C273.942 234.384 273.876 233.559 273.742 232.743C273.742 232.59 273.686 232.432 273.656 232.279C274.196 231.909 274.708 231.499 275.186 231.051C275.965 230.43 276.602 229.65 277.053 228.762C277.124 228.588 277.182 228.409 277.226 228.227C277.226 228.176 277.226 228.125 277.257 228.069C277.288 228.013 277.303 227.799 277.318 227.661C277.318 227.61 277.318 227.559 277.318 227.508C277.318 227.36 277.318 227.207 277.318 227.06C277.318 227.024 277.318 226.988 277.318 226.947C277.318 226.779 277.293 226.611 277.267 226.438C277.27 226.428 277.27 226.417 277.267 226.407C277.174 225.815 277.02 225.234 276.808 224.674C276.298 223.359 275.635 222.125 275.395 220.723C275.099 219.067 275.441 217.257 274.65 215.769C274.322 215.206 273.873 214.723 273.336 214.353C272.799 213.984 272.187 213.738 271.544 213.633C270.249 213.433 268.924 213.585 267.707 214.071C267.112 214.354 266.471 214.527 265.815 214.581C265.337 214.553 264.869 214.439 264.432 214.245C262.918 213.651 261.479 212.879 260.147 211.946C259.188 211.19 258.164 210.521 257.086 209.947C256.545 209.665 255.948 209.506 255.337 209.481C254.727 209.456 254.119 209.567 253.556 209.805C251.669 210.763 251.312 213.434 249.557 214.612C248.348 215.427 246.771 215.346 245.312 215.397C243.854 215.448 242.201 215.81 241.481 217.074C240.971 217.95 241.094 218.995 241.191 220.02L241.221 220.367C241.221 220.489 241.221 220.616 241.252 220.739C241.332 222.049 241.136 223.362 240.675 224.592C239.971 226.458 238.635 228.298 238.681 230.2C238.685 230.502 238.724 230.803 238.798 231.097C238.838 231.244 238.886 231.388 238.941 231.53C239.222 232.16 239.537 232.774 239.885 233.37L239.931 233.452C239.966 233.523 240.002 233.594 240.033 233.666C240.063 233.737 240.124 233.859 240.16 233.956C240.196 234.053 240.201 234.053 240.216 234.099C240.232 234.145 240.283 234.288 240.308 234.385C240.392 234.672 240.428 234.972 240.415 235.271C240.355 235.658 240.323 236.048 240.318 236.439C240.32 236.634 240.389 236.824 240.513 236.975C240.638 237.126 240.81 237.23 241.002 237.27C241.212 237.264 241.417 237.201 241.594 237.086C242.051 236.825 242.486 236.527 242.894 236.194C242.894 236.357 242.894 236.52 242.925 236.704C243.28 240.352 244.924 243.755 247.562 246.302C247.562 246.46 247.562 246.623 247.526 246.812C247.491 247.001 247.501 247.179 247.491 247.368L241.777 249.162C241.777 249.162 241.808 249.264 241.869 249.437L241.267 249.677C238.303 250.875 235.003 252.363 233.156 253.714C232.34 254.305 231.595 254.789 230.927 255.192C228.5 256.676 226.64 258.928 225.642 261.589L225.565 261.783C225.055 262.95 222.555 270.892 222.555 270.892C222.555 270.892 220.724 275.317 220.459 278.182C220.459 278.182 217.449 287.678 218.235 293.928C218.235 293.928 215.878 302.909 216.796 304.336C216.796 304.336 215.857 308.2 219.979 312.09C219.678 312.273 219.352 312.472 219.01 312.691C215.817 314.7 211.21 317.957 210.424 320.47C209.205 324.38 208.68 325.057 208.68 325.057L207.445 386.803C207.445 386.803 209.093 387.119 211.016 387.516L211.057 388.026L211.256 390.432L211.302 390.942C210.491 390.906 209.43 391.186 208.802 392.695C207.685 395.361 205.231 401.147 205.231 401.147C205.231 401.147 199.737 406.244 203.068 410.975C203.215 411.191 203.386 411.389 203.578 411.566C205.971 413.737 211.072 412.346 214.699 410.929C216.543 410.143 218.132 408.862 219.291 407.228C219.437 407.037 219.621 406.878 219.832 406.761C220.042 406.644 220.275 406.572 220.515 406.55C221.347 406.416 222.131 406.074 222.795 405.556C223.195 405.264 223.518 404.88 223.737 404.436C223.955 403.992 224.063 403.502 224.05 403.007C224.048 402.982 224.048 402.956 224.05 402.931L223.729 395.677C223.729 395.677 223.336 390.61 222.086 390.937L221.765 391.013L221.678 390.503L221.51 389.52L221.423 389.01H222.117C222.117 389.01 222.29 383.28 224.387 378.774C226.483 374.268 227.861 337.867 227.861 337.867C227.861 337.867 253.811 338.29 254.679 335.859C255.189 335.859 255.745 335.859 256.275 335.823C257.148 338.255 281.639 338.372 281.639 338.372C281.639 338.372 283.032 374.813 285.123 379.325C285.565 380.291 285.931 381.29 286.22 382.312C286.878 384.676 287.274 387.105 287.398 389.555H288.092L288 390.065L287.832 391.044L287.745 391.553L287.414 391.477C286.174 391.156 285.781 396.223 285.781 396.223L285.45 403.522C285.424 404.014 285.521 404.505 285.733 404.95C285.945 405.395 286.265 405.781 286.664 406.071C287.339 406.6 288.138 406.951 288.985 407.09C289.225 407.11 289.458 407.18 289.669 407.296C289.88 407.412 290.064 407.571 290.209 407.763C291.369 409.396 292.958 410.676 294.801 411.464C298.718 412.993 304.35 414.487 306.442 411.515C309.798 406.774 304.304 401.697 304.304 401.697ZM238.344 310.79H238.405H238.344ZM279.333 289.952C279.333 289.952 279.991 292.424 281.165 293.724C282.338 295.023 281.756 303.098 281.756 303.098C281.295 303.127 280.837 303.2 280.389 303.317C279.486 297.949 278.655 291.99 279.333 289.952Z" fill="url(#paint0_linear)"/>
<path d="M222.909 391.701L212.65 392.721L212.364 389.29L212.165 386.93L211.885 383.479L221.577 383.989L222.348 388.419L222.511 389.382H222.516L222.909 391.701Z" fill="#8E6F7F"/>
<path d="M297.617 383.994L297.336 387.44L297.143 389.8L296.852 393.23L286.588 392.211L286.996 389.892L287.154 388.933L287.924 384.504L297.617 383.994Z" fill="#8E6F7F"/>
<path d="M286.746 334.35L256.24 335.783C254.853 335.851 253.465 335.851 252.078 335.783L222.934 334.355V311.284H286.746V334.35Z" fill="#5F5570"/>
<path opacity="0.1" d="M286.746 334.35L256.24 335.783C254.853 335.851 253.465 335.851 252.078 335.783L222.934 334.355V311.284H286.746V334.35Z" fill="black"/>
<path d="M247.68 249.126C247.68 249.126 237.518 252.537 233.692 255.34C232.896 255.921 232.162 256.4 231.519 256.793C229.156 258.249 227.348 260.452 226.382 263.052C226.356 263.124 226.331 263.185 226.305 263.241C225.795 264.388 223.372 272.162 223.372 272.162C223.372 272.162 221.586 276.494 221.331 279.298C221.076 282.102 235.87 289.62 235.87 289.62C235.87 289.62 228.728 305.167 231.917 309.118C235.105 313.068 281.655 314.98 280.634 309.118C279.614 303.256 277.829 293.571 278.721 290.895L294.535 279.425C294.535 279.425 293.898 263.369 288.924 259.163C283.95 254.958 277.701 253.429 277.701 253.429L267.799 250.88C267.799 250.88 264.31 259.545 260.484 260.692C256.658 261.839 248.277 256.543 247.68 249.126Z" fill="#EAEAF2"/>
<path opacity="0.1" d="M261.952 263.72C261.952 263.72 257.637 267.319 255.372 263.72C255.372 263.72 253.331 269.807 255.372 271.846L255.295 272.258L254.933 274.073L250.209 313.323L254.096 320.026L261.172 311.157L260.6 274.455L260.345 272.35L260.284 271.84H261.493C261.493 271.84 264.702 266.3 261.952 263.72Z" fill="black"/>
<path opacity="0.1" d="M262.974 263.72C262.974 263.72 258.658 267.319 256.393 263.72C256.393 263.72 254.352 269.807 256.393 271.846L256.316 272.258L255.954 274.073L251.23 313.323L255.118 320.026L262.193 311.157L261.622 274.455L261.367 272.35L261.306 271.84H262.515C262.515 271.84 265.723 266.3 262.974 263.72Z" fill="black"/>
<path d="M261.682 310.652L254.606 319.506L250.709 312.839L255.438 273.568L255.8 271.754L255.882 271.336L256.519 269.684L260.794 271.336L260.856 271.846L261.111 273.951L261.682 310.652Z" fill="#BC8487"/>
<path opacity="0.1" d="M222.348 388.413C220.146 388.399 217.951 388.176 215.792 387.746C214.726 387.481 213.39 387.185 212.17 386.925L211.885 383.474L221.577 383.984L222.348 388.413Z" fill="black"/>
<path d="M254.685 335.828C253.838 338.209 228.546 337.791 228.546 337.791C228.546 337.791 227.189 373.473 225.148 377.892C223.108 382.312 222.934 387.914 222.934 387.914C222.934 387.914 218.516 387.914 215.792 387.236C213.068 386.558 208.65 385.707 208.65 385.707L209.844 325.175C209.844 325.175 210.354 324.538 211.543 320.709C212.308 318.247 216.797 315.056 219.904 313.063C221.638 311.972 222.934 311.259 222.934 311.259L238.024 311.87L247.339 312.248C247.339 312.248 255.537 333.448 254.685 335.828Z" fill="#5F5570"/>
<path opacity="0.1" d="M222.914 391.696L212.65 392.716L212.359 389.285C212.744 389.296 213.123 389.379 213.477 389.53C215.349 390.876 220.7 389.805 222.511 389.377L222.914 391.696Z" fill="black"/>
<path d="M224.851 401.611C224.863 402.094 224.758 402.574 224.544 403.008C224.33 403.442 224.013 403.818 223.622 404.103C222.976 404.609 222.213 404.944 221.403 405.077C221.169 405.097 220.942 405.166 220.737 405.281C220.532 405.395 220.354 405.551 220.214 405.74C219.08 407.338 217.527 408.592 215.725 409.364C212.19 410.75 207.216 412.111 204.885 409.986C204.692 409.815 204.521 409.621 204.375 409.41C201.125 404.761 206.481 399.786 206.481 399.786C206.481 399.786 208.899 394.117 209.986 391.508C210.103 391.169 210.291 390.859 210.536 390.598C210.782 390.336 211.079 390.13 211.41 389.991C211.741 389.853 212.097 389.785 212.456 389.794C212.814 389.802 213.167 389.886 213.491 390.039C215.531 391.508 221.719 390.101 222.928 389.79C224.137 389.479 224.525 394.433 224.525 394.433L224.851 401.534C224.849 401.56 224.849 401.585 224.851 401.611Z" fill="#BC8487"/>
<path opacity="0.1" d="M297.621 383.989L297.335 387.435C296.116 387.695 294.785 387.99 293.708 388.255C291.551 388.686 289.358 388.912 287.158 388.928L287.929 384.499L297.621 383.989Z" fill="black"/>
<path d="M300.86 386.216C300.86 386.216 296.443 387.068 293.718 387.746C290.994 388.424 286.577 388.424 286.577 388.424C286.577 388.424 286.408 382.816 284.368 378.402C282.327 373.988 280.965 338.301 280.965 338.301C280.965 338.301 257.101 338.163 256.249 335.783C255.397 333.402 266.651 312.844 266.651 312.844L273.512 312.487L286.577 311.794C286.577 311.794 289.127 313.181 291.8 315.051C294.473 316.922 297.376 319.298 297.973 321.219C299.162 325.047 299.672 325.685 299.672 325.685L300.86 386.216Z" fill="#5F5570"/>
<path opacity="0.1" d="M297.143 389.795L296.857 393.225L286.588 392.206L286.996 389.887C288.807 390.32 294.138 391.385 296.025 390.039C296.379 389.888 296.758 389.805 297.143 389.795Z" fill="black"/>
<path d="M296.026 390.549C296.35 390.395 296.703 390.31 297.062 390.301C297.421 390.293 297.778 390.36 298.11 390.498C298.441 390.637 298.739 390.844 298.985 391.106C299.231 391.367 299.418 391.678 299.536 392.017C300.617 394.627 303.04 400.301 303.04 400.301C303.04 400.301 308.397 405.271 305.147 409.919C303.107 412.835 297.618 411.372 293.802 409.874C291.998 409.105 290.444 407.85 289.313 406.249C289.172 406.061 288.993 405.904 288.787 405.79C288.581 405.676 288.353 405.606 288.119 405.587C287.29 405.442 286.511 405.092 285.854 404.567C285.468 404.281 285.158 403.905 284.952 403.471C284.747 403.037 284.652 402.559 284.675 402.08L284.997 394.943C284.997 394.943 285.379 389.983 286.588 390.294C287.797 390.605 293.985 392.017 296.026 390.549Z" fill="#BC8487"/>
<path d="M269.657 253.429L259.357 264.337L259.071 264.643L258.699 264.424C256.546 263.149 245.777 256.655 246.701 254.703C247.211 253.592 247.512 251.277 247.67 249.284C247.67 249.045 247.7 248.81 247.721 248.581C247.823 247.006 247.848 245.782 247.848 245.782C247.848 245.782 267.233 242.469 266.468 245.782C266.157 247.123 266.621 248.632 267.279 249.952C267.473 250.334 267.687 250.696 267.897 251.038C268.412 251.885 269.001 252.685 269.657 253.429Z" fill="#FFC4D0"/>
<path opacity="0.1" d="M267.279 249.952C264.387 252.082 260.831 253.113 257.248 252.862C253.664 252.611 250.287 251.093 247.721 248.581C247.823 247.006 247.848 245.782 247.848 245.782C247.848 245.782 267.233 242.469 266.468 245.782C266.172 247.133 266.621 248.632 267.279 249.952Z" fill="black"/>
<path d="M273.436 237.265C273.492 241.188 272.02 244.98 269.33 247.839C266.641 250.698 262.944 252.401 259.022 252.587C255.099 252.774 251.258 251.43 248.309 248.839C245.359 246.248 243.533 242.613 243.216 238.702C243.175 238.226 243.155 237.747 243.155 237.265C243.118 235.255 243.482 233.259 244.226 231.392C244.97 229.525 246.079 227.825 247.488 226.391C248.897 224.957 250.577 223.818 252.432 223.041C254.286 222.263 256.277 221.863 258.288 221.863C260.299 221.863 262.29 222.263 264.144 223.041C265.999 223.818 267.679 224.957 269.088 226.391C270.497 227.825 271.606 229.525 272.35 231.392C273.094 233.259 273.458 235.255 273.421 237.265H273.436Z" fill="#FFC4D0"/>
<path opacity="0.1" d="M273.248 234.849C272.854 235.169 272.397 235.403 271.907 235.536C271.416 235.669 270.903 235.697 270.401 235.618C268.065 235.108 267.264 231.54 264.877 231.296C262.489 231.051 260.903 234.354 258.485 234.288C257.464 234.262 256.546 233.595 255.607 233.131C253.965 232.32 251.261 231.826 249.486 232.437C246.818 233.35 245.915 235.817 244.211 237.78C243.92 238.114 243.601 238.422 243.257 238.702C243.216 238.226 243.196 237.747 243.196 237.265C243.161 233.44 244.578 229.744 247.162 226.921C249.745 224.098 253.303 222.358 257.119 222.052C260.935 221.746 264.725 222.896 267.726 225.27C270.728 227.644 272.717 231.067 273.294 234.849H273.248Z" fill="black"/>
<path d="M255.607 232.626C256.546 233.085 257.443 233.758 258.484 233.783C260.897 233.844 262.473 230.526 264.871 230.786C267.269 231.046 268.059 234.583 270.406 235.108C271.982 235.465 273.467 234.288 274.645 233.192C275.407 232.586 276.028 231.822 276.466 230.954C276.977 229.69 276.711 228.232 276.237 226.947C275.762 225.663 275.094 224.429 274.859 223.079C274.574 221.458 274.905 219.684 274.135 218.226C273.816 217.675 273.379 217.202 272.855 216.84C272.331 216.479 271.733 216.238 271.105 216.136C269.843 215.94 268.552 216.086 267.366 216.559C266.788 216.839 266.164 217.012 265.524 217.069C265.057 217.04 264.599 216.928 264.172 216.737C262.697 216.156 261.296 215.402 259.999 214.489C259.07 213.748 258.074 213.093 257.025 212.532C256.498 212.255 255.916 212.1 255.322 212.076C254.727 212.052 254.134 212.161 253.587 212.394C251.75 213.332 251.398 215.963 249.689 217.099C248.511 217.894 246.976 217.813 245.557 217.869C244.139 217.925 242.497 218.267 241.823 219.505C241.221 220.571 241.522 221.881 241.599 223.099C241.675 224.382 241.482 225.667 241.032 226.871C240.242 228.981 238.635 231.061 239.206 233.243C239.579 234.675 240.864 235.863 240.788 237.321C240.727 237.697 240.695 238.077 240.691 238.457C240.692 238.649 240.76 238.834 240.881 238.983C241.003 239.131 241.171 239.234 241.359 239.273C241.564 239.27 241.763 239.207 241.93 239.09C242.778 238.615 243.539 238 244.18 237.27C245.904 235.302 246.797 232.84 249.465 231.928C251.266 231.331 253.964 231.81 255.607 232.626Z" fill="#3E2D28"/>
<path d="M273.161 321.607L270.406 322.356L264.045 324.104C262.572 325.2 260.915 326.024 259.152 326.536C255.26 327.52 252.745 325.379 250.654 322.065C249.812 320.74 250.235 319.68 251.337 318.849C253.99 316.846 260.55 316.193 262.56 316.458C263.88 316.566 265.207 316.359 266.432 315.857C267.302 315.541 268.14 315.145 268.937 314.674L273.161 321.607Z" fill="#FFC4D0"/>
<path opacity="0.1" d="M273.161 321.607L270.407 322.356C269.616 319.975 268.315 316.988 266.453 315.841C267.323 315.525 268.161 315.129 268.958 314.659L273.161 321.607Z" fill="black"/>
<path opacity="0.1" d="M291.791 315.051C290.648 315.974 289.679 316.815 289.679 316.815C289.679 316.815 276.416 320.969 273.865 326.194C273.865 326.194 271.824 315.999 267.488 315.872C267.488 315.872 272.156 314.042 273.503 312.477L286.577 311.794C286.577 311.794 289.128 313.181 291.791 315.051Z" fill="black"/>
<path d="M291.593 275.093L294.526 279.425L295.419 292.934C295.419 292.934 295.674 305.932 295.419 306.442L295.674 305.932C295.674 305.932 295.164 311.029 293.633 311.922C292.103 312.814 288.66 315.796 288.66 315.796C288.66 315.796 275.396 319.95 272.845 325.175C272.845 325.175 270.805 314.98 266.469 314.853C266.469 314.853 272.973 312.304 272.845 310.647C272.845 310.647 277.819 306.187 278.202 305.04C278.584 303.893 281.069 303.766 281.069 303.766C281.069 303.766 281.645 295.865 280.497 294.59C279.35 293.316 278.712 290.895 278.712 290.895L291.593 275.093Z" fill="#EAEAF2"/>
<path opacity="0.1" d="M259.152 326.52C255.26 327.504 252.745 325.363 250.654 322.05C249.812 320.725 250.235 319.664 251.337 318.833L251.735 318.992C251.735 318.992 258.749 322.03 259.152 326.52Z" fill="black"/>
<path d="M257.541 330.593C252.95 336.965 244.405 328.106 243.767 326.322C243.538 325.674 242.666 325.098 241.661 324.634C240.386 324.078 239.062 323.639 237.707 323.324L245.298 317.146L246.752 317.727L251.226 319.517C251.226 319.517 262.132 324.222 257.541 330.593Z" fill="#FFC4D0"/>
<path opacity="0.1" d="M246.752 317.727C242.569 319.715 241.676 322.575 241.651 324.634C240.376 324.078 239.052 323.639 237.697 323.324L245.288 317.146L246.752 317.727Z" fill="black"/>
<path opacity="0.1" d="M240.068 328.743C240.068 328.743 227.825 319.058 221.959 314.853C221.224 314.33 220.541 313.74 219.918 313.089C221.652 311.998 222.948 311.284 222.948 311.284L238.038 311.896C238.441 312.594 238.681 313.069 238.681 313.069L246.843 318.421C237.007 321.607 240.068 328.743 240.068 328.743Z" fill="black"/>
<path d="M223.745 277.896L221.322 279.298C221.322 279.298 218.389 288.601 219.154 294.718C219.154 294.718 216.858 303.511 217.751 304.913C217.751 304.913 216.603 309.628 222.47 313.833C228.336 318.038 240.58 327.724 240.58 327.724C240.58 327.724 237.519 320.587 247.339 317.401L239.177 312.049C239.177 312.049 236.437 306.615 233.82 305.422C233.82 305.422 231.78 303.383 233.055 301.982C234.33 300.58 235.351 299.051 235.351 297.649C235.351 296.247 235.861 289.62 235.861 289.62L237.391 282.484L223.745 277.896Z" fill="#EAEAF2"/>
<path opacity="0.1" d="M260.856 271.84H255.882C255.852 271.812 255.825 271.782 255.801 271.749L255.882 271.331L256.52 269.679L260.795 271.331L260.856 271.84Z" fill="black"/>
<path d="M262.464 263.21C262.464 263.21 258.148 266.809 255.883 263.21C255.883 263.21 253.843 269.297 255.883 271.336H262.005C262.005 271.336 265.214 265.79 262.464 263.21Z" fill="#BC8487"/>
<path opacity="0.1" d="M268.3 251.39L274.728 253.046C274.728 253.046 268.637 268.848 267.295 268.848L259.582 265.153L268.3 251.39Z" fill="black"/>
<path opacity="0.1" d="M269.657 253.429L259.357 264.337L259.072 264.643L258.699 264.424L267.703 250.701L267.922 251.063C268.431 251.901 269.011 252.692 269.657 253.429Z" fill="black"/>
<path d="M267.79 250.88L274.218 252.537C274.218 252.537 268.127 268.339 266.785 268.339L259.072 264.643L267.79 250.88Z" fill="#EAEAF2"/>
<path opacity="0.1" d="M247.17 249.636L241.6 251.39C241.6 251.39 247.084 267.956 248.614 268.848L258.562 265.153L247.17 249.636Z" fill="black"/>
<path opacity="0.1" d="M259.356 264.337L259.071 264.643C259.071 264.643 245.68 256.869 246.7 254.703C247.21 253.592 247.511 251.277 247.669 249.284V248.973L259.356 264.337Z" fill="black"/>
<path d="M247.68 249.126L242.109 250.88C242.109 250.88 247.593 267.446 249.124 268.338L259.071 264.643L247.68 249.126Z" fill="#EAEAF2"/>
<path opacity="0.1" d="M234.412 276.189C234.412 276.189 237.769 276.785 237.708 280.267C237.646 283.748 239.09 275.766 239.09 275.766L234.412 276.189Z" fill="black"/>
<path opacity="0.1" d="M235.177 286.893C235.177 286.893 234.243 292.159 235.177 296.92C236.11 301.681 236.029 303.291 236.753 303.546C237.477 303.801 235.177 286.893 235.177 286.893Z" fill="black"/>
<path opacity="0.1" d="M278.028 286.383C277.761 286.417 277.503 286.51 277.275 286.654C277.047 286.797 276.853 286.99 276.707 287.217C276.561 287.444 276.467 287.7 276.431 287.967C276.395 288.234 276.418 288.506 276.498 288.764C276.926 290.895 278.028 286.383 278.028 286.383Z" fill="black"/>
<path opacity="0.1" d="M219.705 304.224C219.705 304.224 230.637 303.292 232.458 305.244C234.28 307.196 219.705 304.224 219.705 304.224Z" fill="black"/>
<path opacity="0.1" d="M283.129 304.963C283.129 304.963 291.123 303.98 292.995 305.341L283.129 304.963Z" fill="black"/>
<path opacity="0.1" d="M286.363 306.263C286.363 306.263 291.123 306.432 292.23 307.028L286.363 306.263Z" fill="black"/>
<path opacity="0.1" d="M287.297 307.971C287.297 307.971 291.633 307.803 292.23 308.481L287.297 307.971Z" fill="black"/>
<path opacity="0.1" d="M226.146 331.929C226.146 331.929 229.86 333.861 229.483 335.834C229.105 337.806 226.146 331.929 226.146 331.929Z" fill="black"/>
<path opacity="0.1" d="M222.934 332.867C222.934 332.867 228.601 340.212 227.831 342.633C227.061 345.055 222.934 332.867 222.934 332.867Z" fill="black"/>
<path opacity="0.1" d="M283.686 334.085C283.686 334.085 280.88 336.394 280.957 338.301L283.686 334.085Z" fill="black"/>
<path opacity="0.1" d="M218.898 379.59C218.898 379.59 218.898 381.756 222.913 384.942L218.898 379.59Z" fill="black"/>
<path opacity="0.1" d="M289.762 374.492C289.762 374.492 289.333 378.998 285.426 381.333L289.762 374.492Z" fill="black"/>
<g opacity="0.1">
<path opacity="0.1" d="M241.598 221.549C241.598 221.198 241.537 220.836 241.506 220.479C241.441 221.257 241.465 222.04 241.578 222.813C241.613 222.393 241.619 221.971 241.598 221.549Z" fill="black"/>
<path opacity="0.1" d="M240.788 235.791C240.865 234.313 239.579 233.126 239.207 231.714C239.188 231.645 239.174 231.575 239.166 231.505C239.05 232.08 239.063 232.674 239.207 233.243C239.508 234.41 240.416 235.409 240.701 236.541C240.727 236.276 240.778 236.036 240.788 235.791Z" fill="black"/>
<path opacity="0.1" d="M276.466 229.425C276.026 230.292 275.405 231.055 274.645 231.663C273.456 232.758 271.982 233.936 270.406 233.579C268.064 233.069 267.258 229.501 264.871 229.257C262.483 229.012 260.897 232.315 258.484 232.249C257.464 232.223 256.545 231.555 255.607 231.092C253.964 230.281 251.266 229.787 249.485 230.398C246.817 231.311 245.914 233.778 244.2 235.74C243.56 236.471 242.802 237.088 241.956 237.565C241.784 237.678 241.584 237.74 241.379 237.744C241.251 237.727 241.13 237.675 241.03 237.594C240.929 237.513 240.852 237.406 240.808 237.285V237.321C240.748 237.698 240.715 238.08 240.711 238.463C240.714 238.653 240.781 238.837 240.903 238.985C241.024 239.132 241.192 239.234 241.379 239.273C241.584 239.269 241.784 239.208 241.956 239.095C242.802 238.617 243.56 238 244.2 237.27C245.924 235.307 246.817 232.84 249.485 231.928C251.286 231.316 253.985 231.81 255.607 232.621C256.545 233.085 257.443 233.752 258.484 233.778C260.897 233.839 262.473 230.521 264.871 230.786C267.269 231.051 268.064 234.578 270.406 235.108C271.982 235.465 273.467 234.288 274.645 233.192C275.405 232.585 276.026 231.822 276.466 230.954C276.75 230.217 276.826 229.417 276.686 228.64C276.642 228.909 276.569 229.172 276.466 229.425Z" fill="black"/>
</g>
<path opacity="0.1" d="M206.486 399.791C206.486 399.791 210.654 398.506 212.383 400.943L206.486 399.791Z" fill="black"/>
<path opacity="0.1" d="M303.04 400.301C303.04 400.301 296.138 399.898 296.408 401.764L303.04 400.301Z" fill="black"/>
<path opacity="0.1" d="M440.841 396.523C448.429 396.523 454.579 395.485 454.579 394.204C454.579 392.923 448.429 391.885 440.841 391.885C433.254 391.885 427.104 392.923 427.104 394.204C427.104 395.485 433.254 396.523 440.841 396.523Z" fill="#6C63FF"/>
<path opacity="0.1" d="M46.4684 415.557C54.0556 415.557 60.2062 414.519 60.2062 413.238C60.2062 411.957 54.0556 410.919 46.4684 410.919C38.8811 410.919 32.7305 411.957 32.7305 413.238C32.7305 414.519 38.8811 415.557 46.4684 415.557Z" fill="#6C63FF"/>
<path opacity="0.1" d="M99.609 428C107.196 428 113.347 426.962 113.347 425.681C113.347 424.4 107.196 423.361 99.609 423.361C92.0218 423.361 85.8711 424.4 85.8711 425.681C85.8711 426.962 92.0218 428 99.609 428Z" fill="#6C63FF"/>
<path d="M410.77 422.525C422.099 422.525 431.283 420.973 431.283 419.059C431.283 417.145 422.099 415.593 410.77 415.593C399.442 415.593 390.258 417.145 390.258 419.059C390.258 420.973 399.442 422.525 410.77 422.525Z" fill="#6C63FF"/>
<path d="M419.254 413.391C420.188 412.627 420.87 411.598 421.207 410.439C421.462 409.272 420.963 407.891 419.84 407.437C418.585 406.958 417.244 407.83 416.229 408.706C415.213 409.583 414.045 410.587 412.714 410.399C413.399 409.779 413.912 408.993 414.202 408.117C414.493 407.24 414.551 406.304 414.372 405.398C414.312 405.023 414.151 404.67 413.907 404.379C413.214 403.634 411.949 403.95 411.117 404.542C408.464 406.402 407.725 410.006 407.709 413.243C407.439 412.076 407.668 410.857 407.658 409.675C407.648 408.492 407.327 407.126 406.312 406.499C405.685 406.163 404.981 405.998 404.271 406.02C403.077 405.974 401.751 406.096 400.935 406.968C399.914 408.049 400.19 409.863 401.067 411.046C401.945 412.229 403.286 412.988 404.521 413.809C405.509 414.397 406.351 415.2 406.985 416.159C407.061 416.293 407.123 416.435 407.169 416.582H414.622C416.302 415.731 417.86 414.658 419.254 413.391Z" fill="#6C63FF"/>
<path d="M100.319 368.681C100.319 368.681 103.124 372.346 99.0279 377.857C94.9315 383.367 91.5544 388.051 92.9063 391.502C92.9063 391.502 99.0891 381.231 104.129 381.088C109.169 380.946 105.853 374.859 100.319 368.681Z" fill="#6C63FF"/>
<path opacity="0.1" d="M100.318 368.681C100.562 369.036 100.755 369.424 100.889 369.833C105.796 375.593 108.413 380.971 103.695 381.104C99.3024 381.231 94.0327 389.081 92.7676 391.064C92.8084 391.217 92.8594 391.365 92.9155 391.518C92.9155 391.518 99.0983 381.246 104.138 381.104C109.179 380.961 105.852 374.859 100.318 368.681Z" fill="black"/>
<path d="M105.526 373.35C105.526 374.64 105.383 375.685 105.204 375.685C105.026 375.685 104.883 374.64 104.883 373.35C104.883 372.061 105.061 372.667 105.24 372.667C105.418 372.667 105.526 372.061 105.526 373.35Z" fill="#FFD037"/>
<path d="M107.317 374.89C106.184 375.507 105.195 375.879 105.113 375.721C105.031 375.563 105.873 374.936 107.005 374.319C108.138 373.702 107.694 374.151 107.776 374.319C107.857 374.487 108.449 374.273 107.317 374.89Z" fill="#FFD037"/>
<path d="M85.5189 368.681C85.5189 368.681 82.7132 372.346 86.8096 377.857C90.9059 383.367 94.283 388.051 92.9312 391.502C92.9312 391.502 86.7534 381.231 81.7082 381.088C76.663 380.946 79.9738 374.859 85.5189 368.681Z" fill="#6C63FF"/>
<path opacity="0.1" d="M85.5183 368.681C85.2729 369.036 85.0788 369.424 84.9418 369.833C80.0344 375.593 77.4225 380.971 82.1361 381.104C86.5335 381.231 91.8031 389.081 93.0683 391.064C93.0265 391.218 92.9754 391.37 92.9152 391.518C92.9152 391.518 86.7375 381.246 81.6923 381.104C76.6471 380.961 79.9731 374.859 85.5183 368.681Z" fill="black"/>
<path d="M80.3047 373.35C80.3047 374.64 80.4526 375.685 80.6312 375.685C80.8097 375.685 80.9526 374.64 80.9526 373.35C80.9526 372.061 80.774 372.667 80.5955 372.667C80.4169 372.667 80.3047 372.061 80.3047 373.35Z" fill="#FFD037"/>
<path d="M78.5204 374.89C79.6529 375.507 80.6375 375.879 80.7242 375.721C80.8109 375.563 79.959 374.936 78.8265 374.319C77.694 373.702 78.1429 374.151 78.0562 374.319C77.9695 374.487 77.3879 374.273 78.5204 374.89Z" fill="#FFD037"/>
<path d="M81.1973 391.039C81.1973 391.039 89.0329 390.794 91.3999 389.117C93.767 387.44 103.454 385.426 104.036 388.123C104.617 390.819 115.815 401.524 106.969 401.595C98.1235 401.667 86.4108 400.219 84.054 398.787C81.6972 397.354 81.1973 391.039 81.1973 391.039Z" fill="#A8A8A8"/>
<path opacity="0.2" d="M107.122 400.657C98.2765 400.729 86.5639 399.281 84.207 397.849C82.4165 396.753 81.6972 392.833 81.4574 391.028H81.1973C81.1973 391.028 81.7074 397.339 84.0489 398.776C86.3904 400.214 98.1184 401.656 106.964 401.585C109.515 401.585 110.397 400.657 110.351 399.312C109.994 400.137 109.02 400.642 107.122 400.657Z" fill="black"/>
</g>
<defs>
<linearGradient id="paint0_linear" x1="201.966" y1="311.34" x2="307.539" y2="311.34" gradientUnits="userSpaceOnUse">
<stop stop-color="#808080" stop-opacity="0.25"/>
<stop offset="0.54" stop-color="#808080" stop-opacity="0.12"/>
<stop offset="1" stop-color="#808080" stop-opacity="0.1"/>
</linearGradient>
<clipPath id="clip0">
<rect width="515" height="428" fill="white"/>
</clipPath>
</defs>
</svg>
