<svg width="301" height="242" viewBox="0 0 301 242" fill="none" xmlns="http://www.w3.org/2000/svg">
<g clip-path="url(#clip0)">
<path opacity="0.1" d="M126.644 242C173.346 242 211.205 238.18 211.205 233.468C211.205 228.756 173.346 224.936 126.644 224.936C79.943 224.936 42.084 228.756 42.084 233.468C42.084 238.18 79.943 242 126.644 242Z" fill="#6C63FF"/>
<path d="M49.2886 232.542C49.2886 232.542 45.5369 211.273 31.6117 200.733C25.7688 196.31 21.4935 190.295 19.6263 183.445C18.7476 180.199 18.1847 176.876 17.9453 173.521" stroke="#535461" stroke-width="2" stroke-miterlimit="10"/>
<path d="M9.21421 166.829C10.3776 169.107 18.1516 173.72 18.1516 173.72C18.1516 173.72 19.1288 165.103 17.9567 162.822C16.7847 160.54 13.885 159.589 11.4653 160.694C9.04553 161.8 8.04214 164.547 9.21421 166.829Z" fill="#6C63FF"/>
<path d="M8.4716 182.773C10.7692 184.085 19.9421 183.969 19.9421 183.969C19.9421 183.969 15.8036 176.234 13.5147 174.922C11.2258 173.609 8.23311 174.302 6.84292 176.47C5.45272 178.638 6.17691 181.46 8.4716 182.773Z" fill="#6C63FF"/>
<path d="M19.8749 204.225C22.5564 204.263 30.4119 199.787 30.4119 199.787C30.4119 199.787 22.7077 195.085 20.0233 195.044C17.3388 195.003 15.1314 197.029 15.0791 199.563C15.0267 202.098 17.1905 204.179 19.8749 204.225Z" fill="#6C63FF"/>
<path d="M32.3692 218.609C35.0042 219.078 43.549 215.917 43.549 215.917C43.549 215.917 36.7958 210.045 34.1637 209.585C31.5316 209.125 28.9868 210.749 28.4924 213.252C27.998 215.754 29.7314 218.143 32.3692 218.609Z" fill="#6C63FF"/>
<path d="M29.3483 180.203C28.4321 182.586 21.2049 187.929 21.2049 187.929C21.2049 187.929 19.2912 179.455 20.2073 177.072C21.1234 174.688 23.9125 173.457 26.4341 174.322C28.9556 175.186 30.2644 177.822 29.3483 180.203Z" fill="#6C63FF"/>
<path d="M43.7356 197.209C42.1069 199.226 33.5215 202.281 33.5215 202.281C33.5215 202.281 34.394 193.653 36.011 191.639C36.8279 190.662 37.9831 190.03 39.2458 189.868C40.5085 189.706 41.7858 190.027 42.8224 190.766C43.3256 191.113 43.7515 191.561 44.0731 192.081C44.3947 192.601 44.605 193.182 44.6908 193.787C44.7766 194.393 44.7361 195.009 44.5716 195.598C44.4072 196.187 44.1226 196.736 43.7356 197.209Z" fill="#6C63FF"/>
<path d="M55.3167 215.551C54.072 217.797 46.1583 222.18 46.1583 222.18C46.1583 222.18 45.4632 213.54 46.708 211.294C47.9528 209.047 50.8873 208.18 53.2663 209.356C55.6454 210.531 56.5586 213.304 55.3167 215.551Z" fill="#6C63FF"/>
<path opacity="0.25" d="M9.21421 166.829C10.3776 169.107 18.1516 173.72 18.1516 173.72C18.1516 173.72 19.1288 165.103 17.9567 162.822C16.7847 160.54 13.885 159.589 11.4653 160.694C9.04553 161.8 8.04214 164.547 9.21421 166.829Z" fill="black"/>
<path opacity="0.25" d="M8.4716 182.773C10.7692 184.085 19.9421 183.969 19.9421 183.969C19.9421 183.969 15.8036 176.234 13.5147 174.922C11.2258 173.609 8.23311 174.302 6.84292 176.47C5.45272 178.638 6.17691 181.46 8.4716 182.773Z" fill="black"/>
<path opacity="0.25" d="M19.8749 204.225C22.5564 204.263 30.4119 199.787 30.4119 199.787C30.4119 199.787 22.7077 195.085 20.0233 195.044C17.3388 195.003 15.1314 197.029 15.0791 199.563C15.0267 202.098 17.1905 204.179 19.8749 204.225Z" fill="black"/>
<path opacity="0.25" d="M32.3692 218.609C35.0042 219.078 43.549 215.917 43.549 215.917C43.549 215.917 36.7958 210.045 34.1637 209.585C31.5316 209.125 28.9868 210.749 28.4924 213.252C27.998 215.754 29.7314 218.143 32.3692 218.609Z" fill="black"/>
<path opacity="0.25" d="M29.3483 180.203C28.4321 182.586 21.2049 187.929 21.2049 187.929C21.2049 187.929 19.2912 179.455 20.2073 177.072C21.1234 174.688 23.9125 173.457 26.4341 174.322C28.9556 175.186 30.2644 177.822 29.3483 180.203Z" fill="black"/>
<path opacity="0.25" d="M43.7356 197.209C42.1069 199.226 33.5215 202.281 33.5215 202.281C33.5215 202.281 34.394 193.653 36.011 191.639C36.8279 190.662 37.9831 190.03 39.2458 189.868C40.5085 189.706 41.7858 190.027 42.8224 190.766C43.3256 191.113 43.7515 191.561 44.0731 192.081C44.3947 192.601 44.605 193.182 44.6908 193.787C44.7766 194.393 44.7361 195.009 44.5716 195.598C44.4072 196.187 44.1226 196.736 43.7356 197.209Z" fill="black"/>
<path opacity="0.25" d="M55.3167 215.551C54.072 217.797 46.1583 222.18 46.1583 222.18C46.1583 222.18 45.4632 213.54 46.708 211.294C47.9528 209.047 50.8873 208.18 53.2663 209.356C55.6454 210.531 56.5586 213.304 55.3167 215.551Z" fill="black"/>
<path d="M48.8173 231.984C48.8173 231.984 54.5089 211.102 46.3016 196.132C42.8581 189.853 41.529 182.717 42.7621 175.739C43.3541 172.421 44.2648 169.168 45.4814 166.025" stroke="#535461" stroke-width="2" stroke-miterlimit="10"/>
<path d="M40.3684 156.565C40.4615 159.097 45.5831 166.287 45.5831 166.287C45.5831 166.287 50.1725 158.782 50.0794 156.248C49.9863 153.713 47.7382 151.731 45.0567 151.819C42.3752 151.906 40.2724 154.03 40.3684 156.565Z" fill="#6C63FF"/>
<path d="M32.852 170.859C34.3876 172.937 42.8218 176.342 42.8218 176.342C42.8218 176.342 42.3565 167.687 40.8209 165.606C40.0442 164.599 38.9157 163.921 37.6614 163.71C36.4071 163.5 35.1194 163.77 34.056 164.469C33.5393 164.793 33.0952 165.221 32.7515 165.726C32.4079 166.231 32.1721 166.801 32.0591 167.401C31.946 168.001 31.9581 168.618 32.0946 169.213C32.231 169.808 32.4889 170.368 32.852 170.859Z" fill="#6C63FF"/>
<path d="M34.074 194.829C36.5112 195.891 45.6144 194.808 45.6144 194.808C45.6144 194.808 40.5859 187.557 38.1487 186.494C35.7115 185.432 32.8264 186.436 31.7008 188.738C30.5753 191.04 31.6398 193.767 34.074 194.829Z" fill="#6C63FF"/>
<path d="M39.3247 212.769C41.538 214.206 50.7022 214.588 50.7022 214.588C50.7022 214.588 47.0435 206.64 44.8332 205.206C43.7679 204.511 42.4798 204.245 41.2269 204.461C39.974 204.677 38.8489 205.359 38.0771 206.37C37.7144 206.863 37.4581 207.427 37.3241 208.025C37.1901 208.622 37.1815 209.242 37.2988 209.843C37.416 210.444 37.6566 211.015 38.0053 211.518C38.354 212.022 38.8033 212.448 39.3247 212.769Z" fill="#6C63FF"/>
<path d="M53.0402 176.501C51.1789 178.329 42.2793 180.45 42.2793 180.45C42.2793 180.45 44.1668 171.967 46.0253 170.14C46.9449 169.258 48.1629 168.755 49.4365 168.731C50.7101 168.708 51.9459 169.165 52.8977 170.012C53.3551 170.415 53.724 170.909 53.9811 171.462C54.2382 172.015 54.3778 172.615 54.3912 173.225C54.4046 173.835 54.2915 174.441 54.0589 175.005C53.8264 175.569 53.4795 176.078 53.0402 176.501Z" fill="#6C63FF"/>
<path d="M58.8863 197.555C56.5334 198.775 47.375 198.283 47.375 198.283C47.375 198.283 51.8626 190.717 54.2154 189.506C56.5683 188.296 59.5232 189.102 60.8116 191.325C62.1 193.548 61.2508 196.336 58.8863 197.555Z" fill="#6C63FF"/>
<path opacity="0.1" d="M174.882 27.6658C155.585 27.11 137.207 21.9185 119.67 16.2381C102.132 10.5578 84.7229 4.27505 65.8884 1.26609C53.7751 -0.669071 39.9227 -0.942612 30.1622 4.46711C20.7682 9.67313 17.7348 18.6622 16.1032 27.0052C14.873 33.2792 14.1517 39.8849 17.5167 45.7574C19.8434 49.8314 23.9994 53.2623 26.8671 57.1675C36.8427 70.7602 29.7929 87.519 18.9796 100.789C13.9074 107.013 8.02383 112.953 4.10918 119.579C0.194538 126.205 -1.60864 133.803 1.80867 140.554C5.20272 147.247 13.2909 152.284 22.0537 155.826C39.8499 163.014 60.8221 165.071 81.2707 166.238C126.536 168.816 172.046 167.693 217.434 166.581C234.23 166.168 251.101 165.749 267.626 163.584C276.802 162.382 286.275 160.476 292.929 155.872C301.387 150.029 303.481 140.132 297.815 132.805C288.311 120.513 262.042 117.46 255.385 104.269C251.726 97.0086 255.484 88.9188 260.798 82.185C272.198 67.7396 291.309 55.0665 292.315 38.5551C293.005 27.206 283.82 15.8569 269.616 10.4908C254.728 4.86578 234.081 5.57292 223.082 14.885C211.795 24.4706 191.919 28.1692 174.882 27.6658Z" fill="#6C63FF"/>
<path d="M61.616 218.758C59.5132 220.335 50.3984 221.313 50.3984 221.313C50.3984 221.313 53.4697 213.144 55.5724 211.567C56.5945 210.808 57.8652 210.463 59.1306 210.6C60.396 210.738 61.5629 211.348 62.3983 212.309C62.7933 212.774 63.0878 213.316 63.2633 213.9C63.4388 214.484 63.4915 215.099 63.418 215.705C63.3445 216.31 63.1464 216.894 62.8363 217.42C62.5262 217.945 62.1107 218.401 61.616 218.758Z" fill="#6C63FF"/>
<path d="M288.57 110.045C288.745 109.568 287.436 106.923 287.436 106.792C287.436 106.661 286.084 105.185 286.084 104.362C286.084 103.538 284.292 101.76 284.292 101.76C284.292 101.76 281.893 100.762 281.631 98.5941C281.369 96.4261 278.755 96.3795 278.749 96.3795C278.749 96.3795 278.749 96.1817 278.766 95.8819C278.766 95.2068 278.746 94.0021 278.443 93.3444C278.132 92.7458 277.598 92.2933 276.957 92.0844C276.957 92.0844 276.695 90.3936 276.172 89.8727C275.879 89.567 275.67 89.1918 275.562 88.7824C275.455 88.3731 275.454 87.9431 275.558 87.5331C275.82 86.7095 275.209 84.6231 273.941 84.3321C272.673 84.0411 271.236 83.5522 271.236 83.5522C271.236 83.5522 271.094 83.5784 270.887 83.6075L270.713 83.5522C270.409 83.6082 270.102 83.6461 269.794 83.6657C269.526 83.6752 269.264 83.5884 269.055 83.4212C268.616 82.944 265.079 82.0332 264.425 82.0332C263.771 82.0332 261.892 81.1601 261.892 81.1601L260.019 79.7284C259.493 79.3268 258.518 77.6914 258.376 77.4615L258.358 77.4295C258.197 77.06 258.065 76.6786 257.963 76.2888C258.601 75.6209 259.147 74.8702 259.586 74.0568C259.632 73.9724 259.673 73.8851 259.714 73.8007C259.812 73.799 259.91 73.7833 260.004 73.7542C260.042 73.7542 260.08 73.7251 260.118 73.7105C260.561 73.4772 260.894 73.0789 261.046 72.6018C261.078 72.5087 261.107 72.4126 261.13 72.3108C261.13 72.2788 261.13 72.2439 261.15 72.2118C261.171 72.1798 261.179 72.0809 261.191 72.014C261.203 71.947 261.206 71.9383 261.211 71.9034C261.217 71.8685 261.232 71.7724 261.24 71.7055C261.249 71.6386 261.24 71.6327 261.24 71.5978C261.24 71.5134 261.261 71.432 261.272 71.3505C261.302 71.0427 261.348 70.7368 261.409 70.4338C261.671 69.2698 262.378 68.263 262.881 67.1746C262.953 67.0204 263.02 66.8603 263.081 66.7003C263.143 66.5402 263.204 66.3511 263.253 66.1736L263.297 66.0106C263.329 65.8826 263.358 65.7516 263.384 65.6207C263.384 65.5625 263.407 65.5043 263.416 65.4461C263.445 65.2656 263.471 65.0852 263.486 64.9019C263.58 63.8626 263.431 62.8157 263.052 61.8435C262.724 61.0286 262.238 60.2953 261.906 59.4805C261.403 58.2467 261.272 56.8615 260.659 55.6742C259.632 53.7012 257.212 52.7147 255.223 53.4568C254.272 53.8089 253.449 54.4957 252.486 54.8041C251.195 55.2144 249.816 54.906 248.482 54.7197C247.147 54.5335 245.669 54.5189 244.596 55.3919C243.36 56.3959 243.02 58.2845 241.859 59.3874C241.374 59.8501 240.766 60.1469 240.251 60.5747C239.89 60.8645 239.612 61.2451 239.445 61.6776C239.445 61.7096 239.425 61.7387 239.416 61.7707C239.407 61.8027 239.396 61.8435 239.387 61.8813C239.378 61.9191 239.37 61.9686 239.364 62.0122C239.358 62.0559 239.364 62.0733 239.364 62.1024C239.358 62.1799 239.358 62.2578 239.364 62.3352C239.372 62.4087 239.385 62.4815 239.402 62.5535C239.402 62.5739 239.402 62.5942 239.402 62.6146C239.402 62.635 239.437 62.7339 239.457 62.795C239.456 62.8066 239.456 62.8183 239.457 62.8299C239.48 62.8969 239.506 62.9609 239.533 63.0278L239.576 63.1268L239.611 63.2083C239.782 63.5284 239.917 63.866 240.015 64.2151C240.07 64.436 240.056 64.6682 239.978 64.8815C239.859 65.123 239.694 65.3386 239.492 65.5159C238.623 66.42 237.953 67.4953 237.523 68.6733C237.473 68.8071 237.424 68.941 237.38 69.0807L237.441 69.0952C237.566 69.1333 237.693 69.1615 237.822 69.1796C237.895 69.1796 237.968 69.1971 238.043 69.2029C238.342 69.2186 238.641 69.1952 238.933 69.133C239.006 69.1185 239.082 69.101 239.154 69.0807C239.454 68.9979 239.746 68.8898 240.027 68.7577C240.027 68.845 240.027 68.9352 240.027 69.0225C240.027 69.1098 240.027 69.1214 240.027 69.1709C240.03 71.0895 240.567 72.9694 241.579 74.5993C242.591 76.2293 244.036 77.545 245.754 78.3985C245.754 78.4917 245.78 78.5877 245.791 78.6895C245.803 78.7914 245.812 78.8467 245.82 78.9253L245.704 78.8118C245.704 78.8118 244.916 78.4218 244.174 79.548C243.433 80.6742 242.037 81.198 242.037 81.198C242.037 81.198 234.091 82.4551 233.786 83.4969L230.075 83.7122C230.075 83.7122 228.763 83.8868 228.62 86.6222C228.478 89.3577 227.792 89.6167 227.792 89.6167C227.792 89.6167 226.265 92.3055 226.396 93.6907C226.526 95.0759 225.232 95.7743 225.232 95.7743L225.058 98.2449C225.058 98.2449 223.603 98.0295 223.222 99.7202C222.841 101.411 222.132 102.194 222.132 102.194C222.132 102.194 219.73 104.19 219.599 105.881L218.115 106.792C218.115 106.792 214.666 106.012 213.881 104.624L213.639 104.397C213.632 104.386 213.625 104.374 213.619 104.362C213.619 104.368 213.619 104.373 213.619 104.379C213.101 103.89 212.008 102.872 212.165 103.105C212.267 103.323 212.291 103.569 212.235 103.803L211.979 103.512L211.292 102.75C211.292 102.75 205.717 97.5115 202.442 97.11C202.399 97.0256 202.189 96.202 201.631 96.7171C201.167 97.1413 200.796 97.6571 200.541 98.2318C200.287 98.8066 200.153 99.4279 200.15 100.057C200.147 100.685 200.275 101.308 200.524 101.885C200.773 102.462 201.139 102.981 201.599 103.41L206.819 108.29L206.953 108.389L208.076 109.844C207.887 110.298 207.727 110.738 207.596 111.139C207.596 111.139 207.596 111.165 207.581 111.177C207.555 111.264 207.526 111.346 207.5 111.427L207.474 111.515C207.451 111.596 207.424 111.678 207.401 111.753C207.378 111.829 207.375 111.849 207.36 111.896C207.346 111.942 207.36 111.951 207.337 111.977C207.215 112.414 207.134 112.748 207.093 112.935L206.802 112.844L207.093 112.967C207.093 112.981 207.093 112.999 207.093 113.013L207.075 113.103L207.343 113.22C208.873 113.886 216.507 117.236 216.9 117.745C217.336 118.307 220.215 119.956 222.836 118.568C225.456 117.18 226.035 115.053 226.035 115.053C226.035 115.053 228.565 111.541 228.652 111.02C228.74 110.499 230.706 109.891 230.706 109.891C230.706 109.891 230.88 115.711 229.877 117.829C228.873 119.948 226.995 129.37 226.995 129.37C227.117 129.346 227.242 129.338 227.367 129.347C227.297 129.688 227.256 129.891 227.256 129.891C227.409 129.864 227.566 129.864 227.719 129.891C227.579 130.962 226.777 135.933 226.777 135.933C226.777 135.933 226.515 138.188 226.078 138.968C225.642 139.748 225.599 143.827 225.599 143.827L224.901 146.775C224.98 146.949 225.069 147.119 225.165 147.284C225.165 147.284 225.916 148.949 227.175 149.883C227.117 150.347 226.999 150.801 226.823 151.233C226.55 151.891 226.43 152.603 226.474 153.314C226.474 153.314 225.732 156.655 225.82 157.609C225.907 158.564 225.34 160.906 225.34 160.906L224.528 168.432C224.528 168.432 224.005 174.982 224.267 176.763C224.528 178.544 224.089 180.968 224.089 180.968C224.089 180.968 224.613 186.13 224.482 186.695C224.351 187.259 223.697 189.686 224.089 191.034C224.482 192.381 224.267 196.065 224.267 196.065C224.267 196.065 224.528 200.922 224.831 202.485C225.133 204.047 224.744 206.044 224.744 206.044C224.744 206.044 224.453 209.381 224.307 209.381C224.162 209.381 223.042 211.68 225.354 213.938C227.666 216.197 226.227 215.844 226.227 215.844C226.227 215.844 224.395 214.934 224.61 216.799C224.819 218.574 225.107 218.111 225.133 218.062L224.697 219.488L224.988 219.531L224.735 219.822C224.473 220.154 224.181 220.46 223.862 220.736C223.336 221.126 223.281 221.993 223.281 221.993C223.281 221.993 220.052 225.509 217.039 227.287C215.454 228.224 214.087 229.015 213.491 229.67C212.953 230.252 213.04 230.735 214.157 231.105C216.516 231.885 220.66 232.269 223.63 231.279C225.4 230.687 226.991 229.657 228.257 228.285C228.257 228.285 230.136 227.33 231.971 227.677C233.806 228.023 237.471 225.64 237.471 225.64L237.404 225.023L237.209 223.25C237.085 223.101 236.995 222.928 236.942 222.741C236.89 222.555 236.876 222.36 236.903 222.168C236.925 221.643 236.873 221.118 236.749 220.608C236.72 220.437 236.685 220.265 236.653 220.105L236.988 220.044C236.988 220.044 236.554 217.829 237.34 217.396C238.125 216.962 237.904 211.285 237.904 211.285C237.904 211.285 236.903 209.984 236.377 209.768C235.851 209.553 236.333 206.858 236.424 206.512C236.514 206.166 237.209 199.441 237.209 199.441C237.209 199.441 236.947 197.316 237.296 196.406C237.645 195.495 236.877 192.003 236.877 192.003C236.877 192.003 236.615 191.569 237.098 191.048C237.581 190.527 237.389 185.886 237.389 185.886C237.389 185.886 237.348 183.543 237.348 182.935C237.348 182.327 237.872 180.115 238.352 179.379C238.832 178.643 238.526 176.341 238.526 176.341L238.552 176.169C238.552 176.102 238.576 176.021 238.593 175.922L238.631 175.692C238.844 174.414 239.132 173.15 239.495 171.906C240.076 170.084 240.716 166.875 240.716 166.875L244.788 156.282L244.834 156.157C244.834 156.157 246.71 159.629 246.71 162.85C246.71 162.85 247.19 166.712 247.059 167.754C246.928 168.795 247.446 173.67 247.446 173.67C247.446 173.67 248.013 180.697 248.013 181.003C248.013 181.308 248.711 186.73 249.15 187.553C249.59 188.377 248.711 190.894 248.45 191.153C248.188 191.412 248.537 197.791 248.537 197.791C248.537 197.791 247.882 202.822 247.752 203.864C247.621 204.906 247.097 208.898 247.533 210.458C247.97 212.018 247.795 212.236 247.795 212.236C247.795 212.236 249.369 213.842 248.45 213.982C248.115 214.055 247.801 214.198 247.527 214.403C247.252 214.607 247.025 214.868 246.86 215.168C246.695 215.467 246.595 215.799 246.569 216.14C246.542 216.481 246.588 216.824 246.705 217.145C247.248 218.736 247.89 220.291 248.627 221.801C248.627 221.801 248.897 221.74 249.348 221.65V222.165L249.401 224.749C249.401 224.749 249.691 227.223 249.531 227.787C249.403 228.2 249.241 230.144 249.145 231.16C249.113 231.529 249.095 231.777 249.095 231.777C249.095 231.777 249.095 234.076 253.941 233.383C258.786 232.691 259.658 230.782 259.658 230.782C259.658 230.782 259.658 230.691 259.693 230.543C259.766 230.104 259.923 229.172 260.051 228.654C260.225 227.959 258.655 224.836 258.655 224.836C258.655 224.836 258.393 222.712 257.954 222.235C257.774 221.96 257.655 221.649 257.605 221.324C257.564 221.149 257.529 220.966 257.5 220.789C257.609 220.802 257.717 220.822 257.823 220.847C257.823 220.847 257.561 219.328 258.568 218.851C259.574 218.373 259.309 217.378 259.178 216.942C259.048 216.505 259.571 214.078 259.571 214.078C259.501 213.837 259.496 213.582 259.557 213.338C259.619 213.095 259.744 212.872 259.92 212.693C260.534 212.082 261.011 207.833 261.011 207.833L261.098 191.435C261.098 191.435 261.406 188.525 261.057 187.361C260.708 186.197 260.356 183.936 260.836 183.328C261.316 182.72 260.88 179.903 260.88 179.903C260.88 179.903 260.88 173.958 261.537 172.485C262.194 171.013 261.973 161.683 261.973 161.683L262.145 155.572C262.145 155.572 263.573 154.222 263.236 147.183C264.757 147.087 266.473 147.031 266.726 147.241C267.206 147.634 270.306 149.627 272.138 148.37C272.531 148.195 274.319 146.679 274.319 146.679L273.552 133.671C274.031 134.396 274.322 134.879 274.322 134.879C274.322 133.057 279.473 127.156 279.473 127.156C279.473 127.156 284.275 120.955 285.322 120.215C286.369 119.476 288.422 115.574 288.422 115.574C288.725 114.83 289.076 114.106 289.472 113.406C289.969 112.606 288.396 110.522 288.57 110.045ZM277.303 114.596C275.995 114.727 273.232 117.722 273.2 118.379C273.179 118.723 272.888 119.182 272.618 119.543C272.598 119.281 272.574 119.014 272.554 118.743C272.246 114.911 271.911 110.24 272.062 109.786C272.327 109.006 272.237 105.494 272.237 105.494L272.283 105.427C273.156 108.148 275.899 111.357 275.899 111.357C275.899 111.357 276.378 112.745 276.946 112.789C277.513 112.833 277.303 114.596 277.303 114.596Z" fill="url(#paint0_linear)"/>
<path d="M207.311 113.61C207.311 113.61 208.901 105.258 214.023 105.214L217.766 112.92L215.271 114.643C215.271 114.643 209.85 114.815 207.311 113.61Z" fill="#65617D"/>
<path opacity="0.1" d="M217.766 112.92L215.271 114.643C215.271 114.643 211.455 114.765 208.727 114.093C208.24 113.977 207.766 113.816 207.311 113.61C207.311 113.61 207.311 113.563 207.34 113.476C207.34 113.476 207.34 113.456 207.34 113.444C207.575 112.396 207.899 111.37 208.308 110.377C208.468 110.001 208.645 109.614 208.837 109.227C209.588 107.772 210.641 106.37 212.083 105.668C212.616 105.406 213.197 105.255 213.79 105.223H213.942H214.017L214.099 105.395L215.364 107.996L217.766 112.92Z" fill="black"/>
<path d="M260.273 147.619C260.273 147.619 265.654 147.104 266.125 147.491C266.596 147.878 269.653 149.857 271.462 148.609C273.27 147.36 272.064 143.013 272.064 142.841C272.064 142.669 271.892 136.512 271.892 136.512L268.664 132.164L264.621 124.546L256.361 123.725L256.577 135.825L256.533 142.023L260.273 147.619Z" fill="#65617D"/>
<path opacity="0.1" d="M260.273 147.619C260.273 147.619 265.654 147.104 266.125 147.491C266.596 147.878 269.653 149.857 271.462 148.609C273.27 147.36 272.064 143.013 272.064 142.841C272.064 142.669 271.892 136.512 271.892 136.512L268.664 132.164L264.621 124.546L256.361 123.725L256.577 135.825L256.533 142.023L260.273 147.619Z" fill="black"/>
<path d="M212.947 104.993C212.947 104.993 212.517 110.246 209.248 110.33C209.248 110.33 208.32 109.772 207.072 108.84C204.199 106.69 199.641 102.555 200.901 98.7078C202.707 93.1991 211.484 103.364 211.484 103.364L212.156 104.12L212.947 104.993Z" fill="#FBBEBE"/>
<path opacity="0.1" d="M212.946 104.994C212.946 104.994 212.516 110.246 209.247 110.331C209.247 110.331 208.319 109.772 207.071 108.841L206.795 108.483C207.35 108.772 207.961 108.937 208.586 108.966C209.078 108.985 209.564 108.855 209.98 108.591C210.395 108.328 210.721 107.944 210.913 107.49C211.257 106.815 211.559 106.119 211.818 105.407C211.977 104.992 212.09 104.56 212.155 104.121L212.946 104.994Z" fill="black"/>
<path d="M211.529 114.515L210.793 113.566L208.315 110.365L207.053 108.733C207.607 109.024 208.219 109.189 208.844 109.216C209.667 109.236 210.589 108.925 211.171 107.743C211.514 107.067 211.816 106.37 212.075 105.657C212.483 104.493 212.477 103.911 212.331 103.698C212.186 103.486 213.245 104.478 213.754 104.961L213.771 104.979L214.01 105.203L214.097 105.377L215.344 107.871C215.344 107.871 215.344 107.906 215.344 107.976C215.467 108.776 215.888 113.802 211.529 114.515Z" fill="#E7EFFD"/>
<path d="M237.301 225.326C237.301 225.326 233.686 227.694 231.88 227.363C230.074 227.031 228.222 227.968 228.222 227.968C226.976 229.329 225.406 230.351 223.658 230.939C220.75 231.929 216.649 231.539 214.325 230.765C213.226 230.398 213.136 229.926 213.665 229.342C214.247 228.69 215.602 227.907 217.155 226.976C220.125 225.212 223.306 221.738 223.306 221.738C223.306 221.738 223.35 220.865 223.868 220.492C224.186 220.218 224.479 219.914 224.74 219.584C225.203 219.037 225.636 218.467 225.636 218.467L236.269 218.775C236.269 218.775 236.449 219.541 236.592 220.323C236.713 220.831 236.763 221.353 236.74 221.874C236.713 222.064 236.725 222.257 236.775 222.441C236.825 222.626 236.912 222.799 237.031 222.948L237.223 224.694L237.301 225.326Z" fill="#65617D"/>
<path d="M259.545 228.297C259.417 228.812 259.254 229.734 259.193 230.168L259.155 230.407C259.155 230.407 258.283 232.301 253.522 232.991C248.761 233.68 248.746 231.396 248.746 231.396C248.746 231.396 248.764 231.152 248.793 230.782C248.877 229.775 249.049 227.846 249.177 227.435C249.345 226.877 249.046 224.421 249.046 224.421L248.996 221.857L248.958 220.076L256.878 219.255C256.927 219.848 257.012 220.437 257.134 221.019C257.182 221.342 257.3 221.651 257.48 221.924C257.91 222.398 258.166 224.508 258.166 224.508C258.166 224.508 259.716 227.607 259.545 228.297Z" fill="#65617D"/>
<path opacity="0.1" d="M236.269 218.775C236.269 218.775 236.449 219.54 236.591 220.323C235.443 220.536 230.423 221.406 229.169 220.797C227.747 220.108 224.693 219.721 224.693 219.721L224.743 219.546C225.205 218.999 225.639 218.429 225.639 218.429L236.269 218.775Z" fill="black"/>
<path opacity="0.1" d="M257.132 221.019C255.126 220.678 250.734 221.502 248.989 221.857L248.951 220.076L256.871 219.255C256.921 219.848 257.009 220.437 257.132 221.019Z" fill="black"/>
<path d="M261.598 155.756L261.426 161.826C261.426 161.826 261.641 171.083 260.996 172.547C260.35 174.01 260.35 179.909 260.35 179.909C260.35 179.909 260.78 182.705 260.306 183.308C259.832 183.91 260.178 186.148 260.522 187.312C260.865 188.476 260.565 191.36 260.565 191.36L260.478 207.633C260.478 207.633 260.007 211.849 259.402 212.455C259.228 212.633 259.105 212.855 259.045 213.097C258.985 213.338 258.989 213.592 259.059 213.831C259.059 213.831 258.544 216.241 258.672 216.674C258.8 217.108 259.059 218.094 258.07 218.566C257.081 219.037 257.337 220.547 257.337 220.547C254.972 219.986 248.26 221.496 248.26 221.496C247.535 220 246.902 218.461 246.367 216.887C246.251 216.568 246.205 216.228 246.231 215.89C246.256 215.552 246.354 215.224 246.517 214.927C246.68 214.63 246.905 214.371 247.175 214.167C247.446 213.964 247.758 213.82 248.088 213.747C248.99 213.616 247.443 212.024 247.443 212.024C247.443 212.024 247.614 211.809 247.184 210.26C246.753 208.712 247.268 204.731 247.399 203.713C247.53 202.694 248.173 197.686 248.173 197.686C248.173 197.686 247.829 191.36 248.088 191.101C248.347 190.842 249.205 188.345 248.778 187.527C248.35 186.71 247.655 181.329 247.655 181.026C247.655 180.724 247.099 173.751 247.099 173.751C247.099 173.751 246.582 168.886 246.713 167.853C246.844 166.82 246.367 162.99 246.367 162.99C246.367 159.789 244.517 156.358 244.517 156.358L244.47 156.483L240.483 166.994C240.483 166.994 239.837 170.178 239.279 171.985C238.926 173.214 238.645 174.462 238.438 175.724L238.401 175.954C238.401 176.05 238.371 176.132 238.363 176.196L238.337 176.37C238.337 176.37 238.627 178.652 238.162 179.385C237.697 180.118 237.173 182.313 237.173 182.915C237.173 183.517 237.217 185.842 237.217 185.842C237.217 185.842 237.388 190.449 236.926 190.967C236.464 191.485 236.708 191.913 236.708 191.913C236.708 191.913 237.482 195.405 237.138 196.304C236.795 197.203 237.054 199.316 237.054 199.316C237.054 199.316 236.365 205.991 236.28 206.335C236.196 206.678 235.719 209.35 236.237 209.565C236.754 209.78 237.74 211.069 237.74 211.069C237.74 211.069 237.958 216.712 237.182 217.14C236.405 217.567 236.836 219.759 236.836 219.759C236.836 219.759 230.6 220.963 229.181 220.274C227.762 219.584 224.705 219.197 224.705 219.197L225.133 217.783C225.106 217.832 224.821 218.292 224.618 216.529C224.406 214.678 226.212 215.58 226.212 215.58C226.212 215.58 227.631 215.926 225.339 213.688C223.047 211.451 224.176 209.166 224.307 209.166C224.438 209.166 224.74 205.855 224.74 205.855C224.74 205.855 225.127 203.873 224.824 202.322C224.522 200.771 224.266 195.949 224.266 195.949C224.266 195.949 224.481 192.291 224.094 190.958C223.708 189.625 224.35 187.21 224.481 186.651C224.612 186.093 224.08 180.983 224.08 180.983C224.08 180.983 224.51 178.573 224.251 176.81C223.993 175.046 224.51 168.542 224.51 168.542L225.284 161.052C225.284 161.052 225.842 158.724 225.758 157.778C225.674 156.832 226.407 153.518 226.407 153.518C226.363 152.812 226.48 152.106 226.75 151.452C227.18 150.579 227.352 147.75 227.352 147.75L231.484 138.278L233.52 129.926L260.839 129.667C260.839 129.667 260.94 130.392 261.106 131.704C261.272 133.017 261.505 134.967 261.763 137.373C262.002 139.559 262.264 142.128 262.517 144.989C263.343 154.12 261.598 155.756 261.598 155.756Z" fill="#3F3D56"/>
<path d="M259.071 80.3747L252.702 87.1783C252.702 87.1783 244.529 83.9045 245.39 82.7871C245.722 82.3535 245.681 80.9858 245.477 79.4784C245.187 77.0922 244.529 74.348 244.529 74.348C244.529 74.348 258.812 72.02 257.617 74.4324C257.178 75.3054 257.253 76.3414 257.527 77.2929C257.873 78.3965 258.394 79.4371 259.071 80.3747Z" fill="#FBBEBE"/>
<path opacity="0.1" d="M257.608 74.4384C257.169 75.3114 256.96 75.4045 257.233 76.3561C255.366 78.3553 252.99 80.5494 250.035 80.5494C248.453 80.5518 246.893 80.1862 245.477 79.4814C245.187 77.0952 244.529 74.3511 244.529 74.3511C244.529 74.3511 258.812 72.0231 257.608 74.4384Z" fill="black"/>
<path d="M260.278 70.0414C260.233 72.7293 259.134 75.2918 257.218 77.1767C255.303 79.0615 252.723 80.1177 250.037 80.1177C247.35 80.1177 244.771 79.0615 242.855 77.1767C240.939 75.2918 239.84 72.7293 239.795 70.0414C239.795 69.9919 239.795 69.9424 239.795 69.8959C239.814 67.1784 240.912 64.5799 242.846 62.672C243.803 61.7273 244.938 60.9806 246.184 60.4745C247.43 59.9684 248.763 59.7129 250.108 59.7224C251.453 59.732 252.782 60.0065 254.021 60.5302C255.26 61.054 256.383 61.8167 257.328 62.7749C258.272 63.7331 259.018 64.868 259.524 66.1148C260.03 67.3616 260.285 68.6958 260.276 70.0414H260.278Z" fill="#FBBEBE"/>
<path opacity="0.1" d="M261.758 137.638C260.403 137.638 255.886 137.687 250.837 137.766H250.776L249.11 137.795H249.057C243.072 137.891 237.171 136.721 234.806 136.942C229.775 137.414 236.615 132.286 236.615 132.286C240.367 133.199 244.225 133.59 248.083 133.45L249.537 133.375C254.109 133.116 258.707 132.685 261.11 131.963C261.269 133.296 261.499 135.231 261.758 137.638Z" fill="black"/>
<path d="M261.758 137.379C260.403 137.379 255.886 137.428 250.837 137.507H250.776L249.11 137.536H249.057C243.072 137.632 237.171 136.462 234.806 136.683C229.775 137.157 236.615 132.027 236.615 132.027C240.367 132.939 244.225 133.331 248.083 133.191L249.537 133.115C254.109 132.856 258.707 132.426 261.11 131.707C261.269 133.04 261.499 134.966 261.758 137.379Z" fill="#5F5D7E"/>
<path opacity="0.1" d="M247.282 83.2151L239.365 86.9196L233.258 134.187C233.258 134.187 236.87 132.552 238.938 133.585C241.006 134.618 247.372 133.672 247.372 133.672C247.372 133.672 252.025 133.413 252.709 133.931C253.392 134.449 261.481 131.766 261.481 131.766C261.481 131.766 262.935 128.495 261.824 127.983C260.713 127.471 262.179 122.393 262.179 122.393L261.481 88.296L260.102 83.9048L256.403 81.667L252.622 84.6789L250.816 84.9378L247.282 83.2151Z" fill="black"/>
<path d="M247.282 82.6995L239.365 86.401L233.258 133.671C233.258 133.671 236.87 132.036 238.938 133.069C241.006 134.102 247.372 133.153 247.372 133.153C247.372 133.153 252.025 132.897 252.709 133.412C253.392 133.927 261.486 131.259 261.486 131.259C261.486 131.259 262.94 127.988 261.829 127.476C260.718 126.964 262.178 121.871 262.178 121.871L261.48 87.7775L260.102 83.3892L256.402 81.1484L252.622 84.1632L250.816 84.4222L247.282 82.6995Z" fill="#E7EFFD"/>
<path opacity="0.1" d="M247.151 84.8941C247.151 84.8941 249.431 87.6063 249.391 88.1679C249.35 88.7295 249.26 90.0623 249.26 90.0623L247.538 93.5544C247.538 93.5544 246.593 97.9019 246.593 98.8069C246.593 99.712 245.086 107.537 245.086 107.537L243.274 119.593L240.994 135.395L243.321 139.396L246.072 137.068L249.731 108.911L250.504 103.358C250.504 103.358 251.322 93.371 251.322 92.338C251.322 91.3049 250.851 88.5928 250.851 88.5928C250.851 88.5928 251.409 86.0087 253.733 85.3918C256.057 84.7748 253.561 85.2608 253.561 85.2608L252.226 84.187L251.063 84.6584C251.063 84.6584 247.84 83.6894 247.151 84.8941Z" fill="black"/>
<path d="M246.893 84.6379C246.893 84.6379 249.176 87.3501 249.133 87.9088C249.089 88.4675 249.002 89.8032 249.002 89.8032L247.283 93.2952C247.283 93.2952 246.335 97.6428 246.335 98.5478C246.335 99.4528 244.828 107.278 244.828 107.278L243.022 119.331L240.742 135.133L243.069 139.137L245.823 136.809L249.479 108.654L250.255 103.105C250.255 103.105 251.073 93.1177 251.073 92.0847C251.073 91.0516 250.602 88.3395 250.602 88.3395C250.602 88.3395 251.16 85.7554 253.484 85.153C255.808 84.5506 253.312 85.025 253.312 85.025L251.977 83.9482L250.814 84.4226C250.814 84.4226 247.583 83.4303 246.893 84.6379Z" fill="#6C63FF"/>
<path opacity="0.1" d="M245.39 80.1157C245.39 80.1157 245.044 80.3747 244.959 82.0974C244.875 83.8202 243.668 87.6934 243.668 87.6934C243.668 87.6934 248.144 84.5942 250.38 84.9376L245.39 80.1157Z" fill="black"/>
<path d="M245.39 79.6006C245.39 79.6006 245.044 79.8567 244.959 81.5794C244.875 83.3021 243.668 87.1754 243.668 87.1754C243.668 87.1754 248.144 84.0762 250.38 84.4225L245.39 79.6006Z" fill="#E7EFFD"/>
<path opacity="0.1" d="M257.606 78.7393L250.545 84.9376C250.545 84.9376 256.484 88.4675 257.257 89.3288C258.031 90.1902 258.805 80.8898 258.805 80.8898L257.606 78.7393Z" fill="black"/>
<path d="M257.866 78.2212L250.811 84.4224C250.811 84.4224 256.747 87.9523 257.526 88.8137C258.305 89.675 259.073 80.3746 259.073 80.3746L257.866 78.2212Z" fill="#E7EFFD"/>
<path opacity="0.1" d="M245.645 80.1154C245.645 80.1154 244.872 79.7284 244.142 80.8487C243.604 81.579 242.874 82.1453 242.033 82.4842C242.033 82.4842 234.201 83.7325 233.89 84.7656L230.231 84.981C230.231 84.981 228.94 85.1526 228.812 87.8648C228.684 90.5769 227.995 90.8359 227.995 90.8359C227.995 90.8359 226.488 93.5044 226.619 94.8808C226.75 96.2573 225.456 96.9499 225.456 96.9499L230.833 110.941C230.833 110.941 231.008 116.709 230.016 118.819C229.024 120.928 227.177 130.27 227.177 130.27C227.177 130.27 227.951 130.098 227.907 130.613C227.864 131.128 226.988 136.771 226.988 136.771C226.988 136.771 226.73 139.008 226.299 139.785C225.869 140.562 225.825 144.604 225.825 144.604L225.139 147.532C225.139 147.532 226.773 151.193 229.269 150.675C231.764 150.157 236.281 140.388 236.281 140.388L239.166 129.839L241.402 119.421L242.048 112.361L243.08 96.7345L244.587 86.401C244.587 86.401 246.25 80.84 245.645 80.1154Z" fill="black"/>
<path d="M245.389 79.6005C245.389 79.6005 244.613 79.2134 243.883 80.3309C243.346 81.0622 242.616 81.6286 241.774 81.9663C241.774 81.9663 233.945 83.2147 233.631 84.2478L229.972 84.4631C229.972 84.4631 228.684 84.6377 228.553 87.3498C228.422 90.062 227.736 90.3181 227.736 90.3181C227.736 90.3181 226.229 92.9895 226.36 94.3659C226.491 95.7423 225.197 96.432 225.197 96.432L230.577 110.423C230.577 110.423 230.749 116.191 229.76 118.301C228.771 120.411 226.918 129.755 226.918 129.755C226.918 129.755 227.692 129.58 227.651 130.098C227.611 130.616 226.703 136.253 226.703 136.253C226.703 136.253 226.444 138.493 226.014 139.267C225.584 140.042 225.543 144.089 225.543 144.089L224.854 147.017C224.854 147.017 226.488 150.675 228.983 150.16C231.479 149.645 236.004 139.87 236.004 139.87L238.886 129.324L241.123 118.906L241.769 111.843L242.801 96.2167L244.308 85.8861C244.308 85.8861 245.991 80.3309 245.389 79.6005Z" fill="#65617D"/>
<path opacity="0.1" d="M217.766 112.92L215.271 114.643C215.271 114.643 211.455 114.765 208.727 114.093L207.34 113.476L207.049 113.354L207.34 113.444C208.779 113.872 209.905 113.863 210.786 113.566C214.317 112.376 213.927 106.542 213.79 105.223C213.79 105.089 213.767 105.005 213.761 104.973C213.761 104.967 213.761 104.961 213.761 104.956L213.782 104.99C213.83 105.07 213.885 105.146 213.945 105.217C213.994 105.273 214.046 105.331 214.102 105.386L215.349 107.88C215.349 107.88 215.349 107.915 215.349 107.985L217.766 112.92Z" fill="black"/>
<path d="M226.407 96.0889L225.2 96.4322L225.028 98.8854C225.028 98.8854 223.609 98.6701 223.222 100.34C222.835 102.011 222.146 102.796 222.146 102.796C222.146 102.796 219.779 104.775 219.651 106.454L218.197 107.359C218.197 107.359 214.797 106.582 214.023 105.206C214.023 105.206 215.573 116.313 207.311 113.601C207.311 113.601 216.562 117.646 216.992 118.208C217.423 118.77 220.261 120.402 222.844 119.026C225.427 117.649 225.985 115.534 225.985 115.534C225.985 115.534 228.48 112.042 228.565 111.529C228.649 111.017 230.601 110.409 230.601 110.409L234.3 101.455L226.407 96.0889Z" fill="#65617D"/>
<path opacity="0.1" d="M256.619 83.9045L257.866 78.2212C257.866 78.2212 258.425 80.072 258.986 80.5026L260.836 81.9256C260.836 81.9256 262.685 82.7841 263.331 82.7841C263.977 82.7841 267.461 83.6891 267.891 84.1635C268.322 84.6378 270.044 84.2915 270.044 84.2915C270.044 84.2915 271.463 84.7658 272.711 85.0656C273.958 85.3653 274.56 87.4343 274.301 88.2666C274.196 88.6739 274.197 89.1012 274.302 89.5084C274.407 89.9156 274.614 90.2894 274.903 90.5946C275.421 91.1126 275.68 92.7917 275.68 92.7917C276.31 92.9998 276.833 93.4485 277.134 94.04C277.565 94.9858 277.425 97.0519 277.425 97.0519L271.027 106.093C271.027 106.093 271.111 109.585 270.855 110.357C270.599 111.128 271.757 124.304 271.757 124.304L273.092 146.947C273.092 146.947 271.326 148.454 270.939 148.626C270.553 148.798 270.166 140.621 270.166 140.318C270.166 140.015 260.228 125.422 260.228 125.422C260.228 125.422 258.893 123.271 258.893 122.803C258.893 122.334 257.645 117.981 257.645 117.981L255.752 109.585L256.619 83.9045Z" fill="black"/>
<path d="M277.975 96.5543C277.975 96.8453 277.975 97.049 277.975 97.049L271.576 106.07C271.576 106.07 271.664 109.562 271.408 110.33C271.257 110.781 271.585 115.414 271.891 119.22C272.106 121.965 272.309 124.278 272.309 124.278L272.877 133.881L273.641 146.918C273.641 146.918 271.879 148.425 271.492 148.597C271.105 148.769 270.719 140.592 270.719 140.289C270.719 139.986 260.778 125.395 260.778 125.395C260.778 125.395 259.443 123.239 259.443 122.776C259.443 122.314 258.195 117.955 258.195 117.955L256.305 109.559L257.163 83.9015L257.866 78.2212C257.866 78.2212 258.943 80.0749 259.501 80.5026L261.351 81.9227C261.351 81.9227 263.2 82.7957 263.846 82.7957C264.492 82.7957 267.979 83.6978 268.409 84.1722C268.84 84.6465 270.559 84.3002 270.559 84.3002C270.559 84.3002 271.978 84.7745 273.226 85.0743C274.473 85.374 275.078 87.443 274.819 88.2753C274.714 88.6826 274.714 89.11 274.819 89.5173C274.924 89.9246 275.132 90.2984 275.421 90.6033C275.936 91.1184 276.195 92.7975 276.195 92.7975C276.825 93.0075 277.347 93.4569 277.649 94.0488C277.957 94.6744 277.987 95.8704 277.975 96.5543Z" fill="#65617D"/>
<path opacity="0.1" d="M225.383 211.25C225.595 211.25 234.631 211.593 234.46 213.057C234.288 214.521 225.383 211.25 225.383 211.25Z" fill="black"/>
<path opacity="0.1" d="M227.404 213.703C227.404 213.703 233.471 214.693 231.877 215.598C230.284 216.503 227.404 213.703 227.404 213.703Z" fill="black"/>
<path opacity="0.1" d="M249.965 210.301C249.965 210.301 260.034 211.174 258.527 212.283C257.021 213.392 253.449 213.572 253.292 213.616C253.135 213.659 249.965 210.301 249.965 210.301Z" fill="black"/>
<path opacity="0.1" d="M248.746 214.736C248.746 214.736 254.339 215.682 254.51 216.773C254.682 217.864 248.746 214.736 248.746 214.736Z" fill="black"/>
<path opacity="0.1" d="M251.844 188.819C251.844 188.819 256.962 190.024 257.265 190.856L251.844 188.819Z" fill="black"/>
<path opacity="0.1" d="M232.094 192.521C232.094 192.521 229.427 193.295 232.009 194.849C234.592 196.403 232.094 192.521 232.094 192.521Z" fill="black"/>
<path opacity="0.1" d="M243.926 151.149C244.217 151.149 248.917 149.601 250.551 150.276C251.721 150.716 252.957 150.951 254.207 150.971L243.926 151.149Z" fill="black"/>
<path opacity="0.1" d="M244.528 156.056L244.481 156.484L240.482 166.995C240.482 166.995 239.836 170.178 239.278 171.985C238.925 173.214 238.644 174.463 238.438 175.725L241.989 153.69L244.528 156.056Z" fill="black"/>
<path d="M250.774 137.507L249.108 137.536H249.055L248.078 133.197L249.532 133.119L250.774 137.507Z" fill="#3F3D56"/>
<path d="M271.076 132.251L270.003 133.124L266.428 136.072C266.428 136.072 256.746 141.24 254.079 136.331C251.73 132.007 262.706 128.919 265.349 128.247C265.707 128.157 265.911 128.11 265.911 128.11L271.076 132.251Z" fill="#FBBEBE"/>
<path opacity="0.1" d="M229.729 89.9312C229.729 89.9312 231.622 90.8042 232.055 91.9973C232.489 93.1904 229.729 89.9312 229.729 89.9312Z" fill="black"/>
<path opacity="0.1" d="M223.877 102.846C223.877 102.846 221.123 106.204 222.242 107.502C223.362 108.8 223.877 102.846 223.877 102.846Z" fill="black"/>
<path opacity="0.1" d="M273.097 91.8257C273.097 91.8257 270.514 92.0847 270.43 94.3225L273.097 91.8257Z" fill="black"/>
<path opacity="0.1" d="M249.176 127.127C249.432 126.868 255.371 118.086 256.738 118.863L249.176 127.127Z" fill="black"/>
<path opacity="0.1" d="M260.278 70.0413C260.281 71.7291 259.864 73.3911 259.066 74.8778L258.99 74.8632C258.342 74.7265 258.004 73.9699 257.507 73.4984C257.202 73.2076 256.813 73.0197 256.396 72.9612C255.978 72.9027 255.553 72.9766 255.18 73.1725C254.804 73.3986 254.498 73.7249 254.297 74.115C254.095 74.505 254.007 74.9435 254.04 75.3812C253.711 74.0019 253.816 72.5381 253.496 71.1559C253.176 69.7736 252.214 68.3768 250.893 68.3535C250.312 68.3535 249.663 68.5601 249.25 68.1353C249.003 67.8792 248.959 67.4747 248.767 67.1604C247.825 65.6356 244.954 66.4067 243.782 67.1895C242.61 67.9723 241.252 69.2265 239.795 69.8958C239.814 67.1784 240.912 64.5799 242.846 62.672C243.803 61.7273 244.938 60.9806 246.184 60.4745C247.43 59.9684 248.763 59.7129 250.108 59.7224C251.453 59.732 252.782 60.0065 254.021 60.5302C255.26 61.054 256.384 61.8167 257.328 62.7749C258.272 63.7331 259.018 64.868 259.524 66.1148C260.03 67.3616 260.285 68.6958 260.276 70.0413H260.278Z" fill="black"/>
<path d="M248.77 66.9039C248.956 67.2153 249.005 67.6198 249.252 67.8759C249.663 68.3036 250.329 68.0825 250.896 68.0941C252.216 68.1174 253.179 69.5142 253.499 70.8965C253.819 72.2787 253.714 73.7425 254.043 75.1218C254.009 74.6837 254.098 74.2448 254.3 73.8546C254.502 73.4644 254.808 73.1383 255.185 72.9131C255.559 72.7172 255.984 72.6433 256.401 72.7018C256.819 72.7603 257.207 72.9481 257.512 73.239C258.009 73.7105 258.347 74.4671 258.995 74.6038C259.644 74.7406 260.269 74.1179 260.505 73.4398C260.74 72.7618 260.723 72.0052 260.877 71.2951C261.168 69.9536 262.04 68.8507 262.529 67.5732C263.105 66.0199 263.09 64.3085 262.485 62.7659C262.163 61.9569 261.683 61.2294 261.354 60.4233C260.86 59.1953 260.732 57.8043 260.127 56.6403C259.115 54.6818 256.73 53.7041 254.767 54.4403C253.833 54.7895 253.022 55.4705 252.071 55.776C250.8 56.1863 249.439 55.8779 248.124 55.6945C246.809 55.5112 245.352 55.4937 244.294 56.358C243.075 57.3562 242.744 59.2302 241.598 60.3244C241.118 60.7842 240.522 61.0781 240.016 61.4884C239.509 61.8987 239.07 62.5447 239.143 63.2344C239.219 64.1249 240.091 64.9338 239.768 65.7603C239.652 66 239.49 66.2145 239.291 66.3918C238.333 67.3967 237.621 68.6098 237.209 69.9362C239.509 70.6579 242.002 68.1174 243.805 66.9156C244.96 66.1502 247.827 65.3762 248.77 66.9039Z" fill="#7C5C5C"/>
<path opacity="0.1" d="M271.075 132.251L270.002 133.124C269.057 131.553 265.18 128.41 265.18 128.41L265.348 128.247C265.706 128.157 265.91 128.11 265.91 128.11L271.075 132.251Z" fill="black"/>
<path d="M272.108 130.657C272.108 130.657 271.721 131.617 271.326 132.444C270.93 133.27 270.494 134.027 270.474 133.413C270.43 132.208 265.439 128.16 265.439 128.16L266.117 127.503L266.899 126.74L272.108 130.657Z" fill="#E7EFFD"/>
<path opacity="0.1" d="M272.28 124.284L272.847 133.887C271.509 131.806 267.839 126.475 265.48 126.647L271.195 120.067C271.433 119.802 271.653 119.521 271.853 119.226C272.068 121.97 272.28 124.284 272.28 124.284Z" fill="black"/>
<path opacity="0.1" d="M272.108 130.657C272.108 130.657 271.722 131.617 271.326 132.444C269.825 130.386 267.763 127.957 266.117 127.497L266.9 126.734L272.108 130.657Z" fill="black"/>
<path d="M276.41 95.8301L277.96 97.0348C277.96 97.0348 280.54 97.0785 280.799 99.2319C281.057 101.385 283.416 102.375 283.416 102.375C283.416 102.375 285.179 104.138 285.179 104.956C285.179 105.774 286.514 107.237 286.514 107.368C286.514 107.499 287.805 110.124 287.63 110.596C287.456 111.067 289.009 113.136 288.535 113.91C288.146 114.606 287.801 115.325 287.502 116.063C287.502 116.063 285.481 119.94 284.449 120.67C283.416 121.4 278.681 127.558 278.681 127.558C278.681 127.558 273.606 133.413 273.606 135.22C273.606 135.22 268.662 126.956 265.73 127.171L271.454 120.583C271.454 120.583 272.443 119.509 272.487 118.863C272.53 118.217 275.241 115.246 276.532 115.118C276.532 115.118 276.744 113.351 276.186 113.308C275.628 113.264 275.154 111.888 275.154 111.888C275.154 111.888 271.373 107.412 271.323 104.569C271.274 101.726 276.41 95.8301 276.41 95.8301Z" fill="#65617D"/>
<path opacity="0.1" d="M278.691 99.9185C278.691 99.9185 275.079 102.59 275.853 103.448C276.626 104.307 278.691 99.9185 278.691 99.9185Z" fill="black"/>
<path opacity="0.1" d="M278.861 110.941C278.861 110.941 285.574 108.788 286.263 110.941H278.861Z" fill="black"/>
<path opacity="0.1" d="M237.301 225.326C237.301 225.326 233.686 227.694 231.88 227.363C230.074 227.031 228.222 227.968 228.222 227.968C226.976 229.329 225.406 230.351 223.658 230.939C220.75 231.928 216.649 231.538 214.325 230.764C213.226 230.398 213.136 229.926 213.665 229.341C216.193 229.845 221.838 230.849 223.359 230.118C225.336 229.17 228.178 227.104 228.178 227.104C228.178 227.104 231.88 226.589 232.395 226.589C232.762 226.589 235.62 225.407 237.235 224.732L237.301 225.326Z" fill="black"/>
<path opacity="0.1" d="M259.193 230.168L259.155 230.407C259.155 230.407 258.283 232.301 253.522 232.991C248.761 233.68 248.746 231.396 248.746 231.396C248.746 231.396 248.764 231.152 248.793 230.782C250.305 231.355 253.603 231.995 259.193 230.168Z" fill="black"/>
<path opacity="0.1" d="M231.513 99.4033C231.513 99.4033 231.513 109.219 230.673 110.188C229.832 111.157 231.513 99.4033 231.513 99.4033Z" fill="black"/>
<path opacity="0.1" d="M270.299 102.566L271.547 106.076C271.547 106.076 272.044 102.63 270.299 102.566Z" fill="black"/>
<g opacity="0.1">
<path opacity="0.1" d="M239.878 64.9369C240.192 64.128 239.366 63.3364 239.258 62.4692C239.149 62.7139 239.102 62.9819 239.122 63.2491C239.177 63.901 239.657 64.5092 239.785 65.1145C239.821 65.0581 239.852 64.9987 239.878 64.9369Z" fill="black"/>
<path opacity="0.1" d="M254.158 74.2084C253.849 72.8523 253.94 71.4148 253.626 70.0558C253.311 68.6968 252.343 67.2767 251.025 67.2535C250.444 67.2535 249.792 67.463 249.382 67.0381C249.132 66.782 249.091 66.3746 248.897 66.0633C247.954 64.5355 245.087 65.3096 243.912 66.0924C242.167 67.2564 239.735 69.7095 237.478 69.1566C237.371 69.4156 237.272 69.6804 237.188 69.951C239.488 70.6727 241.98 68.1323 243.784 66.9305C244.947 66.1506 247.826 65.3765 248.769 66.9043C248.955 67.2156 249.004 67.6201 249.251 67.8762C249.661 68.304 250.327 68.0828 250.895 68.0945C252.215 68.1177 253.178 69.5145 253.498 70.8968C253.817 72.2791 253.713 73.7428 254.041 75.1222C254.02 74.8129 254.06 74.5025 254.158 74.2084Z" fill="black"/>
<path opacity="0.1" d="M260.626 72.596C260.394 73.2769 259.78 73.9055 259.117 73.76C258.454 73.6145 258.131 72.8666 257.637 72.3922C257.33 72.1045 256.941 71.919 256.525 71.8611C256.108 71.8033 255.684 71.876 255.31 72.0692C254.951 72.2832 254.656 72.5891 254.455 72.9554C254.254 73.3217 254.155 73.7351 254.167 74.1528C254.341 73.6272 254.703 73.1839 255.182 72.9073C255.555 72.7114 255.98 72.6375 256.398 72.696C256.815 72.7545 257.204 72.9423 257.509 73.2332C258.006 73.7047 258.343 74.4613 258.992 74.598C259.641 74.7348 260.266 74.1121 260.501 73.434C260.624 73.0314 260.703 72.6168 260.737 72.1973C260.709 72.3324 260.672 72.4656 260.626 72.596Z" fill="black"/>
<path opacity="0.1" d="M262.65 66.7294C262.167 68.0069 261.289 69.1069 260.998 70.4514C260.94 70.722 260.905 70.9985 260.873 71.2778C261.164 69.9392 262.036 68.8421 262.522 67.5675C262.736 66.9942 262.871 66.3938 262.921 65.7837C262.854 66.1053 262.764 66.4215 262.65 66.7294Z" fill="black"/>
</g>
<path d="M200.474 97.9019C200.532 97.9019 200.579 97.855 200.579 97.7971C200.579 97.7393 200.532 97.6924 200.474 97.6924C200.416 97.6924 200.369 97.7393 200.369 97.7971C200.369 97.855 200.416 97.9019 200.474 97.9019Z" fill="#E6E8EC"/>
<path opacity="0.1" d="M237.624 233.119C251.493 233.119 262.735 231.971 262.735 230.555C262.735 229.139 251.493 227.991 237.624 227.991C223.756 227.991 212.514 229.139 212.514 230.555C212.514 231.971 223.756 233.119 237.624 233.119Z" fill="#6C63FF"/>
<path d="M145.287 62.3879L69.2305 111.759L118.864 201.33C119.096 201.748 119.412 202.115 119.793 202.405C120.173 202.696 120.61 202.904 121.075 203.017L166.047 213.994C166.817 214.18 167.628 214.097 168.345 213.758C169.062 213.418 169.64 212.843 169.985 212.129L192.292 165.758L216.739 133.058L158.723 64.3813C157.109 62.4711 154.854 61.215 152.381 60.8481C149.908 60.4812 147.386 61.0286 145.287 62.3879Z" fill="#DCDFED"/>
<path opacity="0.1" d="M217.514 133.445L217.298 133.736L202.978 152.893L202.719 153.239L193.066 166.151L173.987 205.817L173.452 206.926L170.759 212.522C170.414 213.237 169.835 213.813 169.117 214.153C168.399 214.492 167.587 214.575 166.815 214.387L121.843 203.405C121.378 203.292 120.942 203.083 120.561 202.793C120.181 202.502 119.865 202.136 119.633 201.717L115.308 193.927L114.532 192.524L83.3164 136.169L83.0488 135.689L70.002 112.146L71.5783 111.122L83.5287 103.367L83.805 103.187L108.971 86.8497L110.559 85.8195L146.055 62.7751C148.154 61.4132 150.678 60.864 153.152 61.2305C155.627 61.5969 157.883 62.8538 159.498 64.7655L185.964 96.1064L187.127 97.5033L206.337 120.242L206.442 120.367L216.1 131.798L217.316 133.238L217.514 133.445Z" fill="black"/>
<path opacity="0.1" d="M205.697 119.98L203.353 136.276L202.646 141.194L202.242 151.67L202.21 152.488L200.107 207.225C200.087 207.733 199.955 208.23 199.722 208.682C199.489 209.133 199.159 209.528 198.756 209.838C198.354 210.148 197.888 210.365 197.393 210.476C196.897 210.586 196.383 210.586 195.887 210.476L173.219 205.412L172.975 205.357L114.84 192.375L113.772 192.137L81.8125 184.995L82.5454 135.781L82.5687 134.137L82.7897 119.241L83.034 102.799L108.2 86.4623L109.788 85.4321C133.13 87.8271 164.174 92.4336 185.204 95.719L186.368 97.1158L205.563 119.855L205.697 119.98Z" fill="black"/>
<path d="M208.352 100.658L205.592 119.864L203.062 137.452L202.355 142.358L201.951 152.834L199.816 208.389C199.796 208.897 199.664 209.394 199.431 209.846C199.197 210.297 198.868 210.692 198.465 211.002C198.063 211.312 197.597 211.53 197.101 211.64C196.606 211.75 196.092 211.75 195.596 211.64L172.684 206.521L114.549 193.54L81.5215 186.16L82.2777 135.301L82.4987 120.405L82.7575 102.98L83.0222 85.057C88.4841 84.798 97.4709 85.383 108.2 86.4626C132.223 88.875 164.971 93.7551 186.382 97.1161C199.493 99.1735 208.352 100.658 208.352 100.658Z" fill="#6C63FF"/>
<path opacity="0.1" d="M215.356 131.411L203.062 137.443L140.32 168.231L82.4994 120.416L70.8107 110.735L69.2344 111.759L82.2813 135.301L81.5251 186.16L114.552 193.539L118.868 201.33C119.1 201.749 119.416 202.115 119.796 202.406C120.177 202.696 120.614 202.904 121.079 203.017L166.051 213.994C166.821 214.18 167.631 214.096 168.347 213.757C169.063 213.417 169.641 212.843 169.986 212.129L172.679 206.533L195.591 211.651C196.087 211.762 196.601 211.762 197.096 211.652C197.592 211.541 198.058 211.323 198.46 211.013C198.863 210.703 199.192 210.309 199.426 209.857C199.659 209.406 199.79 208.909 199.811 208.401L201.945 152.846L216.525 133.349L216.566 132.857L215.356 131.411Z" fill="black"/>
<path d="M69.2306 111.759L64.045 200.611C63.997 201.433 64.2431 202.246 64.7392 202.903C65.2353 203.561 65.949 204.02 66.7526 204.199L204.469 234.798C204.952 234.904 205.452 234.905 205.935 234.801C206.419 234.698 206.874 234.492 207.272 234.198C207.669 233.904 207.999 233.529 208.24 233.096C208.48 232.664 208.625 232.186 208.666 231.693L216.736 133.058L140.319 170.559L69.2306 111.759Z" fill="#DCDFED"/>
<path opacity="0.1" d="M64.9931 202.645L136.539 158.48C137.598 157.837 138.85 157.589 140.074 157.781C141.298 157.973 142.415 158.591 143.228 159.527L207.264 234.254C207.497 234.521 207.61 234.329 207.264 234.254L64.9931 202.645C64.5859 202.555 64.6383 202.857 64.9931 202.645Z" fill="black"/>
<path d="M65.504 202.572L136.311 159.775C137.43 159.098 138.752 158.839 140.044 159.042C141.336 159.245 142.515 159.899 143.372 160.886L206.83 233.907C206.935 234.029 206.999 234.18 207.013 234.34C207.027 234.5 206.991 234.661 206.909 234.799C206.827 234.937 206.703 235.046 206.556 235.11C206.409 235.174 206.245 235.19 206.088 235.156L65.7338 203.972C65.5843 203.94 65.448 203.863 65.3427 203.752C65.2373 203.641 65.1677 203.501 65.1429 203.35C65.1181 203.199 65.1393 203.044 65.2037 202.906C65.2681 202.767 65.3727 202.651 65.504 202.572Z" fill="#E3E5F1"/>
</g>
<defs>
<linearGradient id="paint0_linear" x1="244.872" y1="233.505" x2="244.872" y2="53.2094" gradientUnits="userSpaceOnUse">
<stop stop-color="#808080" stop-opacity="0.25"/>
<stop offset="0.54" stop-color="#808080" stop-opacity="0.12"/>
<stop offset="1" stop-color="#808080" stop-opacity="0.1"/>
</linearGradient>
<clipPath id="clip0">
<rect width="301" height="242" fill="white"/>
</clipPath>
</defs>
</svg>
