<svg width="313" height="224" viewBox="0 0 313 224" fill="none" xmlns="http://www.w3.org/2000/svg">
<g clip-path="url(#clip0)">
<path d="M80.1448 177.86C123.137 177.86 157.99 175.991 157.99 173.686C157.99 171.381 123.137 169.512 80.1448 169.512C37.1522 169.512 2.2998 171.381 2.2998 173.686C2.2998 175.991 37.1522 177.86 80.1448 177.86Z" fill="#3F3D56"/>
<path opacity="0.1" d="M64.5201 176.708C96.726 176.708 122.834 175.42 122.834 173.83C122.834 172.24 96.726 170.952 64.5201 170.952C32.3141 170.952 6.20605 172.24 6.20605 173.83C6.20605 175.42 32.3141 176.708 64.5201 176.708Z" fill="black"/>
<path d="M231.651 207.354C274.643 207.354 309.496 205.298 309.496 202.763C309.496 200.227 274.643 198.172 231.651 198.172C188.658 198.172 153.806 200.227 153.806 202.763C153.806 205.298 188.658 207.354 231.651 207.354Z" fill="#3F3D56"/>
<path opacity="0.1" d="M216.026 206.087C248.232 206.087 274.34 204.669 274.34 202.921C274.34 201.172 248.232 199.754 216.026 199.754C183.82 199.754 157.712 201.172 157.712 202.921C157.712 204.669 183.82 206.087 216.026 206.087Z" fill="black"/>
<path d="M108.353 194.554C135.789 194.554 158.03 193.433 158.03 192.05C158.03 190.667 135.789 189.546 108.353 189.546C80.9178 189.546 58.6768 190.667 58.6768 192.05C58.6768 193.433 80.9178 194.554 108.353 194.554Z" fill="#3F3D56"/>
<path d="M67.587 219.071C103.033 219.071 131.767 217.634 131.767 215.862C131.767 214.09 103.033 212.653 67.587 212.653C32.1415 212.653 3.40723 214.09 3.40723 215.862C3.40723 217.634 32.1415 219.071 67.587 219.071Z" fill="#3F3D56"/>
<path d="M20.4633 184.911C33.7005 184.911 44.4314 184.37 44.4314 183.703C44.4314 183.035 33.7005 182.494 20.4633 182.494C7.22603 182.494 -3.50488 183.035 -3.50488 183.703C-3.50488 184.37 7.22603 184.911 20.4633 184.911Z" fill="#3F3D56"/>
<path d="M262.375 223.514C287.012 223.514 306.984 222.507 306.984 221.266C306.984 220.024 287.012 219.017 262.375 219.017C237.739 219.017 217.767 220.024 217.767 221.266C217.767 222.507 237.739 223.514 262.375 223.514Z" fill="#3F3D56"/>
<path d="M257.599 149.479H168.314V202.345H257.599V149.479Z" fill="#3F3D56"/>
<path d="M197.052 196.502C208.147 196.502 217.141 187.533 217.141 176.469C217.141 165.404 208.147 156.435 197.052 156.435C185.957 156.435 176.963 165.404 176.963 176.469C176.963 187.533 185.957 196.502 197.052 196.502Z" fill="#6C63FF"/>
<path d="M229.977 157.826H223.28V164.504H229.977V157.826Z" fill="#6C63FF"/>
<path opacity="0.5" d="M238.346 157.826H231.649V164.504H238.346V157.826Z" fill="#6C63FF"/>
<path opacity="0.2" d="M246.717 157.826H240.021V164.504H246.717V157.826Z" fill="#6C63FF"/>
<path d="M229.977 166.174H223.28V172.851H229.977V166.174Z" fill="#2F2E41"/>
<path opacity="0.5" d="M238.346 166.174H231.649V172.851H238.346V166.174Z" fill="#2F2E41"/>
<path opacity="0.2" d="M246.717 166.174H240.021V172.851H246.717V166.174Z" fill="#2F2E41"/>
<path d="M229.977 174.521H223.28V181.199H229.977V174.521Z" fill="#FF6584"/>
<path opacity="0.5" d="M238.346 174.521H231.649V181.199H238.346V174.521Z" fill="#FF6584"/>
<path opacity="0.2" d="M246.717 174.521H240.021V181.199H246.717V174.521Z" fill="#FF6584"/>
<path opacity="0.5" d="M197.052 156.435V196.502C208.147 196.502 217.699 187.533 217.699 176.469C217.699 165.404 208.147 156.435 197.052 156.435Z" fill="#3F3D56"/>
<path d="M276.711 153.235C276.711 153.235 288.43 158.522 284.244 164.643C280.059 170.765 267.504 182.451 267.225 184.955C266.946 187.459 265.271 189.685 265.271 189.685C265.271 189.685 259.691 183.842 260.249 183.286C260.807 182.729 266.388 177.442 266.667 176.051C266.946 174.66 275.316 163.809 275.316 163.809L267.783 157.131L276.711 153.235Z" fill="#FFB9B9"/>
<path opacity="0.1" d="M276.711 153.235C276.711 153.235 288.43 158.522 284.244 164.643C280.059 170.765 267.504 182.451 267.225 184.955C266.946 187.459 265.271 189.685 265.271 189.685C265.271 189.685 259.691 183.842 260.249 183.286C260.807 182.729 266.388 177.442 266.667 176.051C266.946 174.66 275.316 163.809 275.316 163.809L267.783 157.131L276.711 153.235Z" fill="black"/>
<path d="M261.925 164.921C261.925 164.921 270.016 168.26 269.458 173.547C268.9 178.833 279.224 193.858 279.224 193.858C279.224 193.858 280.34 197.476 280.061 198.589C279.782 199.702 287.315 199.423 287.315 199.423V196.919C287.315 196.919 281.456 186.902 280.898 184.12C280.34 181.338 276.992 170.486 276.992 170.486C276.992 170.486 275.875 160.748 270.295 160.748C268.671 160.748 267.069 161.125 265.616 161.849C264.163 162.574 262.899 163.625 261.925 164.921V164.921Z" fill="#FFB9B9"/>
<path d="M262.343 139.74C262.343 139.74 279.083 153.374 278.525 154.487C277.967 155.6 269.876 159.774 268.481 160.052C267.086 160.33 257.215 139.74 257.215 139.74H262.343Z" fill="#2F2E41"/>
<path opacity="0.1" d="M262.343 139.74C262.343 139.74 279.083 153.374 278.525 154.487C277.967 155.6 269.876 159.774 268.481 160.052C267.086 160.33 257.215 139.74 257.215 139.74H262.343Z" fill="black"/>
<path d="M244.206 142.523C244.206 142.523 242.532 150.036 246.996 153.096C251.46 156.157 258.994 168.121 259.831 168.121C260.668 168.121 272.665 161.722 272.107 160.609C271.549 159.496 265.411 149.757 265.411 149.757L263.458 139.462C263.458 139.462 246.438 138.906 244.206 142.523Z" fill="#2F2E41"/>
<path d="M262.343 118.038L264.854 134.176L269.318 145.584C269.318 145.584 276.014 152.54 272.108 153.096C268.202 153.653 265.97 145.584 265.97 145.584L262.343 138.906V118.038Z" fill="#FFB9B9"/>
<path opacity="0.1" d="M262.343 118.038L264.854 134.176L269.318 145.584C269.318 145.584 276.014 152.54 272.108 153.096C268.202 153.653 265.97 145.584 265.97 145.584L262.343 138.906V118.038Z" fill="black"/>
<path d="M252.995 100.091C252.995 100.091 252.995 105.934 251.041 106.491C249.088 107.047 258.854 114.56 258.854 114.56C258.854 114.56 257.738 104.821 261.644 102.317L252.995 100.091Z" fill="#FFB9B9"/>
<path opacity="0.1" d="M252.995 100.091C252.995 100.091 252.995 105.934 251.041 106.491C249.088 107.047 258.854 114.56 258.854 114.56C258.854 114.56 257.738 104.821 261.644 102.317L252.995 100.091Z" fill="black"/>
<path d="M257.459 104.821C261.003 104.821 263.877 101.956 263.877 98.4215C263.877 94.8872 261.003 92.022 257.459 92.022C253.915 92.022 251.042 94.8872 251.042 98.4215C251.042 101.956 253.915 104.821 257.459 104.821Z" fill="#FFB9B9"/>
<path d="M257.738 111.777C257.738 111.777 251.878 104.543 251.041 104.821C250.204 105.099 244.066 111.221 243.508 113.168C242.95 115.116 241.834 129.028 242.671 131.811C243.508 134.593 243.508 141.827 243.229 142.384C242.95 142.94 241.276 144.331 242.95 144.331C244.624 144.331 250.483 140.158 254.39 140.993C258.296 141.827 263.597 140.714 263.876 140.158C264.155 139.601 263.597 125.133 263.876 124.02C264.155 122.907 263.318 117.342 263.039 116.229C262.76 115.116 262.76 110.664 259.97 109.551L258.78 109.434L258.713 112.186L257.738 111.777Z" fill="#6C63FF"/>
<path d="M245.462 126.246C245.462 126.246 246.02 134.871 250.205 138.489C254.39 142.106 263.319 148.227 263.877 149.34C264.435 150.453 269.736 156.296 270.852 153.792C271.176 153.011 271.254 152.151 271.076 151.325C270.914 150.504 270.585 149.724 270.11 149.035C269.635 148.345 269.023 147.76 268.313 147.314L265.83 145.723L253.553 132.924L252.995 126.246H245.462Z" fill="#FFB9B9"/>
<path d="M261.504 182.312C261.504 182.312 258.296 181.616 257.18 183.564C256.064 185.511 258.296 190.798 258.296 190.798C258.296 190.798 264.713 204.154 265.829 202.484C266.945 200.815 264.992 194.694 264.992 194.694C264.992 194.694 267.782 188.572 266.666 188.294C265.55 188.016 261.504 185.651 261.504 182.312Z" fill="#2F2E41"/>
<path d="M281.175 198.311C281.175 198.311 279.501 197.476 279.222 198.311C278.943 199.145 277.268 203.319 279.222 203.876C281.175 204.432 300.427 204.989 299.869 203.876C299.311 202.763 296.241 201.371 294.288 200.815C292.335 200.258 287.313 196.085 287.313 196.085C287.313 196.085 284.523 199.702 281.175 198.311Z" fill="#2F2E41"/>
<path d="M263.924 93.3424C263.803 92.9387 263.538 92.5933 263.178 92.3722C263.197 91.9397 263.144 91.5071 263.021 91.0918C262.611 89.883 261.64 89.9523 260.723 89.4179C260.326 89.186 260.35 88.9811 260.143 88.6002C259.872 88.101 259.466 87.6876 258.971 87.4072C258.383 87.0336 257.762 86.6488 257.066 86.6016C255.605 86.5022 254.484 87.8733 253.087 88.3133C252.471 88.5072 251.809 88.5153 251.19 88.6986C250.571 88.882 249.954 89.3198 249.861 89.9572C249.819 90.2514 249.894 90.5533 249.851 90.8475C249.765 91.4322 249.25 91.8417 248.906 92.3226C248.145 93.3861 248.232 94.8885 248.841 96.0456C248.969 96.2851 249.116 96.5142 249.28 96.7309C249.331 97.2778 249.488 97.8095 249.743 98.2962C250.352 99.4533 251.4 100.318 252.495 101.036C252.405 100.653 252.351 100.262 252.332 99.8679C252.317 99.7367 252.334 99.6038 252.382 99.4808C252.504 99.2266 252.826 99.159 253.072 99.0199C253.581 98.7316 253.78 98.0936 253.795 97.5103C253.81 96.927 253.686 96.3428 253.747 95.7625C253.749 95.6291 253.78 95.4976 253.836 95.3766C253.893 95.2556 253.974 95.1477 254.075 95.06C254.262 94.9532 254.477 94.9022 254.693 94.913C255.735 94.8706 256.824 94.8515 257.743 94.36C258.04 94.1636 258.359 94.0029 258.693 93.881C259.474 93.6778 260.273 94.2239 260.723 94.8923C261.173 95.5607 261.398 96.356 261.813 97.0465C262.229 97.7369 262.946 98.3526 263.75 98.2708C263.795 98.2709 263.84 98.2615 263.881 98.2432C263.922 98.2249 263.959 98.198 263.99 98.1645C264.024 98.1024 264.04 98.0315 264.034 97.9607L264.079 94.8987C264.116 94.3749 264.064 93.8487 263.924 93.3424Z" fill="#2F2E41"/>
<path d="M247.974 112.056C247.974 112.056 254.112 114.838 253.833 120.681C253.554 126.524 255.507 127.081 250.764 127.637C246.021 128.194 244.905 127.637 244.626 128.194C244.347 128.75 242.673 115.395 243.789 114.003C244.905 112.612 247.974 112.056 247.974 112.056Z" fill="#6C63FF"/>
<path d="M124.509 64.8932C129.44 64.8932 133.437 60.9069 133.437 55.9894C133.437 51.072 129.44 47.0857 124.509 47.0857C119.577 47.0857 115.58 51.072 115.58 55.9894C115.58 60.9069 119.577 64.8932 124.509 64.8932Z" fill="#2F2E41"/>
<path d="M130.507 153.513L125.485 167.147C125.485 167.147 121.3 170.486 123.811 171.599C126.322 172.712 131.345 170.486 131.345 170.486L135.251 160.469L134.693 153.513H130.507Z" fill="#2F2E41"/>
<path opacity="0.1" d="M130.507 153.513L125.485 167.147C125.485 167.147 121.3 170.486 123.811 171.599C126.322 172.712 131.345 170.486 131.345 170.486L135.251 160.469L134.693 153.513H130.507Z" fill="black"/>
<path d="M130.926 72.6841L135.111 73.2406C135.111 73.2406 137.064 88.5439 136.227 89.6569C135.39 90.7698 131.205 95.2217 129.531 94.1088C127.857 92.9958 130.926 72.6841 130.926 72.6841Z" fill="#575A89"/>
<path d="M90.8872 100.647C90.8872 100.647 85.0279 103.152 83.9119 103.43C82.7958 103.708 81.1217 106.491 83.0748 107.047C85.0279 107.603 92.5613 102.039 92.5613 102.039L90.8872 100.647Z" fill="#A0616A"/>
<path d="M132.46 159.078L135.529 170.486C135.529 170.486 135.808 174.66 137.203 174.938C138.598 175.217 142.783 173.547 142.783 172.991C142.783 172.434 141.109 167.982 141.109 167.982C141.109 167.982 141.109 164.643 139.435 163.252C137.761 161.861 136.253 157.2 136.253 157.2L132.46 159.078Z" fill="#2F2E41"/>
<path d="M136.367 132.924C136.93 134.234 136.861 143.742 136.244 150.069C135.945 153.144 135.519 155.467 134.972 155.74L130.973 154.743L129.391 154.348L129.35 150.887L129.112 131.811L124.369 112.055V107.047L136.367 108.16L138.27 111.14L138.32 111.221C138.32 111.221 135.53 130.976 136.367 132.924Z" fill="#2F2E41"/>
<path opacity="0.1" d="M133.856 139.045C134.453 139.938 135.449 145.286 136.244 150.069C135.945 153.144 135.519 155.467 134.972 155.74L130.973 154.743C130.912 154.615 130.851 154.482 130.786 154.348C130.276 153.28 129.796 152.1 129.35 150.887L129.112 131.811L124.369 112.055V107.047L136.367 108.16L138.27 111.14L127.159 110.386L129.67 121.237L132.74 132.645C132.74 132.645 132.74 137.376 133.856 139.045Z" fill="black"/>
<path d="M114.046 95.9174C114.046 95.9174 110.14 104.543 115.72 116.507C119.173 123.953 122.246 131.568 124.928 139.323C124.928 139.323 126.881 148.505 129.671 154.348C132.461 160.191 131.903 160.47 131.903 160.47L136.367 157.966C136.367 157.966 133.856 140.714 132.74 139.045C131.624 137.376 131.624 132.645 131.624 132.645L128.555 121.238L126.044 110.386L138.32 111.221C138.32 111.221 138.32 95.361 132.74 92.3003L114.046 95.9174Z" fill="#2F2E41"/>
<path d="M118.65 60.1631C118.65 60.1631 118.65 64.615 117.255 64.8932C115.859 65.1715 113.069 65.1715 112.232 66.5627C111.395 67.9539 118.65 86.3179 118.65 86.3179L126.183 81.5878L128.694 69.0668C128.694 69.0668 125.067 66.8409 125.067 65.7279V60.7196L118.65 60.1631Z" fill="#A0616A"/>
<path opacity="0.1" d="M118.65 60.1631C118.65 60.1631 118.65 64.615 117.255 64.8932C115.859 65.1715 113.069 65.1715 112.232 66.5627C111.395 67.9539 118.65 86.3179 118.65 86.3179L126.183 81.5878L128.694 69.0668C128.694 69.0668 125.067 66.8409 125.067 65.7279V60.7196L118.65 60.1631Z" fill="black"/>
<path d="M122.975 65.0326C126.673 65.0326 129.671 62.0429 129.671 58.3548C129.671 54.6668 126.673 51.677 122.975 51.677C119.276 51.677 116.278 54.6668 116.278 58.3548C116.278 62.0429 119.276 65.0326 122.975 65.0326Z" fill="#A0616A"/>
<path d="M119.487 80.7531C119.487 80.7531 116.976 64.8933 116.418 64.8933C115.86 64.8933 108.048 66.5628 107.49 66.841C106.932 67.1192 104.979 69.6234 104.979 69.6234L108.885 80.7531C108.885 80.7531 110.559 88.5439 111.675 89.9351C112.791 91.3263 115.023 95.2217 113.907 95.7782C112.791 96.3347 111.675 97.1694 112.791 97.1694C113.907 97.1694 123.114 95.5 123.672 96.3347C124.231 97.1694 133.438 93.274 133.438 92.9958C133.438 92.7175 132.322 79.6402 132.322 79.6402L135.112 73.2406L126.742 67.3975L119.487 80.7531Z" fill="#575A89"/>
<path d="M107.767 68.2322L104.977 69.6234C104.977 69.6234 97.1645 87.4309 96.6065 87.7091C96.0485 87.9874 93.2583 93.274 92.9793 94.387C92.7003 95.4999 92.1423 99.1171 91.3052 99.6736C90.8562 99.9776 90.3905 100.256 89.9102 100.508C89.9102 100.508 91.5842 103.291 92.4213 103.291C93.2583 103.291 96.0485 99.3953 96.0485 99.3953C96.0485 99.3953 102.187 103.291 103.861 100.23C105.535 97.1694 109.72 77.6924 109.72 77.6924L107.767 68.2322Z" fill="#575A89"/>
<path d="M129.67 76.7186C129.67 76.7186 125.764 67.2583 123.532 68.3713C121.3 69.4843 125.206 76.1621 127.717 77.2751L129.67 76.7186Z" fill="#A0616A"/>
<path opacity="0.1" d="M125.764 76.997L129.679 76.1145L130.508 80.3359C130.508 80.3359 134.135 86.7355 133.298 89.5179C132.461 92.3004 127.438 96.7522 125.764 94.248C124.09 91.7439 122.695 87.8485 123.811 85.6225C124.927 83.3966 126.601 78.11 125.764 76.997Z" fill="black"/>
<path d="M126.601 76.4404L130.516 75.5579L131.344 79.7793C131.344 79.7793 134.972 86.1789 134.135 88.9613C133.298 91.7437 128.275 96.1956 126.601 93.6914C124.927 91.1872 123.532 87.2918 124.648 85.0659C125.764 82.84 127.438 77.5533 126.601 76.4404Z" fill="#575A89"/>
<path d="M130.851 57.0137C131.603 55.4134 129.498 52.8478 126.149 51.2833C122.8 49.7187 119.475 49.7477 118.723 51.348C117.972 52.9483 120.077 55.5139 123.426 57.0785C126.775 58.643 130.1 58.614 130.851 57.0137Z" fill="#2F2E41"/>
<path d="M129.81 52.3726C131.968 52.3726 133.717 50.6285 133.717 48.4772C133.717 46.3258 131.968 44.5818 129.81 44.5818C127.653 44.5818 125.904 46.3258 125.904 48.4772C125.904 50.6285 127.653 52.3726 129.81 52.3726Z" fill="#2F2E41"/>
<path d="M126.182 47.0856C126.183 46.1248 126.539 45.198 127.183 44.4832C127.826 43.7684 128.712 43.3161 129.67 43.2132C129.125 43.1538 128.573 43.2097 128.05 43.3772C127.528 43.5447 127.047 43.8201 126.638 44.1854C126.23 44.5508 125.903 44.9979 125.679 45.4976C125.455 45.9973 125.34 46.5383 125.34 47.0856C125.34 47.6328 125.455 48.1739 125.679 48.6736C125.903 49.1733 126.23 49.6204 126.638 49.9857C127.047 50.3511 127.528 50.6264 128.05 50.794C128.573 50.9615 129.125 51.0174 129.67 50.9579C128.712 50.855 127.826 50.4027 127.183 49.6879C126.539 48.9732 126.183 48.0463 126.182 47.0856V47.0856Z" fill="#2F2E41"/>
<path d="M112.232 106.073H14.5771V173.686H112.232V106.073Z" fill="#3F3D56"/>
<path d="M35.2233 112.751H22.3887V125.55H35.2233V112.751Z" fill="#F2F2F2"/>
<path d="M35.2233 133.619H22.3887V146.418H35.2233V133.619Z" fill="#6C63FF"/>
<path d="M35.2233 154.487H22.3887V167.286H35.2233V154.487Z" fill="#F2F2F2"/>
<path d="M102.467 116.785H41.3633V117.898H102.467V116.785Z" fill="#F2F2F2"/>
<path d="M60.3363 120.403H41.3633V121.516H60.3363V120.403Z" fill="#F2F2F2"/>
<path d="M102.467 137.654H41.3633V138.767H102.467V137.654Z" fill="#F2F2F2"/>
<path d="M60.3363 141.271H41.3633V142.384H60.3363V141.271Z" fill="#F2F2F2"/>
<path d="M102.467 158.522H41.3633V159.635H102.467V158.522Z" fill="#F2F2F2"/>
<path d="M60.3363 162.139H41.3633V163.252H60.3363V162.139Z" fill="#F2F2F2"/>
<path d="M272.665 215.126C272.665 220.79 269.289 222.767 265.124 222.767C265.028 222.767 264.931 222.766 264.836 222.764C264.643 222.759 264.451 222.75 264.262 222.737C260.503 222.472 257.583 220.393 257.583 215.126C257.583 209.675 264.567 202.797 265.093 202.287L265.094 202.287C265.114 202.267 265.124 202.257 265.124 202.257C265.124 202.257 272.665 209.462 272.665 215.126Z" fill="#6C63FF"/>
<path d="M264.849 221.9L267.608 218.057L264.842 222.323L264.836 222.763C264.643 222.759 264.451 222.75 264.262 222.737L264.559 217.071L264.557 217.027L264.562 217.019L264.591 216.483L261.818 212.208L264.599 216.082L264.606 216.195L264.83 211.914L262.457 207.496L264.859 211.163L265.093 202.287L265.094 202.257V202.286L265.055 209.286L267.417 206.511L265.045 209.888L264.983 213.722L267.189 210.043L264.974 214.286L264.939 216.417L268.141 211.296L264.926 217.16L264.849 221.9Z" fill="#3F3D56"/>
<path d="M27.9692 176.45C27.9692 182.114 24.5932 184.091 20.428 184.091C20.3315 184.091 20.235 184.09 20.1392 184.088C19.9463 184.084 19.7547 184.075 19.5659 184.062C15.8067 183.796 12.8867 181.717 12.8867 176.45C12.8867 171 19.8706 164.122 20.3967 163.612L20.3974 163.611C20.4176 163.591 20.428 163.581 20.428 163.581C20.428 163.581 27.9692 170.787 27.9692 176.45Z" fill="#6C63FF"/>
<path d="M20.1531 183.225L22.9115 179.382L20.1462 183.647L20.1393 184.088C19.9463 184.084 19.7547 184.075 19.5659 184.062L19.863 178.395L19.8609 178.351L19.8658 178.344L19.8943 177.808L17.1221 173.532L19.9026 177.406L19.9095 177.52L20.1337 173.239L17.7606 168.821L20.1629 172.488L20.3968 163.612L20.3975 163.581V163.611L20.3586 170.61L22.7213 167.835L20.3489 171.213L20.2864 175.046L22.4929 171.367L20.2774 175.61L20.2427 177.741L23.4445 172.621L20.2302 178.485L20.1531 183.225Z" fill="#3F3D56"/>
</g>
<path d="M51.3817 96.7634C78.1022 96.7634 99.7634 75.1022 99.7634 48.3817C99.7634 21.6612 78.1022 0 51.3817 0C24.6612 0 3 21.6612 3 48.3817C3 75.1022 24.6612 96.7634 51.3817 96.7634Z" fill="#E5E2EF"/>
<defs>
<clipPath id="clip0">
<rect width="313" height="194.514" fill="white" transform="translate(0 29)"/>
</clipPath>
</defs>
</svg>
