<svg width="272" height="205" viewBox="0 0 272 205" fill="none" xmlns="http://www.w3.org/2000/svg">
<title id="growth-image">Man adjusting fancy suit</title>
<path d="M186.148 56.0181V187.708C167.954 198.597 145.702 205 121.676 205C89.6683 205 65.2527 192.92 46.8867 174.414V56.0181H186.148Z" fill="#F2F2F2"/>
<path d="M60.2822 120.185C67.5736 117.868 75.1388 116.521 82.7825 116.179C86.6126 116.016 90.4497 116.166 94.2554 116.627C98.0243 117.125 101.748 117.921 105.39 119.008C108.989 120.048 112.539 121.25 116.125 122.331C119.769 123.442 123.473 124.345 127.22 125.035C130.947 125.708 134.712 126.156 138.493 126.376C142.238 126.594 146.019 126.636 149.753 126.238C153.24 125.902 156.656 125.038 159.883 123.673C162.892 122.362 165.673 120.58 168.121 118.396C168.732 117.851 169.32 117.283 169.885 116.69C170.218 116.342 169.689 115.813 169.355 116.161C164.582 121.144 158.309 124.234 151.504 125.265C147.797 125.827 144.02 125.86 140.28 125.715C136.457 125.568 132.646 125.183 128.871 124.564C125.141 123.946 121.451 123.107 117.821 122.052C114.255 121.02 110.738 119.831 107.185 118.758C103.6 117.634 99.9407 116.764 96.2337 116.153C92.5162 115.587 88.7585 115.327 84.9984 115.374C77.4847 115.494 70.0193 116.598 62.7933 118.658C61.8857 118.912 60.9823 119.181 60.0831 119.464C59.6249 119.607 59.8205 120.329 60.2821 120.185H60.2822Z" fill="#3F3D56"/>
<path d="M60.2822 139.127C67.5736 136.811 75.1388 135.464 82.7825 135.121C86.6126 134.958 90.4497 135.108 94.2554 135.569C98.0243 136.067 101.748 136.863 105.39 137.95C108.989 138.991 112.539 140.193 116.125 141.273C119.769 142.384 123.473 143.287 127.22 143.977C130.947 144.65 134.712 145.099 138.493 145.319C142.238 145.536 146.019 145.578 149.753 145.18C153.24 144.845 156.656 143.98 159.883 142.616C162.892 141.304 165.673 139.523 168.121 137.338C168.732 136.794 169.32 136.225 169.885 135.632C170.218 135.285 169.689 134.755 169.355 135.104C164.582 140.086 158.309 143.176 151.504 144.208C147.797 144.77 144.02 144.802 140.28 144.657C136.457 144.51 132.646 144.126 128.871 143.506C125.141 142.888 121.451 142.05 117.821 140.994C114.255 139.963 110.738 138.773 107.185 137.701C103.6 136.577 99.9407 135.706 96.2337 135.095C92.5162 134.53 88.7585 134.269 84.9984 134.316C77.4847 134.436 70.0193 135.54 62.7933 137.6C61.8857 137.855 60.9823 138.123 60.0831 138.406C59.6249 138.549 59.8205 139.272 60.2821 139.127H60.2822Z" fill="#3F3D56"/>
<path d="M60.2822 102.987C67.5736 100.671 75.1388 99.3242 82.7825 98.9813C86.6126 98.8186 90.4497 98.9685 94.2554 99.4296C98.0243 99.9274 101.748 100.723 105.39 101.81C108.989 102.851 112.539 104.053 116.125 105.133C119.769 106.245 123.473 107.148 127.22 107.837C130.947 108.511 134.712 108.959 138.493 109.179C142.238 109.396 146.019 109.439 149.753 109.04C153.24 108.705 156.656 107.84 159.883 106.476C162.892 105.165 165.673 103.383 168.121 101.199C168.732 100.654 169.32 100.085 169.885 99.4927C170.218 99.145 169.689 98.6155 169.355 98.964C164.582 103.947 158.309 107.036 151.504 108.068C147.797 108.63 144.02 108.663 140.28 108.518C136.457 108.37 132.646 107.986 128.871 107.367C125.141 106.749 121.451 105.91 117.821 104.855C114.255 103.823 110.738 102.634 107.185 101.561C103.6 100.437 99.9407 99.5664 96.2337 98.9556C92.5162 98.3901 88.7585 98.1296 84.9984 98.1768C77.4847 98.2968 70.0193 99.4008 62.7933 101.461C61.8857 101.715 60.9823 101.984 60.0831 102.266C59.6249 102.41 59.8205 103.132 60.2821 102.987H60.2822Z" fill="#3F3D56"/>
<path d="M59.3895 70.4722C61.201 69.6708 63.2761 69.8105 65.1561 70.2752C67.1832 70.7763 69.0921 71.6477 71.0876 72.2502C74.6594 73.313 78.4536 73.3849 82.0632 72.4581C84.0954 71.9404 86.0346 71.1104 87.8114 69.9977C88.2183 69.7422 87.843 69.0949 87.4335 69.352C84.2664 71.327 80.6055 72.3693 76.8717 72.359C74.9991 72.3562 73.1367 72.0824 71.3428 71.546C69.3619 70.9528 67.4683 70.0917 65.4615 69.5809C63.3354 69.0397 61.0553 68.9224 59.0116 69.8266C58.572 70.0211 58.9525 70.6656 59.3895 70.4722Z" fill="#3F3D56"/>
<path d="M115.019 185.123C121.36 185.123 126.5 179.99 126.5 173.658C126.5 167.326 121.36 162.193 115.019 162.193C108.679 162.193 103.539 167.326 103.539 173.658C103.539 179.99 108.679 185.123 115.019 185.123Z" fill="#3F3D56"/>
<path d="M53.126 32.5893C56.5719 32.5893 59.3653 29.7997 59.3653 26.3584C59.3653 22.9171 56.5719 20.1274 53.126 20.1274C49.6801 20.1274 46.8867 22.9171 46.8867 26.3584C46.8867 29.7997 49.6801 32.5893 53.126 32.5893Z" fill="#F2F2F2"/>
<path d="M107.782 48.2915C110.125 48.2915 112.024 46.3945 112.024 44.0544C112.024 41.7144 110.125 39.8174 107.782 39.8174C105.439 39.8174 103.539 41.7144 103.539 44.0544C103.539 46.3945 105.439 48.2915 107.782 48.2915Z" fill="#F2F2F2"/>
<path d="M38.9009 88.917C41.2441 88.917 43.1437 87.02 43.1437 84.6799C43.1437 82.3399 41.2441 80.4429 38.9009 80.4429C36.5577 80.4429 34.6582 82.3399 34.6582 84.6799C34.6582 87.02 36.5577 88.917 38.9009 88.917Z" fill="#F2F2F2"/>
<path d="M21.8175 53.2031H21.3496V136.759H21.8175V53.2031Z" fill="#3F3D56"/>
<path d="M21.6743 129.598C26.7131 129.598 30.7978 120.289 30.7978 108.806C30.7978 97.3223 26.7131 88.0132 21.6743 88.0132C16.6355 88.0132 12.5508 97.3223 12.5508 108.806C12.5508 120.289 16.6355 129.598 21.6743 129.598Z" fill="#3F3D56"/>
<path d="M21.6743 82.1729C26.7131 82.1729 30.7978 72.8638 30.7978 61.3804C30.7978 49.897 26.7131 40.5879 21.6743 40.5879C16.6355 40.5879 12.5508 49.897 12.5508 61.3804C12.5508 72.8638 16.6355 82.1729 21.6743 82.1729Z" fill="#3F3D56"/>
<path d="M21.8973 44.3928L21.449 44.2586C21.4773 44.1641 24.2279 34.7509 19.7115 28.691C17.1606 25.2686 12.7833 23.5332 6.70117 23.5332V23.0659C12.9402 23.0659 17.4442 24.8652 20.0881 28.4138C24.7444 34.6636 21.9263 44.2963 21.8973 44.3928Z" fill="#3F3D56"/>
<path d="M6.70193 29.1402C9.93192 29.1402 12.5503 26.5253 12.5503 23.2996C12.5503 20.0739 9.93192 17.459 6.70193 17.459C3.47194 17.459 0.853516 20.0739 0.853516 23.2996C0.853516 26.5253 3.47194 29.1402 6.70193 29.1402Z" fill="#3F3D56"/>
<path d="M192.356 155.693L187.98 195.895H218.172L219.485 192.836L221.235 195.895H249.677C249.677 195.895 247.489 154.382 243.551 153.071C239.613 151.76 192.356 155.693 192.356 155.693Z" fill="#2F2E41"/>
<path d="M218.17 67.4238C226.628 67.4238 233.485 60.5764 233.485 52.1296C233.485 43.6829 226.628 36.8354 218.17 36.8354C209.712 36.8354 202.855 43.6829 202.855 52.1296C202.855 60.5764 209.712 67.4238 218.17 67.4238Z" fill="#FFB8B8"/>
<path d="M209.419 61.7434C209.419 61.7434 210.732 75.7266 209.419 76.6006C208.106 77.4745 230.422 77.0376 230.422 77.0376C230.422 77.0376 227.359 64.3652 230.422 58.2476L209.419 61.7434Z" fill="#FFB8B8"/>
<path d="M217.296 73.5417C217.296 73.5417 228.555 75.2929 229.489 71.7954L235.236 79.6593L235.674 158.315C235.674 158.315 188.855 163.996 187.104 154.819C185.354 145.643 205.044 73.1047 205.044 73.1047L210.001 72.7842C210.001 72.7842 216.421 73.5417 217.296 73.5417Z" fill="#D0CDE1"/>
<path d="M209.927 69.1958L202.419 71.794L180.979 77.0377L181.854 129.475C181.854 129.475 163.476 181.912 171.79 185.845C180.103 189.778 191.918 180.601 195.418 174.047C198.919 167.492 211.17 76.6007 211.17 74.8528C211.17 73.1049 209.927 69.1958 209.927 69.1958Z" fill="#3F3D56"/>
<path d="M229.209 69.1958L232.174 71.794L253.177 81.4074L242.675 134.282C242.675 134.282 256.677 182.349 251.427 184.971C246.176 187.593 238.3 195.021 236.55 190.652C234.799 186.282 224.493 74.0263 229.209 69.1958Z" fill="#3F3D56"/>
<path d="M241.361 139.088C241.361 139.088 221.67 130.786 221.233 138.214C220.795 145.643 243.548 150.887 243.548 148.702C243.548 146.517 241.361 139.088 241.361 139.088Z" fill="#FFB8B8"/>
<path d="M193.229 136.029C193.229 136.029 215.983 153.071 207.231 157.441C198.48 161.811 187.104 142.147 187.104 142.147L193.229 136.029Z" fill="#FFB8B8"/>
<path d="M224.97 29.7263C225.042 29.5742 225.158 29.4471 225.302 29.3613C225.447 29.2754 225.615 29.2348 225.783 29.2446C218.771 28.8257 211.386 29.6418 205.521 33.5004C203.878 34.581 202.344 35.9024 200.473 36.5114L201.992 37.7003L200.178 38.2525L202.847 39.9754C202.577 40.2814 202.232 40.5108 201.845 40.6402C201.458 40.7697 201.043 40.7947 200.644 40.7125C201.804 41.051 202.658 42.082 203.092 43.2085C203.525 44.335 203.603 45.5618 203.677 46.7665C204.125 45.0283 206.025 44.005 207.819 43.9011C209.613 43.7971 211.363 44.3884 213.11 44.8134C216.913 45.7364 220.863 45.8882 224.727 45.2597C223.415 47.8888 224.521 51.0249 225.635 53.7437L227.859 59.1724C229.093 59.2964 229.966 58.0704 230.896 57.2503C231.743 56.5029 228.369 63.0766 228.891 62.8358C229.57 62.5229 236.733 54.6249 237.068 53.9577C238.599 50.9135 239.517 47.518 239.379 44.1144C239.241 40.7109 237.994 37.3057 235.645 34.8359C234.05 33.1593 231.843 32.8656 230.217 31.4721C229.577 30.9236 229.575 30.4952 228.696 30.1754C228.404 30.0692 225.018 29.6192 224.97 29.7263Z" fill="#32270C"/>
<path d="M184.04 78.3485L180.977 77.0376L156.474 117.24C156.474 117.24 152.098 127.727 159.974 132.534C167.85 137.34 186.228 151.761 186.228 151.761L196.729 135.593C196.729 135.593 175.289 125.542 176.602 121.609C177.914 117.677 184.915 107.189 184.915 107.189L184.04 78.3485Z" fill="#3F3D56"/>
<path d="M247.488 80.5332L253.176 81.4072C253.176 81.4072 276.804 127.727 271.116 136.466C265.428 145.206 242.237 157.441 242.237 157.441C242.237 157.441 241.799 143.021 237.861 137.777L251.426 132.533L243.987 103.693L247.488 80.5332Z" fill="#3F3D56"/>
</svg>
