<svg width="70" height="70" viewBox="0 0 70 70" fill="none" xmlns="http://www.w3.org/2000/svg">
<title id="avatar-image">Cartoon face of a man</title>
<g clip-path="url(#clip0)">
<path d="M70 35C70.0062 39.7379 69.0472 44.4274 67.1814 48.7825L67.0654 49.0497C63.9092 56.2298 58.4366 62.1441 51.5225 65.847C44.6085 69.5498 36.6525 70.8272 28.9268 69.475C28.7166 69.4377 28.5067 69.399 28.2972 69.359C26.1323 68.9393 24.0123 68.3142 21.9661 67.492C21.6337 67.3584 21.3037 67.22 20.9762 67.0767C20.7525 66.9794 20.5288 66.879 20.3072 66.7754C14.2453 63.9659 9.11296 59.482 5.51502 53.8522C1.91708 48.2224 0.00355867 41.6813 0 35C0 15.6703 15.6703 0 35 0C54.3297 0 70 15.6703 70 35Z" fill="#6C63FF"/>
<path opacity="0.2" d="M28.9256 69.475C28.7154 69.4377 28.5056 69.399 28.2961 69.359C28.1594 65.392 27.6903 57.2498 26.0904 48.7224C25.2154 44.0554 24.0008 39.2714 22.316 34.9948C21.7388 33.515 21.0796 32.0686 20.3413 30.6622C18.639 27.447 16.5742 24.7402 14.0703 22.9063L14.439 22.4031C16.5213 23.9294 18.3928 26.0722 20.0535 28.8315C20.5515 29.6578 21.0299 30.5394 21.4887 31.4761C21.9805 32.4785 22.4496 33.5427 22.8959 34.6686C23.1807 35.3852 23.4558 36.1266 23.7212 36.8929C24.8768 40.2199 25.8592 44.0161 26.6683 48.2813C26.8474 49.2236 27.0179 50.1891 27.1798 51.1776C28.4338 58.8372 28.8117 65.919 28.9256 69.475Z" fill="black"/>
<path opacity="0.2" d="M20.9759 67.0768C20.7522 66.9795 20.5285 66.879 20.3069 66.7755C20.0905 64.4249 19.6929 61.5089 18.966 58.741C18.6476 57.4979 18.2389 56.2796 17.743 55.096C16.9136 53.1545 15.8398 51.5039 14.4512 50.486L14.8198 49.9838C16.2737 51.0483 17.3951 52.7309 18.2618 54.6994C19.2383 56.9175 19.8896 59.499 20.3235 61.9656C20.6456 63.7974 20.8485 65.567 20.9759 67.0768Z" fill="black"/>
<path opacity="0.2" d="M10.5883 22.8919C12.3091 22.8919 13.704 21.4969 13.704 19.7762C13.704 18.0555 12.3091 16.6605 10.5883 16.6605C8.86759 16.6605 7.47266 18.0555 7.47266 19.7762C7.47266 21.4969 8.86759 22.8919 10.5883 22.8919Z" fill="black"/>
<path opacity="0.2" d="M11.5922 49.7124C13.313 49.7124 14.7079 48.3175 14.7079 46.5968C14.7079 44.876 13.313 43.4811 11.5922 43.4811C9.8715 43.4811 8.47656 44.876 8.47656 46.5968C8.47656 48.3175 9.8715 49.7124 11.5922 49.7124Z" fill="black"/>
<path opacity="0.2" d="M22.9589 25.0096C22.2982 28.7371 23.7567 32.1124 23.7567 32.1124C23.7567 32.1124 26.2864 29.4441 26.9471 25.7165C27.6078 21.989 26.1493 18.6138 26.1493 18.6138C26.1493 18.6138 23.6196 21.2821 22.9589 25.0096Z" fill="black"/>
<path opacity="0.2" d="M12.6046 33.8579C16.16 35.1579 19.7326 34.3236 19.7326 34.3236C19.7326 34.3236 17.5409 31.3815 13.9855 30.0814C10.4301 28.7813 6.85742 29.6156 6.85742 29.6156C6.85742 29.6156 9.04918 32.5578 12.6046 33.8579Z" fill="black"/>
<path opacity="0.2" d="M12.0013 57.6084C14.4934 58.5197 17.0011 57.9252 17.0011 57.9252C17.0011 57.9252 15.4683 55.8534 12.9763 54.9421C10.4843 54.0309 7.97656 54.6253 7.97656 54.6253C7.97656 54.6253 9.50928 56.6972 12.0013 57.6084Z" fill="black"/>
<path d="M34.928 42.7507C42.4639 42.7507 48.5729 36.6417 48.5729 29.1059C48.5729 21.5701 42.4639 15.4611 34.928 15.4611C27.3922 15.4611 21.2832 21.5701 21.2832 29.1059C21.2832 36.6417 27.3922 42.7507 34.928 42.7507Z" fill="#FFC4D0"/>
<path d="M29.5996 39.5527C29.5996 39.5527 31.3052 47.6543 31.3052 48.5071C31.3052 49.3599 39.4068 53.1975 39.4068 53.1975L46.6557 51.9183L49.2141 44.2431C49.2141 44.2431 44.9501 37.8471 44.9501 35.2887L29.5996 39.5527Z" fill="#FFC4D0"/>
<path d="M67.1815 48.7826L67.0655 49.0497C63.9094 56.2298 58.4367 62.1442 51.5227 65.847C44.6086 69.5499 36.6526 70.8273 28.9269 69.475C28.7167 69.4377 28.5068 69.3991 28.2973 69.359C26.1324 68.9394 24.0125 68.3142 21.9662 67.492C21.6338 67.3585 21.3039 67.22 20.9763 67.0768C20.7526 66.9795 20.529 66.879 20.3074 66.7755C18.2988 65.8449 16.3831 64.7257 14.5862 63.4329L12.9688 58.741L13.8779 58.0472L15.748 56.6193L17.7435 55.0961L18.2622 54.6995L26.0917 48.7225L26.6695 48.2814L30.739 45.1749L30.7401 45.1739C30.7401 45.1739 35.1409 52.3447 41.5373 50.2126C47.9336 48.0805 47.7938 41.9669 47.7938 41.9669L67.1815 48.7826Z" fill="#2F2E41"/>
<path d="M23.0958 18.1126C23.0958 18.1126 27.428 8.72619 35.7313 10.8923C44.0347 13.0584 48.7279 16.3075 49.0889 19.5566C49.4499 22.8058 48.9084 27.6795 48.9084 27.6795C48.9084 27.6795 48.0058 21.0007 42.2296 22.4448C36.4534 23.8888 27.428 22.8058 27.428 22.8058L25.9839 35.8023C25.9839 35.8023 24.3593 33.4557 22.5543 34.8998C20.7492 36.3439 17.3195 21.0007 23.0958 18.1126Z" fill="#3E2D28"/>
<path d="M21.9671 67.4921C21.6347 67.3585 21.3048 67.2201 20.9772 67.0769C20.7535 66.9795 20.5299 66.8791 20.3083 66.7755C16.9863 65.2351 13.9259 63.1841 11.2383 60.6971C12.1899 59.4007 12.9696 58.7411 12.9696 58.7411H19.3659L20.3248 61.9656L21.9671 67.4921Z" fill="#2F2E41"/>
<path d="M61.5779 48.0804L67.065 49.0497C65.5966 52.3949 63.6134 55.4895 61.1875 58.2211L61.5779 48.0804Z" fill="#2F2E41"/>
</g>
<defs>
<clipPath id="clip0">
<rect width="70" height="70" fill="white"/>
</clipPath>
</defs>
</svg>
