<svg width="441" height="388" viewBox="0 0 441 388" fill="none" xmlns="http://www.w3.org/2000/svg">
<g clip-path="url(#clip0)">
<path d="M322.87 389.337C382.76 389.337 431.311 340.771 431.311 280.861C431.311 220.951 382.76 172.385 322.87 172.385C262.98 172.385 214.429 220.951 214.429 280.861C214.429 340.771 262.98 389.337 322.87 389.337Z" fill="#F2F2F2"/>
<path d="M326.984 404C383.817 404 429.889 395.546 429.889 385.118C429.889 374.689 383.817 366.235 326.984 366.235C270.15 366.235 224.078 374.689 224.078 385.118C224.078 395.546 270.15 404 326.984 404Z" fill="#3F3D56"/>
<path d="M418.387 368.582C418.281 368.408 415.776 364.224 414.908 355.537C414.111 347.567 414.623 334.133 421.588 315.393C434.783 279.892 418.547 251.248 418.381 250.963L419.182 250.498C419.224 250.57 423.414 257.874 425.889 269.503C429.159 284.92 427.968 300.951 422.456 315.716C409.284 351.156 419.077 367.934 419.177 368.099L418.387 368.582Z" fill="#3F3D56"/>
<path d="M413.227 248.878C416.551 248.878 419.245 246.183 419.245 242.859C419.245 239.534 416.551 236.839 413.227 236.839C409.904 236.839 407.21 239.534 407.21 242.859C407.21 246.183 409.904 248.878 413.227 248.878Z" fill="#3F3D56"/>
<path d="M432.205 271.104C435.529 271.104 438.223 268.409 438.223 265.084C438.223 261.76 435.529 259.065 432.205 259.065C428.882 259.065 426.188 261.76 426.188 265.084C426.188 268.409 428.882 271.104 432.205 271.104Z" fill="#3F3D56"/>
<path d="M419.244 285.921C422.568 285.921 425.262 283.226 425.262 279.901C425.262 276.577 422.568 273.882 419.244 273.882C415.921 273.882 413.227 276.577 413.227 279.901C413.227 283.226 415.921 285.921 419.244 285.921Z" fill="#6C63FF"/>
<path d="M434.982 298.423C438.306 298.423 441 295.728 441 292.403C441 289.079 438.306 286.384 434.982 286.384C431.659 286.384 428.965 289.079 428.965 292.403C428.965 295.728 431.659 298.423 434.982 298.423Z" fill="#6C63FF"/>
<path d="M414.616 317.87C417.939 317.87 420.634 315.175 420.634 311.85C420.634 308.526 417.939 305.831 414.616 305.831C411.293 305.831 408.599 308.526 408.599 311.85C408.599 315.175 411.293 317.87 414.616 317.87Z" fill="#3F3D56"/>
<path d="M422.022 368.803C422.022 368.803 416.004 353.986 434.057 342.874L422.022 368.803Z" fill="#3F3D56"/>
<path d="M414.621 368.534C414.621 368.534 411.883 352.778 390.687 352.913L414.621 368.534Z" fill="#3F3D56"/>
<path d="M38.666 211.218L133.656 275.783L142.701 268.809L150.705 269.503L135.483 284.311L38.666 223.4V211.218Z" fill="#3F3D56"/>
<path d="M233.187 181.068L273.4 228.578L265.457 238.323L218.294 185.331L233.187 181.068Z" fill="#2F2E41"/>
<path d="M34.4036 208.173C39.448 208.173 43.5372 203.537 43.5372 197.818C43.5372 192.099 39.448 187.463 34.4036 187.463C29.3593 187.463 25.27 192.099 25.27 197.818C25.27 203.537 29.3593 208.173 34.4036 208.173Z" fill="#6C63FF"/>
<path d="M245.546 177.723C261.873 116.432 239.48 57.249 195.529 45.5334C151.578 33.8178 102.713 74.0063 86.3862 135.297C70.059 196.588 92.4524 255.771 136.403 267.486C180.354 279.202 229.219 239.014 245.546 177.723Z" fill="#3F3D56"/>
<path opacity="0.1" d="M238.823 175.931C253.771 119.819 233.27 65.6365 193.032 54.9106C152.795 44.1847 108.059 80.9775 93.1109 137.09C78.163 193.202 98.6642 247.384 138.901 258.11C179.139 268.836 223.875 232.043 238.823 175.931Z" fill="white"/>
<path d="M148.878 154.571C149.887 154.571 150.705 153.753 150.705 152.744C150.705 151.735 149.887 150.917 148.878 150.917C147.869 150.917 147.051 151.735 147.051 152.744C147.051 153.753 147.869 154.571 148.878 154.571Z" fill="#6C63FF"/>
<path d="M138.527 197.818C139.536 197.818 140.354 197 140.354 195.991C140.354 194.981 139.536 194.163 138.527 194.163C137.518 194.163 136.7 194.981 136.7 195.991C136.7 197 137.518 197.818 138.527 197.818Z" fill="#6C63FF"/>
<path d="M189.675 158.226C190.684 158.226 191.502 157.408 191.502 156.399C191.502 155.39 190.684 154.571 189.675 154.571C188.666 154.571 187.848 155.39 187.848 156.399C187.848 157.408 188.666 158.226 189.675 158.226Z" fill="#6C63FF"/>
<path d="M179.324 202.082C180.333 202.082 181.151 201.264 181.151 200.254C181.151 199.245 180.333 198.427 179.324 198.427C178.315 198.427 177.497 199.245 177.497 200.254C177.497 201.264 178.315 202.082 179.324 202.082Z" fill="#6C63FF"/>
<path d="M41.7103 226.446L35.7186 227.646L35.6212 227.664L21.6164 224.009L17.354 195.991L19.9358 194.784L26.4876 191.727C38.0569 191.727 40.4925 198.427 40.4925 198.427L41.7103 226.446Z" fill="#3F3D56"/>
<path opacity="0.1" d="M35.7186 227.646L35.6212 227.664L21.6164 224.009L17.354 195.991L19.9358 194.785C25.2759 195.491 31.5233 197.008 33.7945 200.254L35.7186 227.646Z" fill="black"/>
<path d="M64.5429 157.922C64.2143 157.922 63.8918 157.833 63.6096 157.664C45.5963 146.928 28.0825 146.928 10.0692 157.664C9.65303 157.911 9.15596 157.983 8.68705 157.863C8.21814 157.744 7.81568 157.443 7.56802 157.028C7.32035 156.612 7.2477 156.115 7.366 155.645C7.48431 155.176 7.78391 154.773 8.19905 154.524C27.2036 143.198 46.4752 143.198 65.4798 154.524C65.8235 154.729 66.0904 155.041 66.2396 155.413C66.3888 155.784 66.412 156.194 66.3056 156.58C66.1992 156.966 65.9691 157.306 65.6507 157.549C65.3322 157.791 64.9431 157.922 64.5429 157.922H64.5429Z" fill="#6C63FF"/>
<path d="M57.5405 173.065C57.2118 173.065 56.8893 172.976 56.6072 172.807C43.1007 164.758 29.9693 164.758 16.4627 172.807C16.0466 173.054 15.5495 173.126 15.0806 173.007C14.6117 172.887 14.2092 172.587 13.9616 172.171C13.7139 171.755 13.6412 171.258 13.7596 170.789C13.8779 170.32 14.1775 169.916 14.5926 169.668C29.1529 160.99 43.9171 160.99 58.4774 169.668C58.8211 169.873 59.088 170.185 59.2372 170.556C59.3864 170.928 59.4096 171.338 59.3032 171.724C59.1968 172.109 58.9667 172.45 58.6482 172.692C58.3298 172.934 57.9406 173.066 57.5405 173.065Z" fill="#6C63FF"/>
<path d="M70.0228 140.867C69.6941 140.867 69.3716 140.778 69.0895 140.609C51.1131 129.895 20.7384 129.895 2.762 140.609C2.5559 140.732 2.32751 140.814 2.08987 140.849C1.85224 140.884 1.61003 140.872 1.37713 140.813C1.14422 140.754 0.925189 140.65 0.73256 140.507C0.539931 140.363 0.37749 140.183 0.254538 139.976C0.131585 139.77 0.0505333 139.541 0.0160231 139.304C-0.018487 139.066 -0.00578059 138.824 0.0534186 138.591C0.112618 138.358 0.217148 138.139 0.361021 137.947C0.504894 137.754 0.685284 137.592 0.891873 137.469C19.8822 126.152 51.9694 126.152 70.9597 137.469C71.3034 137.674 71.5703 137.986 71.7195 138.358C71.8687 138.729 71.8919 139.139 71.7855 139.525C71.6791 139.911 71.449 140.251 71.1305 140.494C70.8121 140.736 70.4229 140.867 70.0228 140.867H70.0228Z" fill="#6C63FF"/>
<path d="M370.056 349.066L373.913 364.498L356.943 369.128L355.4 352.924L370.056 349.066Z" fill="#FBBEBE"/>
<path d="M308.347 368.356V383.017L291.377 386.103L288.292 378.387L294.462 365.27L308.347 368.356Z" fill="#FBBEBE"/>
<path d="M342.287 208.631L339.973 229.465L341.516 269.589C341.516 269.589 343.83 269.589 343.83 271.904C343.83 274.219 341.516 273.447 343.83 274.99C345.071 275.834 346.359 276.607 347.687 277.305L372.371 352.152C372.371 352.152 366.2 359.868 354.629 357.553L352.315 349.837C352.315 349.837 347.687 345.208 347.687 342.893C347.687 340.578 349.23 339.806 347.687 337.491C346.144 335.176 323.003 288.108 323.003 288.108L312.204 268.818L309.119 295.052C309.119 295.052 315.29 328.232 313.747 343.664C312.204 359.097 309.119 375.301 309.119 375.301L290.606 372.214C290.522 369.724 289.718 367.312 288.292 365.27C285.978 362.183 282.892 362.955 285.978 360.64C289.063 358.325 292.92 360.64 289.834 357.553C286.749 354.467 286.749 351.38 286.749 351.38V349.066L282.121 289.651L273.636 211.718L342.287 208.631Z" fill="#2F2E41"/>
<path d="M289.835 68.1974C301.337 68.1974 310.662 58.8699 310.662 47.3638C310.662 35.8577 301.337 26.5302 289.835 26.5302C278.332 26.5302 269.008 35.8577 269.008 47.3638C269.008 58.8699 278.332 68.1974 289.835 68.1974Z" fill="#FBBEBE"/>
<path d="M307.962 47.7498L316.447 68.5834L296.391 83.244L284.049 61.6387L307.962 47.7498Z" fill="#FBBEBE"/>
<path d="M309.118 63.5677L316.832 59.7096L321.46 70.5122C321.46 70.5122 351.544 79.7716 349.229 122.211C346.915 164.649 341.516 180.853 341.516 180.853C341.516 180.853 354.629 208.632 346.915 211.718C339.202 214.804 273.636 226.379 272.093 215.576C270.55 204.773 277.492 141.501 277.492 141.501C277.492 141.501 275.178 95.9756 294.462 86.7162L290.606 78.2284L309.118 63.5677Z" fill="#D0CDE1"/>
<path d="M266.693 213.261C266.693 213.261 248.952 231.78 258.98 236.41C269.007 241.039 275.178 215.576 275.178 215.576L266.693 213.261Z" fill="#FBBEBE"/>
<path d="M302.948 379.159L311.433 376.072C311.433 376.072 320.689 396.906 312.975 396.906H292.92C292.92 396.906 281.349 393.048 275.179 393.048C269.008 393.048 257.437 381.473 265.922 376.072C274.407 370.671 285.206 372.214 285.206 372.214L288.292 365.27L292.149 376.072C292.149 376.072 296.777 383.788 302.948 379.159Z" fill="#2F2E41"/>
<path d="M365.428 362.183C365.428 362.183 370.259 359.134 372.857 360.273C375.456 361.412 376.999 373.757 376.999 373.757C376.999 373.757 384.713 383.017 367.742 384.56C350.772 386.103 346.916 383.017 345.373 378.387C343.83 373.757 346.916 369.128 346.916 369.128L351.544 367.584C351.544 367.584 356.943 363.726 355.401 362.183C353.858 360.64 355.401 357.553 355.401 357.553C355.401 357.553 360.8 368.356 365.428 362.183Z" fill="#2F2E41"/>
<path d="M296.958 47.0299C296.873 46.3557 296.722 45.6915 296.505 45.0474C295.386 42.6982 291.018 43.3839 290.24 40.9007C290.088 40.4147 290.12 39.886 289.97 39.3991C289.59 38.1574 288.13 37.5416 286.833 37.6012C285.536 37.6608 284.321 38.2152 283.072 38.5698C280.021 39.4361 276.775 39.1054 273.621 38.7677C272.226 38.6184 270.78 38.4518 269.585 37.7168C268.391 36.9818 267.53 35.5022 267.965 34.1686C268.382 32.89 269.781 32.1874 270.41 30.9986C271.408 29.1111 270.188 26.6732 270.998 24.6973C272.297 21.5277 277.216 22.1641 279.715 19.8213C280.321 19.2527 280.758 18.5257 281.339 17.9313C283.064 16.1678 285.788 15.8264 288.243 16.0697C290.697 16.313 293.109 17.0339 295.575 16.9903C297.913 16.9489 300.365 16.2365 302.52 17.1465C303.827 17.6985 304.826 18.7784 305.782 19.8273L311.309 25.8911C312.068 26.607 312.652 27.4876 313.017 28.4652C313.35 29.627 313.044 30.8744 313.186 32.0746C313.509 34.8118 316.071 36.8792 316.417 39.6137C316.486 40.4617 316.445 41.3152 316.295 42.1527L315.521 47.8629C315.482 48.4198 315.333 48.9635 315.084 49.4631C314.859 49.8478 314.519 50.1517 314.265 50.5185C313.55 51.554 313.615 52.9228 313.259 54.1304C312.904 55.3378 311.628 56.5328 310.513 55.9508C309.785 55.5711 309.303 52.4313 308.419 51.6161C307.188 50.4807 306.545 50.6206 305.025 50.6398C301.98 50.6783 297.932 50.9394 296.958 47.0299Z" fill="#2F2E41"/>
<path d="M300.633 92.1176C300.633 92.1176 323.774 101.377 316.832 122.211C309.89 143.044 291.377 207.088 291.377 207.088L280.578 212.49L277.492 220.977L262.836 215.576L265.151 204.002C265.151 204.002 265.922 203.23 265.922 200.144C265.922 197.057 262.836 196.286 266.693 196.286C270.55 196.286 270.55 192.428 270.55 192.428L284.435 106.007C284.435 106.007 284.435 91.3459 300.633 92.1176Z" fill="#D0CDE1"/>
<path opacity="0.1" d="M317.99 126.454L294.077 208.246L284.049 218.277L289.835 207.86L317.99 126.454Z" fill="black"/>
</g>
<defs>
<clipPath id="clip0">
<rect width="441" height="388" fill="white"/>
</clipPath>
</defs>
</svg>
