<svg width="146" height="146" viewBox="0 0 146 146" fill="none" xmlns="http://www.w3.org/2000/svg">
<g clip-path="url(#clip0)">
<path d="M146 73C146.013 82.8819 144.013 92.663 140.121 101.746L139.879 102.304C133.296 117.279 121.882 129.615 107.461 137.338C93.0406 145.061 76.4466 147.725 60.333 144.905C59.8946 144.827 59.4569 144.747 59.0199 144.663C54.5045 143.788 50.0829 142.484 45.8151 140.769C45.1218 140.49 44.4335 140.202 43.7503 139.903C43.2838 139.7 42.8173 139.49 42.3551 139.274C29.7117 133.415 19.007 124.062 11.5028 112.32C3.99848 100.578 0.00742237 86.9353 0 73C0 32.6837 32.6837 0 73 0C113.316 0 146 32.6837 146 73Z" fill="#6C63FF"/>
<path opacity="0.2" d="M60.3326 144.905C59.8942 144.827 59.4565 144.747 59.0195 144.663C58.7344 136.389 57.756 119.407 54.4192 101.621C52.5942 91.8871 50.0608 81.909 46.5468 72.9892C45.343 69.9028 43.968 66.886 42.4282 63.9527C38.8775 57.2466 34.5709 51.601 29.3486 47.7761L30.1175 46.7264C34.4608 49.9099 38.3642 54.3792 41.8278 60.1342C42.8666 61.8577 43.8644 63.6964 44.8212 65.6503C45.8471 67.7409 46.8255 69.9604 47.7563 72.3088C48.3502 73.8034 48.924 75.3498 49.4776 76.948C51.8879 83.8873 53.9368 91.805 55.6243 100.701C55.998 102.666 56.3536 104.68 56.6913 106.742C59.3067 122.718 60.095 137.488 60.3326 144.905Z" fill="black"/>
<path opacity="0.2" d="M43.7503 139.903C43.2838 139.7 42.8173 139.491 42.3551 139.275C41.9037 134.372 41.0743 128.29 39.5582 122.517C38.8941 119.924 38.0416 117.383 37.0075 114.915C35.2775 110.865 33.0378 107.422 30.1416 105.299L30.9105 104.252C33.9428 106.472 36.2818 109.982 38.0895 114.087C40.1262 118.714 41.4847 124.098 42.3896 129.242C43.0613 133.063 43.4846 136.754 43.7503 139.903Z" fill="black"/>
<path opacity="0.2" d="M22.0863 47.7459C25.6753 47.7459 28.5847 44.8364 28.5847 41.2474C28.5847 37.6585 25.6753 34.749 22.0863 34.749C18.4973 34.749 15.5879 37.6585 15.5879 41.2474C15.5879 44.8364 18.4973 47.7459 22.0863 47.7459Z" fill="black"/>
<path opacity="0.2" d="M24.1781 103.686C27.7671 103.686 30.6765 100.776 30.6765 97.1874C30.6765 93.5984 27.7671 90.689 24.1781 90.689C20.5891 90.689 17.6797 93.5984 17.6797 97.1874C17.6797 100.776 20.5891 103.686 24.1781 103.686Z" fill="black"/>
<path opacity="0.2" d="M47.8856 52.1629C46.5075 59.9375 49.5496 66.9772 49.5496 66.9772C49.5496 66.9772 54.8258 61.4119 56.2039 53.6373C57.5819 45.8627 54.5399 38.823 54.5399 38.823C54.5399 38.823 49.2636 44.3883 47.8856 52.1629Z" fill="black"/>
<path opacity="0.2" d="M26.2877 70.6181C33.7032 73.3296 41.1548 71.5895 41.1548 71.5895C41.1548 71.5895 36.5834 65.453 29.1679 62.7414C21.7524 60.0298 14.3008 61.77 14.3008 61.77C14.3008 61.77 18.8722 67.9065 26.2877 70.6181Z" fill="black"/>
<path opacity="0.2" d="M25.0312 120.155C30.2289 122.055 35.4592 120.815 35.4592 120.815C35.4592 120.815 32.2624 116.494 27.0647 114.594C21.867 112.693 16.6367 113.933 16.6367 113.933C16.6367 113.933 19.8335 118.254 25.0312 120.155Z" fill="black"/>
<path d="M72.8498 89.1657C88.5674 89.1657 101.309 76.424 101.309 60.7064C101.309 44.9888 88.5674 32.2472 72.8498 32.2472C57.1323 32.2472 44.3906 44.9888 44.3906 60.7064C44.3906 76.424 57.1323 89.1657 72.8498 89.1657Z" fill="#D0CDE1"/>
<path d="M61.7334 82.4954C61.7334 82.4954 65.2908 99.3931 65.2908 101.172C65.2908 102.95 82.1885 110.955 82.1885 110.955L97.3074 108.287L102.644 92.2783C102.644 92.2783 93.75 78.938 93.75 73.6019L61.7334 82.4954Z" fill="#D0CDE1"/>
<path d="M140.121 101.746L139.879 102.304C133.296 117.279 121.882 129.615 107.461 137.338C93.0405 145.061 76.4465 147.725 60.3329 144.905C59.8945 144.827 59.4568 144.747 59.0198 144.663C54.5044 143.788 50.0828 142.484 45.815 140.769C45.1217 140.49 44.4335 140.202 43.7503 139.903C43.2838 139.7 42.8173 139.49 42.3551 139.274C38.1657 137.334 34.1702 134.999 30.4224 132.303L27.0488 122.517L28.9451 121.07L32.8456 118.091L37.0075 114.914L38.0895 114.087L54.4195 101.621L55.6247 100.701L64.1125 94.2218L64.1147 94.2197C64.1147 94.2197 73.2937 109.176 86.6345 104.729C99.9754 100.282 99.6838 87.5309 99.6838 87.5309L140.121 101.746Z" fill="#2F2E41"/>
<path d="M48.1707 37.7777C48.1707 37.7777 57.2064 18.2004 74.5248 22.7183C91.8433 27.2361 101.632 34.0129 102.385 40.7896C103.138 47.5664 102.008 57.7316 102.008 57.7316C102.008 57.7316 100.126 43.8015 88.0784 46.8134C76.0308 49.8254 57.2064 47.5664 57.2064 47.5664L54.1945 74.6735C54.1945 74.6735 50.8061 69.7792 47.0413 72.7911C43.2764 75.803 36.1231 43.8015 48.1707 37.7777Z" fill="#2F2E41"/>
<path d="M45.8158 140.769C45.1225 140.49 44.4343 140.202 43.7511 139.903C43.2845 139.7 42.818 139.49 42.3558 139.274C35.4271 136.062 29.0441 131.784 23.4385 126.597C25.4233 123.893 27.0496 122.517 27.0496 122.517H40.3905L42.3904 129.242L45.8158 140.769Z" fill="#2F2E41"/>
<path d="M128.435 100.282L139.88 102.304C136.817 109.281 132.681 115.735 127.621 121.433L128.435 100.282Z" fill="#2F2E41"/>
</g>
<defs>
<clipPath id="clip0">
<rect width="146" height="146" fill="white"/>
</clipPath>
</defs>
</svg>
