<svg viewBox="0 0 301 160" fill="none" xmlns="http://www.w3.org/2000/svg">
<title id="work-image">Man at computer screen</title>
<path opacity="0.1" d="M277.921 126.521C277.585 127.243 277.251 127.955 276.918 128.658C276.397 129.749 275.884 130.819 275.377 131.868C275.151 132.333 274.926 132.789 274.706 133.245C272.22 138.318 269.899 142.805 267.928 146.495C266.139 149.838 263.483 152.639 260.238 154.605C256.993 156.571 253.278 157.629 249.483 157.668L205.648 158.145H205.185L201.428 158.185L198.213 158.22L188.357 158.326H187.958L182.94 158.381H182.786L151.857 158.716L124.25 159.005L121.038 159.04L101.093 159.256H101.07L88.135 159.395H87.9962L47.0948 159.836L34.859 159.969C32.2479 159.999 29.6478 159.627 27.1499 158.866C22.8031 157.555 18.8966 155.084 15.8507 151.721C10.5956 145.938 6.76565 139.19 4.19305 131.868C3.82113 130.811 3.47426 129.741 3.15245 128.658C-5.75337 98.5874 5.10358 59.7921 24.6438 33.8304C25.4628 32.7448 26.2953 31.6861 27.1412 30.6544L27.1615 30.6313C33.1709 23.2632 39.9088 17.1077 47.0861 12.7307C59.8046 4.96124 73.8961 2.77274 87.7563 9.29493C99.4833 14.8153 110.433 17.4108 121.047 18.1153C122.119 18.1846 123.192 18.2366 124.258 18.2683C148.606 19.0335 171.424 10.2708 198.219 4.61478C199.286 4.38957 200.355 4.16726 201.433 3.95649C220.549 0.156938 241.754 -1.84678 266.971 2.36565C269.591 2.79315 272.176 3.41071 274.706 4.21345C275.818 4.57147 276.89 4.95643 277.921 5.36834C289.957 10.2593 296.521 19.2962 299.311 30.6198C299.575 31.6707 299.803 32.74 299.996 33.8275C304.942 61.0653 290.457 99.7019 277.921 126.521Z" fill="#6C63FF"/>
<path d="M66.6561 76.7505H61.1641V93.3981H66.6561V76.7505Z" fill="#3F3D56"/>
<path d="M214.461 75.8843H208.969V93.4962H214.461V75.8843Z" fill="#3F3D56"/>
<path d="M249.485 154.076V157.829L205.572 158.233L205.104 158.242L188.414 158.395L188.015 158.401L182.942 158.444H182.792L151.868 158.73L101.107 159.2H101.064L88.1574 159.322L88.0187 159.324L30.6699 159.85V155.519L44.1544 147.435L71.2101 147.21L71.7882 147.207L71.979 147.204L72.5571 147.195L85.5473 147.089L86.1282 147.086L86.3132 147.083L86.8914 147.08L91.0567 147.045L91.1665 147.042L101.442 146.956H101.526L181.71 146.28L183.673 146.266H183.87L185.367 146.251L196.25 146.162L196.828 146.153L197.363 146.147H197.64L201.025 146.121L201.696 146.113L202.595 146.107L205.413 146.081L209.885 146.043L210.463 146.038L211.469 146.032H211.657L233.252 145.847L249.485 154.076Z" fill="#65617D"/>
<path opacity="0.2" d="M249.485 154.076V157.829L205.572 158.233L205.104 158.242L188.414 158.395L188.015 158.401L182.942 158.444H182.792L151.868 158.73L101.107 159.2H101.064L88.1574 159.322L88.0187 159.324L30.6699 159.85V155.519L44.1544 147.435L71.2101 147.21L71.7882 147.207L71.979 147.204L72.5571 147.195L85.5473 147.089L86.1282 147.086L86.3132 147.083L86.8914 147.08L91.0567 147.045L91.1665 147.042L101.442 146.956H101.526L181.71 146.28L183.673 146.266H183.87L185.367 146.251L196.25 146.162L196.828 146.153L197.363 146.147H197.64L201.025 146.121L201.696 146.113L202.595 146.107L205.413 146.081L209.885 146.043L210.463 146.038L211.469 146.032H211.657L233.252 145.847L249.485 154.076Z" fill="black"/>
<path d="M85.5899 139.642V146.713C85.59 147.048 85.495 147.376 85.3159 147.659C85.1369 147.942 84.881 148.169 84.5782 148.313C84.3526 148.422 84.1061 148.481 83.8555 148.486L73.7675 148.7C73.498 148.706 73.2308 148.65 72.987 148.535C72.6788 148.394 72.4177 148.167 72.2347 147.882C72.0518 147.597 71.9547 147.266 71.9551 146.927V139.642H85.5899Z" fill="#3F3D56"/>
<path opacity="0.1" d="M85.5899 139.642V146.713C85.59 147.048 85.495 147.376 85.3159 147.659C85.1369 147.942 84.881 148.169 84.5782 148.313C84.3526 148.422 84.1061 148.481 83.8555 148.486L73.7675 148.7C73.498 148.706 73.2308 148.65 72.987 148.535C72.6788 148.394 72.4177 148.167 72.2347 147.882C72.0518 147.597 71.9547 147.266 71.9551 146.927V139.642H85.5899Z" fill="black"/>
<path d="M86.168 139.642V146.713C86.1681 147.048 86.0732 147.376 85.8941 147.659C85.715 147.942 85.4592 148.169 85.1563 148.313C84.9308 148.422 84.6842 148.481 84.4337 148.486L74.3456 148.7C74.0762 148.706 73.809 148.65 73.5651 148.535C73.2569 148.394 72.9958 148.167 72.8129 147.882C72.6299 147.597 72.5328 147.266 72.5332 146.927V139.642H86.168Z" fill="#3F3D56"/>
<path d="M210.463 139.642H196.828V148.737H210.463V139.642Z" fill="#3F3D56"/>
<path opacity="0.1" d="M210.463 139.642H196.828V148.737H210.463V139.642Z" fill="black"/>
<path d="M209.883 139.642H196.248V148.737H209.883V139.642Z" fill="#3F3D56"/>
<path opacity="0.1" d="M66.6561 76.7476V78.4019L61.1641 78.2605V76.7476H66.6561Z" fill="black"/>
<path d="M102.805 30.1424L96.2059 77.4924C96.164 77.7949 96.0121 78.0713 95.779 78.2689C95.546 78.4665 95.2483 78.5714 94.9427 78.5636L42.1032 77.1951L41.1002 77.1691C40.9256 77.1649 40.7538 77.1241 40.596 77.0492C40.4382 76.9742 40.298 76.867 40.1846 76.7343C40.0711 76.6016 39.9869 76.4465 39.9375 76.2792C39.8881 76.1118 39.8745 75.9359 39.8977 75.763L47.3062 26.1956C47.354 25.8885 47.5153 25.6105 47.7583 25.4165C48.0012 25.2225 48.3082 25.1265 48.6186 25.1475L101.649 28.7334C101.82 28.7433 101.987 28.7885 102.14 28.8662C102.293 28.9439 102.427 29.0524 102.536 29.1847C102.645 29.3171 102.725 29.4706 102.771 29.6354C102.817 29.8002 102.829 29.9728 102.805 30.1424V30.1424Z" fill="#65617D"/>
<path d="M50.8531 28.6294L45.2656 72.3214L93.8271 73.8603L99.799 31.7071L50.8531 28.6294Z" fill="#6C63FF"/>
<path d="M168.792 27.9539H112.713C111.862 27.9539 111.172 28.6428 111.172 29.4927V76.4588C111.172 77.3087 111.862 77.9977 112.713 77.9977H168.792C169.643 77.9977 170.333 77.3087 170.333 76.4588V29.4927C170.333 28.6428 169.643 27.9539 168.792 27.9539Z" fill="#65617D"/>
<path d="M167.727 31.3232H113.963V72.9942H167.727V31.3232Z" fill="#6C63FF"/>
<path opacity="0.1" d="M214.461 75.8813V76.9756L208.969 77.0882V75.8813H214.461Z" fill="black"/>
<path d="M239.239 74.9575C239.247 75.0772 239.231 75.1971 239.191 75.3102C239.151 75.4234 239.089 75.5273 239.008 75.6157C238.927 75.7042 238.829 75.7754 238.72 75.825C238.61 75.8746 238.492 75.9017 238.372 75.9046L184.261 77.0219C184.036 77.0265 183.818 76.9461 183.65 76.7967C183.482 76.6472 183.377 76.4399 183.356 76.2164L178.705 27.9193C178.694 27.7994 178.707 27.6785 178.743 27.5639C178.78 27.4492 178.84 27.3432 178.919 27.2522C178.998 27.1613 179.094 27.0872 179.203 27.0346C179.311 26.982 179.429 26.952 179.549 26.9463L233.25 24.2785L233.828 24.2496C234.058 24.2375 234.284 24.3151 234.457 24.4659C234.631 24.6168 234.739 24.8291 234.759 25.0581L239.239 74.9575Z" fill="#65617D"/>
<path d="M181.797 29.7844L230.841 27.3765L234.983 71.2619L186.326 72.4168L181.797 29.7844Z" fill="#6C63FF"/>
<path opacity="0.1" d="M239.241 74.9575C239.249 75.0772 239.233 75.1971 239.193 75.3102C239.153 75.4234 239.091 75.5273 239.01 75.6157C238.929 75.7042 238.831 75.7754 238.721 75.825C238.612 75.8746 238.494 75.9017 238.374 75.9046L233.252 24.2785L233.83 24.2496C234.06 24.2375 234.285 24.3151 234.459 24.4659C234.633 24.6168 234.741 24.8291 234.761 25.0581L239.241 74.9575Z" fill="black"/>
<path opacity="0.1" d="M48.6272 25.1447L42.1032 77.1951L41.1002 77.1691C40.9256 77.165 40.7538 77.1241 40.596 77.0492C40.4382 76.9743 40.298 76.867 40.1846 76.7343C40.0711 76.6017 39.9869 76.4466 39.9375 76.2792C39.8881 76.1119 39.8745 75.936 39.8977 75.7631L47.3062 26.1956C47.3534 25.8865 47.5157 25.6065 47.7606 25.4116C48.0055 25.2168 48.315 25.1215 48.6272 25.1447V25.1447Z" fill="black"/>
<path opacity="0.1" d="M66.6561 88.4667H61.1641V93.398H66.6561V88.4667Z" fill="black"/>
<path opacity="0.1" d="M86.168 139.64V141.074L72.5332 141.438V139.64H86.168Z" fill="black"/>
<path d="M110.231 90.1846V138.747C110.228 139.044 110.11 139.327 109.903 139.54C109.696 139.752 109.415 139.877 109.118 139.888L53.7207 141.36H53.7062C53.4046 141.357 53.1163 141.235 52.903 141.022C52.6897 140.809 52.5682 140.521 52.5645 140.22V90.1846C52.5682 89.8833 52.6897 89.5954 52.903 89.3824C53.1163 89.1693 53.4046 89.0479 53.7062 89.0442H109.089C109.391 89.0479 109.679 89.1693 109.893 89.3824C110.106 89.5954 110.227 89.8833 110.231 90.1846V90.1846Z" fill="#65617D"/>
<path opacity="0.1" d="M53.7207 89.0442V141.36H53.7062C53.4046 141.357 53.1163 141.235 52.903 141.022C52.6897 140.809 52.5682 140.521 52.5645 140.22V90.1846C52.5682 89.8833 52.6897 89.5954 52.903 89.3824C53.1163 89.1693 53.4046 89.0479 53.7062 89.0442H53.7207Z" fill="black"/>
<path d="M56.25 92.145H107.557V134.948L56.25 136.103V92.145Z" fill="#D4DFEC"/>
<path opacity="0.1" d="M214.461 88.4667H208.969V93.4962H214.461V88.4667Z" fill="black"/>
<path opacity="0.1" d="M209.883 139.64V141.49L196.248 141.126V139.64H209.883Z" fill="black"/>
<path d="M227.878 90.1846V140.22C227.874 140.524 227.75 140.814 227.534 141.027C227.317 141.241 227.025 141.36 226.721 141.36V141.36L171.312 139.888C171.015 139.877 170.735 139.752 170.527 139.54C170.32 139.327 170.203 139.044 170.199 138.747V90.1846C170.203 89.8833 170.324 89.5954 170.538 89.3824C170.751 89.1693 171.039 89.0479 171.341 89.0442H226.724C227.028 89.0449 227.319 89.165 227.535 89.3783C227.751 89.5917 227.874 89.8813 227.878 90.1846V90.1846Z" fill="#65617D"/>
<path opacity="0.1" d="M227.877 90.1846V140.22C227.873 140.524 227.75 140.814 227.533 141.027C227.317 141.241 227.025 141.36 226.721 141.36V141.36V89.0442C227.025 89.0442 227.317 89.1639 227.533 89.3773C227.75 89.5908 227.873 89.8808 227.877 90.1846Z" fill="black"/>
<path d="M224.192 92.145H172.885V134.948L224.192 136.103V92.145Z" fill="#D4DFEC"/>
<path d="M168.766 90.1846V138.747C168.763 139.044 168.645 139.327 168.438 139.54C168.231 139.752 167.95 139.877 167.653 139.888L112.256 141.36C111.952 141.36 111.66 141.241 111.443 141.027C111.227 140.814 111.103 140.524 111.1 140.22V90.1846C111.103 89.8833 111.225 89.5954 111.438 89.3824C111.651 89.1693 111.94 89.0479 112.241 89.0442H167.625C167.926 89.0479 168.214 89.1693 168.428 89.3824C168.641 89.5954 168.763 89.8833 168.766 90.1846V90.1846Z" fill="#65617D"/>
<path d="M114.785 92.145H166.093V134.948L114.785 136.103V92.145Z" fill="#D4DFEC"/>
<path opacity="0.1" d="M249.485 154.076V157.829L205.572 158.233L205.104 158.242L188.414 158.395L188.015 158.401L182.942 158.444H182.792L151.868 158.73L101.107 159.2H101.064L88.1574 159.322L88.0187 159.325L30.6699 159.85V155.519L89.2067 155.135H89.3454L101.194 155.054H101.249L183.075 154.514H183.159L183.208 154.512H183.344L184.728 154.503H185.15L206.682 154.359L207.954 154.353L208.237 154.35L249.485 154.076Z" fill="black"/>
<path d="M140.845 93.3981C149.039 93.3981 155.682 86.7629 155.682 78.5781C155.682 70.3932 149.039 63.7581 140.845 63.7581C132.651 63.7581 126.008 70.3932 126.008 78.5781C126.008 86.7629 132.651 93.3981 140.845 93.3981Z" fill="#FBBEBE"/>
<path d="M155.686 108.894C155.686 108.894 126.925 112.358 129.671 108.894C130.666 107.641 130.94 103.928 130.885 99.6979C130.868 98.4131 130.822 97.0821 130.755 95.7569C130.437 89.4051 129.671 83.1976 129.671 83.1976C129.671 83.1976 154.819 71.3601 151.928 80.7435C150.772 84.5344 151.151 89.8584 152.03 94.8561C152.287 96.3141 152.585 97.7433 152.897 99.1003C153.659 102.41 154.59 105.679 155.686 108.894V108.894Z" fill="#FBBEBE"/>
<path opacity="0.1" d="M155.686 108.894C155.686 108.894 126.925 112.358 129.671 108.894C130.666 107.641 130.94 103.928 130.885 99.698C135.27 97.827 140.849 99.2216 140.849 99.2216C146.723 98.0523 150.489 98.2804 152.897 99.1003C153.659 102.41 154.59 105.679 155.686 108.894V108.894Z" fill="black"/>
<path d="M101.095 159.527V159.284L151.859 158.733L182.788 158.444H182.875L182.843 158.871L182.886 158.444H182.941V158.395L183.337 154.511L183.487 153.042L183.534 152.583L183.574 152.199L185.36 146.248L187.147 140.306L188.65 135.303L190.945 127.658C190.945 127.658 189.644 124.626 188.922 123.76C188.199 122.894 187.476 116.975 187.476 116.975C187.476 116.975 181.308 111.105 178.611 110.43C177.481 110.141 175.249 109.757 172.879 109.275C171.992 109.096 171.081 108.905 170.205 108.697C169.711 108.585 169.225 108.466 168.76 108.348C167.854 108.122 166.962 107.846 166.086 107.522C165.627 107.356 165.19 107.134 164.785 106.861C162.661 105.305 157.336 105.129 157.131 105.129C157.131 105.122 157.131 105.115 157.131 105.109V105.083C157.139 104.961 157.139 104.84 157.131 104.719C157.131 104.603 157.131 104.468 157.105 104.315C157.105 104.268 157.105 104.219 157.085 104.17C157.071 104.066 157.053 103.957 157.027 103.841C157.018 103.79 157.007 103.738 156.992 103.688C156.909 103.34 156.788 103.002 156.631 102.68C156.611 102.634 156.585 102.585 156.562 102.539C156.42 102.272 156.256 102.018 156.07 101.78C156.033 101.731 155.992 101.679 155.949 101.629C155.712 101.351 155.449 101.095 155.163 100.867C155.085 100.807 155.004 100.743 154.92 100.685C154.873 100.647 154.824 100.613 154.773 100.581L154.515 100.414L154.275 100.275C154.064 100.16 153.842 100.047 153.599 99.9405C153.524 99.9058 153.443 99.8741 153.362 99.8423C153.281 99.8106 153.154 99.7615 153.047 99.7211H153.03L152.813 99.6344C152.648 99.5796 152.48 99.5305 152.304 99.4814L152.035 99.4121L151.746 99.3457L151.457 99.2851C151.168 99.2273 150.859 99.1754 150.535 99.135L150.205 99.0945L149.867 99.0599L149.517 99.031L149.02 99.0021L148.442 98.9819C145.893 98.9817 143.35 99.2517 140.857 99.7875C139.126 99.4026 137.352 99.2396 135.579 99.3024H135.328L135.039 99.3197H134.854L134.481 99.3544C134.356 99.3544 134.229 99.3804 134.105 99.3977C133.981 99.415 133.851 99.4294 133.726 99.4497L133.536 99.4814C133.348 99.5132 133.157 99.5478 132.957 99.5883C132.894 99.5998 132.83 99.6142 132.767 99.6316C132.515 99.6864 132.264 99.7528 132.015 99.8279C131.891 99.8625 131.767 99.903 131.642 99.9463C131.579 99.9636 131.518 99.9867 131.457 100.01L131.272 100.076L131.09 100.148L130.873 100.235C130.764 100.281 130.657 100.33 130.55 100.382C130.489 100.408 130.428 100.437 130.37 100.469C130.313 100.501 130.252 100.527 130.197 100.558C129.543 100.896 128.939 101.321 128.402 101.823L128.254 101.964L128.11 102.112C128.061 102.161 128.015 102.213 127.968 102.265C127.78 102.47 127.604 102.687 127.442 102.914C127.396 102.975 127.353 103.036 127.309 103.099C127.126 103.369 126.96 103.651 126.812 103.942C126.775 104.011 126.74 104.084 126.705 104.153C126.469 104.641 126.276 105.148 126.127 105.669C126.073 105.861 126.024 106.054 125.98 106.246C125.98 106.246 119.86 108.943 114.784 110.895C113.435 111.414 112.163 111.885 111.099 112.24C110.79 112.344 110.501 112.439 110.232 112.529C109.649 112.739 109.042 112.879 108.425 112.944C108.135 112.949 107.845 112.976 107.558 113.025C105.225 113.404 101.228 115.046 100.791 116.695C100.756 116.827 100.746 116.964 100.762 117.099C100.762 117.099 100.762 117.119 100.762 117.131C101.051 119.152 99.028 118.863 99.028 118.863C99.028 118.863 98.3054 124.205 97.2937 125.648C96.5624 126.688 96.0623 129.006 95.9987 130.756C95.9624 131.301 96.0052 131.848 96.1259 132.381C96.1259 132.396 96.1259 132.41 96.1259 132.421C96.2415 132.808 95.964 133.865 95.4929 135.219C94.9813 136.706 94.2355 138.554 93.5186 140.298C92.4376 142.931 91.4201 145.322 91.3565 145.847C91.3305 146.081 91.2553 146.499 91.1513 147.039C90.7292 149.239 89.7927 153.429 89.3302 155.124C88.9862 156.388 88.4862 158.12 88.1422 159.31C88.1422 159.345 88.122 159.379 88.1133 159.411L101.072 159.284V159.527H101.112H101.095Z" fill="#6C63FF"/>
<path opacity="0.1" d="M105.824 125.495C105.824 125.495 122.3 134.012 128.226 133.002L105.824 125.495Z" fill="black"/>
<path opacity="0.1" d="M139.354 122.03C139.354 122.03 155.396 127.227 160.744 127.949C166.091 128.671 139.354 122.03 139.354 122.03Z" fill="black"/>
<path opacity="0.1" d="M157.147 105.308C148.764 106.85 132.982 106.518 126.16 106.284C128.66 97.3334 140.853 100.376 140.853 100.376C155.945 97.368 157.101 103.61 157.147 105.308Z" fill="black"/>
<path d="M157.147 104.73C148.764 106.272 132.982 105.94 126.16 105.706C128.66 96.7558 140.853 99.7989 140.853 99.7989C155.945 96.7905 157.101 103.033 157.147 104.73Z" fill="#6C63FF"/>
<path d="M201.646 144.19C201.646 144.19 211.521 142.674 211.714 147.005C211.908 151.336 206.679 154.361 206.679 154.361L201.646 144.19Z" fill="#FBBEBE"/>
<path opacity="0.1" d="M152.03 94.8561C151.605 95.0457 151.171 95.2134 150.729 95.3585C147.613 96.4325 144.471 97.5152 141.191 97.9079C137.91 98.3005 134.467 97.9541 131.605 96.3199C131.305 96.1504 131.015 95.9624 130.738 95.7569C130.42 89.4051 129.654 83.1976 129.654 83.1976C129.654 83.1976 154.802 71.3601 151.912 80.7435C150.761 84.5344 151.151 89.8584 152.03 94.8561Z" fill="black"/>
<path d="M136.776 55.4141C136.363 55.5229 135.931 55.5339 135.514 55.4462C135.096 55.3584 134.705 55.1744 134.371 54.9088L134.972 55.7432C134.618 55.7841 134.259 55.7471 133.921 55.6349C133.582 55.5226 133.272 55.3379 133.013 55.0936C132.958 55.8405 132.989 56.5913 133.105 57.3312C132.11 57.3791 131.131 57.0721 130.342 56.465C130.326 56.7255 130.391 56.9844 130.528 57.2069C130.664 57.4294 130.865 57.6048 131.105 57.7094C130.105 57.5901 129.097 57.8382 128.267 58.4071C127.437 58.9761 126.843 59.8272 126.595 60.8016L128.104 60.9402C126.919 61.1931 125.854 61.8418 125.087 62.7793C124.624 63.3568 124.271 64.0959 124.474 64.8004C124.676 65.5048 125.653 65.9552 126.185 65.4529C125.428 66.3548 124.879 67.4112 124.574 68.5478C124.269 69.6845 124.217 70.8739 124.422 72.0328C124.559 72.5266 124.604 73.0414 124.555 73.5515C124.459 74.0278 124.159 74.4407 124.008 74.9056C123.719 75.7486 123.994 76.6639 124.251 77.504L125.607 81.9561C126.098 83.5643 126.587 85.1753 127.229 86.7315C127.683 87.7154 128.069 88.7293 128.385 89.766C128.749 91.1634 128.763 92.6936 129.541 93.9149C130.074 94.6834 130.786 95.3107 131.616 95.7425C134.475 97.3766 137.929 97.7231 141.201 97.3304C144.474 96.9378 147.613 95.8551 150.726 94.781C151.417 94.573 152.081 94.2821 152.703 93.9149C154.856 92.5059 155.336 89.6245 155.738 87.0866C156.186 84.2572 156.784 81.4335 157.845 78.7715C158.475 77.1864 159.291 75.5783 159.152 73.8806C158.976 71.6257 157.189 69.7981 156.747 67.5807C156.599 66.8395 156.606 66.0758 156.767 65.3374C156.904 64.8974 156.981 64.4409 156.996 63.9804C156.946 63.0507 156.183 62.3347 155.466 61.737C153.911 60.4397 152.306 59.2136 150.651 58.0587C150.567 57.4813 151.353 57.233 151.709 56.7768C152.212 56.133 151.691 55.1109 150.928 54.8106C150.165 54.5104 149.31 54.7067 148.515 54.9059C148.566 54.4995 148.485 54.0873 148.284 53.7305C148.082 53.3737 147.771 53.0914 147.396 52.9257C147.021 52.7599 146.602 52.7195 146.202 52.8105C145.802 52.9015 145.442 53.1189 145.176 53.4306C144.965 52.9471 144.628 52.5291 144.2 52.2203C143.771 51.9115 143.268 51.7232 142.742 51.6751C140.826 51.525 140.788 52.9888 139.563 53.7943C138.337 54.5999 137.325 53.5374 136.383 52.7636C136.21 53.201 136.155 53.6762 136.224 54.1414C136.293 54.6067 136.483 55.0456 136.776 55.4141V55.4141Z" fill="#3E2D28"/>
<path d="M208.968 152.851C208.968 152.851 208.711 153.463 208.236 154.35C207.519 155.713 206.646 156.989 205.635 158.152L205.557 158.236H205.089L188.399 158.389H188L187.951 158.331L184.713 154.494L183.493 153.048L183.444 152.987L183.34 152.866L183.282 152.796L183.207 152.707L180.834 149.895L181.701 146.286L183.178 140.205L183.216 140.058L183.505 138.903L183.71 138.037L184.398 135.213L186.757 125.498L190.948 127.663L195.368 135.459L197.741 139.645H199.042C199.287 139.645 199.851 140.119 200.418 140.664C200.62 140.858 200.822 141.063 200.996 141.242C201.51 141.773 201.918 142.229 201.918 142.229C201.918 142.229 204.025 142.275 204.592 143.933C204.621 144.013 204.645 144.095 204.664 144.178C204.852 144.83 205.097 145.463 205.395 146.072C205.768 146.883 206.236 147.804 206.71 148.725C207.592 150.414 208.488 152.023 208.818 152.606L208.858 152.678L208.968 152.851Z" fill="#6C63FF"/>
<path opacity="0.1" d="M184.137 139.816L184.108 140.228V140.257L184.059 140.921L183.675 146.266L183.209 152.704L183.076 154.517L182.787 158.398V158.447L151.858 158.735L101.103 159.284V159.527H101.062V159.284V159.203L101.193 155.057L101.441 146.956L101.655 140.087L101.675 139.403C101.688 138.99 101.785 138.584 101.96 138.209C102.135 137.835 102.384 137.5 102.693 137.225C103.002 136.95 103.364 136.741 103.757 136.611C104.149 136.48 104.564 136.431 104.976 136.466C106.341 136.582 108.113 136.723 110.231 136.874L111.099 136.937C123.334 137.786 145.947 138.883 168.765 137.515C169.245 137.489 169.728 137.46 170.211 137.425C173.749 137.203 177.284 136.917 180.784 136.559C181.227 136.513 181.674 136.564 182.095 136.709C182.515 136.854 182.899 137.089 183.218 137.398C183.538 137.707 183.786 138.083 183.945 138.498C184.104 138.913 184.169 139.358 184.137 139.801V139.816Z" fill="black"/>
<path d="M101.094 159.526V159.284L151.858 158.732L182.787 158.444H182.873V158.395L183.163 154.514L183.287 152.782L183.761 146.254L184.134 141.086V140.959C184.151 140.721 184.14 140.481 184.102 140.246C184.104 140.236 184.104 140.226 184.102 140.217C184.023 139.73 183.824 139.269 183.524 138.877C183.206 138.47 182.789 138.15 182.312 137.948C181.836 137.745 181.316 137.668 180.801 137.722C177.3 138.08 173.765 138.366 170.227 138.588C169.745 138.623 169.262 138.652 168.782 138.678C145.964 140.032 123.351 138.935 111.115 138.101L110.248 138.037C108.129 137.887 106.357 137.748 104.993 137.63C104.243 137.567 103.495 137.783 102.895 138.238C102.295 138.693 101.885 139.354 101.744 140.093C101.715 140.249 101.698 140.407 101.692 140.566L101.496 146.964L101.227 155.069L101.1 159.215V159.295V159.538L101.094 159.526Z" fill="#3F3D56"/>
<path opacity="0.1" d="M184.225 141.84L183.869 146.266L183.34 152.863L183.207 154.514L182.918 158.213L182.901 158.398V158.447L182.857 158.874L182.889 158.447H182.805L151.876 158.735L101.104 159.284V159.203L101.245 155.057L101.534 146.956L101.719 141.571C101.728 141.265 101.814 140.966 101.968 140.701C102.123 140.436 102.341 140.214 102.604 140.055C102.931 139.855 103.314 139.764 103.696 139.795C104.303 139.845 105.049 139.902 105.919 139.966C107.333 140.07 109.076 140.191 111.105 140.318C114.863 140.555 119.577 140.809 124.98 141.017C140.01 141.594 160.302 141.788 179.577 140.101C180.444 140.026 181.34 139.943 182.216 139.859C182.562 139.824 182.912 139.891 183.222 140.049C183.309 140.093 183.393 140.145 183.47 140.205C183.722 140.388 183.921 140.632 184.048 140.916C184.078 140.972 184.102 141.031 184.12 141.092C184.207 141.331 184.243 141.586 184.225 141.84V141.84Z" fill="black"/>
<path opacity="0.1" d="M86.168 145.792V146.713C86.1681 147.048 86.0732 147.376 85.8941 147.659C85.715 147.942 85.4592 148.169 85.1563 148.313L73.5651 148.535C73.2569 148.394 72.9958 148.167 72.8129 147.882C72.6299 147.597 72.5328 147.265 72.5332 146.927V146.061L86.168 145.792Z" fill="black"/>
<path d="M86.3122 148.855L71.209 149.144V146.641L86.3122 146.352V148.855Z" fill="#3F3D56"/>
<path opacity="0.1" d="M86.3122 148.855L71.209 149.144V146.641L86.3122 146.352V148.855Z" fill="black"/>
<path d="M86.8903 148.855L71.7871 149.144V146.641L86.8903 146.352V148.855Z" fill="#3F3D56"/>
<g opacity="0.1">
<path opacity="0.1" d="M136.894 54.467C136.611 54.1005 136.424 53.6702 136.347 53.214C136.278 53.6599 136.319 54.1161 136.469 54.5421C136.612 54.5289 136.754 54.5038 136.894 54.467Z" fill="black"/>
<path opacity="0.1" d="M133.222 56.3842C133.168 56.0302 133.132 55.6736 133.115 55.3159C133.115 55.671 133.115 56.0291 133.115 56.3871L133.222 56.3842Z" fill="black"/>
<path opacity="0.1" d="M156.782 66.0187C156.798 65.7615 156.832 65.5058 156.886 65.2536C157.022 64.8145 157.1 64.3591 157.117 63.8995C157.11 63.7964 157.095 63.694 157.071 63.5935C157.022 63.8591 156.943 64.1247 156.886 64.3875C156.77 64.9231 156.735 65.4728 156.782 66.0187Z" fill="black"/>
<path opacity="0.1" d="M150.768 57.0972L151.083 57.3253C151.349 57.1334 151.597 56.919 151.826 56.6844C151.935 56.5341 152.002 56.358 152.021 56.1735C152.041 55.9891 152.011 55.8029 151.936 55.6334C151.907 55.6993 151.87 55.7614 151.826 55.8182C151.47 56.2744 150.684 56.5256 150.768 57.0972Z" fill="black"/>
<path opacity="0.1" d="M127.017 59.8748C126.912 60.0853 126.827 60.3058 126.766 60.533C127.218 60.2809 127.705 60.097 128.211 59.9874L127.017 59.8748Z" fill="black"/>
<path opacity="0.1" d="M131.003 56.7335C130.813 56.6291 130.631 56.5103 130.46 56.3784C130.452 56.4926 130.461 56.6073 130.486 56.7191C130.658 56.7109 130.831 56.7157 131.003 56.7335V56.7335Z" fill="black"/>
<path opacity="0.1" d="M159.264 73.7449C159.145 75.1452 158.492 76.4935 157.963 77.8216C156.902 80.4836 156.304 83.3073 155.856 86.1396C155.454 88.6775 154.988 91.5589 152.821 92.965C152.201 93.3346 151.538 93.6256 150.846 93.8311C147.73 94.908 144.588 95.9879 141.307 96.3805C138.027 96.7732 134.584 96.4296 131.722 94.7954C130.893 94.363 130.18 93.7359 129.647 92.9678C128.875 91.7466 128.861 90.2163 128.491 88.8189C128.175 87.7813 127.789 86.7665 127.334 85.7816C126.696 84.2283 126.204 82.6057 125.716 81.0091C125.263 79.525 124.811 78.0401 124.36 76.5541C124.212 76.1071 124.101 75.6483 124.031 75.1827C123.918 75.9218 124.137 76.6956 124.36 77.4203C124.811 78.9082 125.263 80.3931 125.716 81.8752C126.204 83.4834 126.696 85.0945 127.334 86.6478C127.789 87.6326 128.175 88.6475 128.491 89.6851C128.855 91.0825 128.869 92.6127 129.647 93.834C130.18 94.602 130.893 95.2292 131.722 95.6616C134.584 97.2958 138.035 97.6393 141.307 97.2467C144.58 96.854 147.719 95.7742 150.846 94.6973C151.538 94.4917 152.201 94.2008 152.821 93.8311C154.974 92.4251 155.454 89.5436 155.856 87.0058C156.304 84.1734 156.902 81.3498 157.963 78.6878C158.593 77.1056 159.408 75.4974 159.269 73.7968C159.269 73.7795 159.264 73.7622 159.264 73.7449Z" fill="black"/>
<path opacity="0.1" d="M124.666 72.6274C124.666 72.6274 124.666 72.6072 124.666 72.5957C124.718 72.0866 124.673 71.5722 124.533 71.0799C124.475 70.7631 124.437 70.4429 124.42 70.1213C124.387 70.7319 124.424 71.3442 124.533 71.9461C124.579 72.1713 124.631 72.3993 124.666 72.6274Z" fill="black"/>
<path opacity="0.1" d="M125.549 65.5655C125.771 65.1924 126.023 64.8381 126.303 64.5059C125.774 65.0111 124.797 64.5607 124.592 63.8591C124.516 64.1429 124.516 64.4415 124.592 64.7253C124.663 64.9371 124.789 65.1264 124.957 65.274C125.125 65.4215 125.329 65.5221 125.549 65.5655V65.5655Z" fill="black"/>
</g>
<path opacity="0.1" d="M197.743 139.642C197.743 139.642 198.659 142.963 197.743 145.85C196.827 148.737 197.743 139.642 197.743 139.642Z" fill="black"/>
<path opacity="0.1" d="M201.646 143.029C201.646 143.029 202.031 147.244 201.164 147.992C200.296 148.74 201.646 143.029 201.646 143.029Z" fill="black"/>
<path d="M57.5195 98.9905L86.8905 98.7018" stroke="#6C63FF" stroke-width="2" stroke-miterlimit="10"/>
<path d="M57.5195 102.591L86.8905 102.305" stroke="#6C63FF" stroke-width="2" stroke-miterlimit="10"/>
<path d="M57.5195 106.194L86.8905 105.905" stroke="#6C63FF" stroke-width="2" stroke-miterlimit="10"/>
</svg>
