<svg width="313" height="224" viewBox="0 0 313 224" fill="none" xmlns="http://www.w3.org/2000/svg">
<g clip-path="url(#clip0)">
<path d="M111.766 203.338C111.766 208.898 85.666 213.408 53.4697 213.408C21.2735 213.408 -4.82617 208.898 -4.82617 203.338C-4.82617 201.947 -3.19716 200.624 -0.24967 199.421C8.33127 195.913 28.0892 193.42 51.3122 193.275C52.0287 193.27 52.7479 193.267 53.4697 193.267C85.666 193.267 111.766 197.777 111.766 203.338Z" fill="#3F3D56"/>
<path opacity="0.1" d="M51.3119 193.276C48.6997 197.531 45.1573 201.14 40.9503 203.833C36.7433 206.525 31.9809 208.23 27.0201 208.822C22.0594 209.413 17.029 208.875 12.3062 207.247C7.58338 205.619 3.29069 202.944 -0.25 199.422C8.33094 195.914 28.0889 193.421 51.3119 193.276Z" fill="black"/>
<path d="M23.7795 203.613C40.6298 203.613 54.2896 188.99 54.2896 170.951C54.2896 152.913 40.6298 138.29 23.7795 138.29C6.92933 138.29 -6.73047 152.913 -6.73047 170.951C-6.73047 188.99 6.92933 203.613 23.7795 203.613Z" fill="#3F3D56"/>
<path d="M61.2168 22.6831C65.5427 39.3341 79.498 50.0963 92.4182 46.7454Z" fill="#3F3D56"/>
<path d="M92.418 46.7465C88.0435 29.9085 96.1708 13.2575 110.589 9.51807Z" fill="#6C63FF"/>
<path d="M70.0762 21.9963C74.1853 37.813 84.1772 48.8825 92.4163 46.7457Z" fill="#6C63FF"/>
<path d="M92.4144 46.7448C86.8248 25.2295 95.787 4.32216 112.452 0Z" fill="#3F3D56"/>
<path d="M87.5576 48.2321C87.5576 48.2321 90.8461 47.2703 91.6605 46.3004C92.4749 45.3305 96.3546 43.4184 96.8986 44.4941C97.4426 45.5698 103.353 48.8717 99.6186 49.8726C95.8839 50.8734 90.7712 51.5454 89.6164 51.1972C88.4616 50.8489 87.5576 48.2321 87.5576 48.2321Z" fill="#A8A8A8"/>
<path opacity="0.2" d="M99.5823 49.4585C95.8476 50.4594 90.7349 51.1314 89.5801 50.7832C88.7006 50.5179 87.9672 48.9381 87.6672 48.1992C87.5978 48.2204 87.5576 48.2322 87.5576 48.2322C87.5576 48.2322 88.4616 50.849 89.6164 51.1973C90.7712 51.5456 95.8839 50.8735 99.6186 49.8727C100.697 49.5838 100.97 49.103 100.802 48.5395C100.741 48.9221 100.385 49.2435 99.5823 49.4585Z" fill="black"/>
<path opacity="0.3" d="M212.293 72.8975H91.8877V135.907H212.293V72.8975Z" fill="#6C63FF"/>
<path d="M269.841 70.1504H221.548V72.8197H269.841V70.1504Z" fill="#3F3D56"/>
<path d="M291.83 75.0786H221.548V77.7478H291.83V75.0786Z" fill="#3F3D56"/>
<path d="M269.841 86.9888H221.548V89.658H269.841V86.9888Z" fill="#3F3D56"/>
<path d="M269.841 106.698H221.548V109.367H269.841V106.698Z" fill="#3F3D56"/>
<path d="M291.83 91.9146H221.548V94.5838H291.83V91.9146Z" fill="#3F3D56"/>
<path d="M291.83 96.843H221.548V99.5123H291.83V96.843Z" fill="#3F3D56"/>
<path d="M291.83 101.771H221.548V104.441H291.83V101.771Z" fill="#3F3D56"/>
<path d="M246.825 118.607H221.548V125.589H246.825V118.607Z" fill="#6C63FF"/>
<path d="M78.9453 111.024C78.9453 111.024 83.4828 98.1785 86.7599 102.208C90.037 106.238 81.7182 113.039 81.7182 113.039L78.9453 111.024Z" fill="#A0616A"/>
<path d="M57.5184 98.4299L60.248 99.4407C60.248 99.4407 61.5517 105.23 61.0476 106.238C60.5434 107.245 60.2913 106.49 61.0476 108.505C61.8038 110.52 64.0726 115.809 64.3247 116.564C64.5768 117.32 78.9456 111.779 78.9456 109.008C78.9456 109.008 81.9706 112.535 83.4831 113.29C83.4831 113.29 66.8455 125.38 64.5768 126.891C62.308 128.402 61.0476 127.647 59.0309 125.884C57.0142 124.121 48.4434 109.512 48.4434 109.512L57.5184 98.4299Z" fill="#575A89"/>
<path d="M64.8277 187.845C64.8277 187.845 64.5757 190.616 64.0715 190.868C63.5673 191.119 59.7861 197.416 64.0715 198.675C68.3569 199.935 70.8778 199.431 71.8861 199.935C72.8944 200.439 90.5403 201.446 90.7924 198.675C91.0444 195.905 82.2215 195.401 82.2215 195.401C82.2215 195.401 74.1549 190.112 72.8944 187.341C71.634 184.571 64.8277 187.845 64.8277 187.845Z" fill="#2F2E41"/>
<path d="M13.6465 192.883C13.6465 192.883 7.59646 203.21 9.10896 204.469C10.6215 205.729 25.3515 210.318 27.5111 210.514C30.284 210.766 32.3007 208.499 30.0319 207.24C27.7632 205.98 22.9736 200.691 22.9736 198.928V194.395L13.6465 192.883Z" fill="#2F2E41"/>
<path d="M7.85348 125.383C7.85348 125.383 2.55972 131.932 10.8785 142.51L24.7431 160.141C24.7431 160.141 16.1723 173.742 15.9202 180.794C15.6681 187.847 13.9035 186.335 13.3993 189.358C12.8952 192.38 10.6264 190.869 12.391 193.136C14.1556 195.403 20.7098 197.418 22.7265 195.655C24.7431 193.891 24.7431 191.625 24.7431 190.617C24.7431 189.61 28.2723 183.817 28.5244 182.054C28.7765 180.291 38.1036 165.934 38.1036 165.934C38.1036 165.934 41.1286 157.37 37.5994 152.585C34.0702 147.799 31.7381 141.012 31.7381 141.012C31.7381 141.012 42.1369 153.592 49.4474 156.615C49.4474 156.615 52.2203 157.119 51.7161 158.378C51.212 159.637 51.7161 160.393 52.4724 161.652C53.2286 162.912 58.5224 177.52 60.287 181.298C62.0516 185.076 61.2953 187.343 63.312 188.602C65.3287 189.862 74.4037 188.854 74.4037 187.595C74.4037 186.335 73.1433 183.061 72.387 181.298C71.6308 179.535 65.5808 159.134 66.0849 155.607C66.5891 152.081 65.8329 147.296 62.0516 145.281C58.2703 143.266 39.1119 126.894 38.1036 126.894C37.0953 126.894 7.85348 125.383 7.85348 125.383Z" fill="#2F2E41"/>
<path d="M58.5201 85.8391C64.3675 85.8391 69.1076 81.1029 69.1076 75.2606C69.1076 69.4183 64.3675 64.6821 58.5201 64.6821C52.6728 64.6821 47.9326 69.4183 47.9326 75.2606C47.9326 81.1029 52.6728 85.8391 58.5201 85.8391Z" fill="#A0616A"/>
<path d="M49.9487 76.2676C49.9487 76.2676 46.6716 82.0606 42.6383 82.8162C38.6049 83.5718 53.2258 95.1578 53.2258 95.1578C53.2258 95.1578 56.755 84.0755 59.78 83.5718C62.805 83.068 49.9487 76.2676 49.9487 76.2676Z" fill="#A0616A"/>
<path d="M60.2876 99.9443C60.2876 103.219 50.4563 112.538 50.4563 112.538L41.1292 120.346C41.1292 120.346 40.8771 123.116 39.8687 123.368C38.8604 123.62 37.6 123.62 38.6083 125.131C39.6167 126.642 42.1375 129.917 39.8687 130.42C39.1848 130.524 38.4955 130.59 37.8042 130.617C37.1992 130.652 36.4883 130.685 35.6892 130.715C33.8238 130.781 31.4895 130.823 28.9611 130.806C28.2426 130.803 27.5115 130.795 26.7679 130.781C17.2366 130.592 6.19531 129.496 7.09779 125.887C8.6103 119.842 7.60196 117.827 10.8791 114.553C14.1561 111.278 19.4499 99.9443 19.4499 99.9443C19.4499 99.9443 30.0375 82.0616 38.8604 82.0616L40.6931 81.5805C41.5446 81.3563 42.4451 81.4055 43.2672 81.721C44.0892 82.0365 44.7911 82.6024 45.2734 83.3385C47.043 86.031 49.8336 90.076 51.4646 91.3807C53.9855 93.3957 54.3787 91.9499 54.3787 91.9499C54.3787 91.9499 60.2876 96.67 60.2876 99.9443Z" fill="#575A89"/>
<path d="M37.844 138.226C37.844 138.226 45.1545 149.56 40.6169 151.575C36.0794 153.59 33.5586 139.737 33.5586 139.737L37.844 138.226Z" fill="#A0616A"/>
<path d="M51.6027 74.0638C52.009 74.0125 52.1375 73.5003 52.2059 73.0968C52.5722 70.9362 54.1837 68.8874 56.349 68.5386C57.1766 68.4286 58.0182 68.4964 58.8175 68.7374C59.9625 69.0513 61.0374 69.5799 61.9848 70.295C62.4848 70.6729 62.9661 71.1116 63.5676 71.2881C63.9649 71.4046 65.6518 72.1539 66.0459 72.2807C66.9125 72.5595 67.6296 73.4657 68.522 73.2863C69.3759 73.1146 69.7001 72.0844 69.8374 71.2251C70.15 69.2674 69.0285 66.3463 67.9134 64.7065C67.0672 63.4621 65.6353 62.7459 64.2036 62.28C62.5263 61.7713 60.8029 61.4291 59.0584 61.2585C56.7034 60.9806 54.2643 60.8332 52.0075 61.5605C49.7506 62.2878 47.6956 64.067 47.2743 66.3986C47.1865 66.8843 47.1701 67.3818 47.0625 67.8635C46.8001 69.0386 46.0219 70.0264 45.568 71.1417C45.2405 71.9608 45.0885 72.8394 45.1217 73.7208C45.1549 74.6023 45.3726 75.467 45.7607 76.2592C46.3893 77.5222 47.4825 78.7359 47.2465 80.1266L49.1919 78.594C49.473 78.4344 49.6908 78.1834 49.8089 77.8827C49.9271 77.582 49.9385 77.2499 49.8412 76.9418L49.5584 74.5081C49.5066 74.0625 49.4615 73.5816 49.6846 73.1923C50.5492 71.6833 50.9252 74.1492 51.6027 74.0638Z" fill="#2F2E41"/>
<path opacity="0.1" d="M33.3142 120.849L35.6888 130.715C33.294 130.8 30.1253 130.846 26.7676 130.78C25.9205 128.241 25.1113 125.594 24.4912 123.116C22.2225 114.048 26.0037 100.196 28.0204 93.6471C30.0371 87.0985 35.0788 85.3354 35.0788 85.3354C35.0788 85.3354 37.5996 86.0911 40.8767 88.3579C44.1538 90.6247 33.3142 120.849 33.3142 120.849Z" fill="black"/>
<path opacity="0.1" d="M35.3327 120.345L37.8057 130.616C37.2007 130.651 36.4898 130.684 35.6907 130.714C33.8253 130.78 31.491 130.823 28.9626 130.805C28.0526 128.107 27.1728 125.261 26.5098 122.612C24.241 113.544 28.0223 99.6915 30.039 93.143C32.0556 86.5944 36.4671 93.7726 36.4671 93.7726C36.4671 93.7726 34.7025 89.4909 37.9796 91.7577C41.2567 94.0245 35.3327 120.345 35.3327 120.345Z" fill="black"/>
<path d="M36.0836 84.8311C36.0836 84.8311 31.042 86.5941 29.0253 93.1427C27.0086 99.6913 23.2274 113.544 25.4961 122.611C27.7649 131.679 32.5545 143.013 32.5545 143.013C32.5545 143.013 37.344 139.487 39.1086 140.242L34.3191 120.345C34.3191 120.345 45.1587 90.1203 41.8816 87.8535C38.6045 85.5867 36.0836 84.8311 36.0836 84.8311Z" fill="#575A89"/>
<path d="M207.111 66.3638H86.7051V129.373H207.111V66.3638Z" fill="#3F3D56"/>
<path d="M149.155 112.74C156.68 112.74 162.781 106.634 162.781 99.102C162.781 91.5697 156.68 85.4636 149.155 85.4636C141.63 85.4636 135.53 91.5697 135.53 99.102C135.53 106.634 141.63 112.74 149.155 112.74Z" fill="white"/>
<path d="M149.144 83.1404C145.924 83.1404 142.775 84.0946 140.097 85.8824C137.42 87.6701 135.332 90.2111 134.1 93.1841C132.867 96.157 132.545 99.4284 133.173 102.584C133.802 105.74 135.352 108.64 137.63 110.915C139.907 113.19 142.809 114.74 145.967 115.368C149.126 115.995 152.4 115.673 155.376 114.442C158.351 113.21 160.894 111.125 162.684 108.449C164.473 105.774 165.428 102.628 165.428 99.4103C165.415 95.0991 163.696 90.9682 160.645 87.9197C157.594 84.8712 153.459 83.153 149.144 83.1404V83.1404ZM145.801 108.085L137.456 99.7467L139.797 97.4079L145.809 103.415L158.5 90.7356L160.84 93.0744L145.801 108.085V108.085Z" fill="#6C63FF"/>
</g>
<defs>
<clipPath id="clip0">
<rect width="313" height="213.409" fill="white"/>
</clipPath>
</defs>
</svg>
