<svg width="262" height="199" viewBox="0 0 262 199" fill="none" xmlns="http://www.w3.org/2000/svg">
<g clip-path="url(#clip0)">
<g clip-path="url(#clip1)">
<path d="M23.7209 36.5815C25.8051 36.5815 27.4946 34.8891 27.4946 32.8014C27.4946 30.7137 25.8051 29.0212 23.7209 29.0212C21.6368 29.0212 19.9473 30.7137 19.9473 32.8014C19.9473 34.8891 21.6368 36.5815 23.7209 36.5815Z" fill="#F2F2F2"/>
<path d="M115.096 23.351C117.18 23.351 118.87 21.6586 118.87 19.5709C118.87 17.4832 117.18 15.7908 115.096 15.7908C113.012 15.7908 111.322 17.4832 111.322 19.5709C111.322 21.6586 113.012 23.351 115.096 23.351Z" fill="#F2F2F2"/>
<path d="M112.67 86.2631C116.392 86.2631 119.409 83.2409 119.409 79.5129C119.409 75.7849 116.392 72.7627 112.67 72.7627C108.949 72.7627 105.932 75.7849 105.932 79.5129C105.932 83.2409 108.949 86.2631 112.67 86.2631Z" fill="#F2F2F2"/>
<path d="M89.7599 23.3512C90.6531 23.3512 91.3771 22.6259 91.3771 21.7311C91.3771 20.8364 90.6531 20.1111 89.7599 20.1111C88.8667 20.1111 88.1426 20.8364 88.1426 21.7311C88.1426 22.6259 88.8667 23.3512 89.7599 23.3512Z" fill="#FF6584"/>
<path d="M16.9825 88.4229C17.8757 88.4229 18.5998 87.6976 18.5998 86.8029C18.5998 85.9082 17.8757 85.1829 16.9825 85.1829C16.0893 85.1829 15.3652 85.9082 15.3652 86.8029C15.3652 87.6976 16.0893 88.4229 16.9825 88.4229Z" fill="#FF6584"/>
<path d="M240.975 91.9332C241.868 91.9332 242.592 91.2079 242.592 90.3132C242.592 89.4184 241.868 88.6931 240.975 88.6931C240.082 88.6931 239.357 89.4184 239.357 90.3132C239.357 91.2079 240.082 91.9332 240.975 91.9332Z" fill="#FF6584"/>
<path d="M64.6915 59.5321C65.5847 59.5321 66.3088 58.8068 66.3088 57.912C66.3088 57.0173 65.5847 56.292 64.6915 56.292C63.7983 56.292 63.0742 57.0173 63.0742 57.912C63.0742 58.8068 63.7983 59.5321 64.6915 59.5321Z" fill="#F2F2F2"/>
<path d="M242.592 23.3512C243.485 23.3512 244.209 22.6259 244.209 21.7311C244.209 20.8364 243.485 20.1111 242.592 20.1111C241.699 20.1111 240.975 20.8364 240.975 21.7311C240.975 22.6259 241.699 23.3512 242.592 23.3512Z" fill="#F2F2F2"/>
<path d="M23.7208 138.104C24.614 138.104 25.3381 137.379 25.3381 136.484C25.3381 135.59 24.614 134.864 23.7208 134.864C22.8276 134.864 22.1035 135.59 22.1035 136.484C22.1035 137.379 22.8276 138.104 23.7208 138.104Z" fill="#F2F2F2"/>
<path d="M218.332 122.444C219.225 122.444 219.949 121.719 219.949 120.824C219.949 119.929 219.225 119.204 218.332 119.204C217.439 119.204 216.715 119.929 216.715 120.824C216.715 121.719 217.439 122.444 218.332 122.444Z" fill="#F2F2F2"/>
<path d="M171.432 21.7311C172.325 21.7311 173.049 21.0057 173.049 20.111C173.049 19.2163 172.325 18.491 171.432 18.491C170.539 18.491 169.814 19.2163 169.814 20.111C169.814 21.0057 170.539 21.7311 171.432 21.7311Z" fill="#F2F2F2"/>
<path d="M196.5 50.622C195.701 50.622 194.919 50.3844 194.254 49.9394C193.589 49.4944 193.071 48.8618 192.765 48.1218C192.459 47.3817 192.379 46.5674 192.535 45.7817C192.691 44.9961 193.076 44.2744 193.641 43.708C194.207 43.1416 194.927 42.7558 195.711 42.5996C196.496 42.4433 197.309 42.5235 198.048 42.83C198.786 43.1366 199.418 43.6557 199.862 44.3217C200.306 44.9878 200.543 45.7708 200.543 46.5719C200.542 47.6456 200.116 48.6751 199.358 49.4344C198.6 50.1937 197.572 50.6208 196.5 50.622ZM196.5 43.0617C195.807 43.0617 195.13 43.2676 194.553 43.6533C193.977 44.039 193.528 44.5872 193.263 45.2286C192.998 45.87 192.928 46.5758 193.063 47.2566C193.199 47.9375 193.532 48.563 194.022 49.0539C194.513 49.5448 195.137 49.8791 195.817 50.0145C196.496 50.15 197.201 50.0804 197.841 49.8148C198.482 49.5491 199.029 49.0992 199.414 48.522C199.799 47.9447 200.004 47.2661 200.004 46.5719C200.003 45.6412 199.634 44.749 198.977 44.091C198.32 43.433 197.429 43.0628 196.5 43.0617Z" fill="#F2F2F2"/>
<path d="M188.953 60.8823C188.367 60.8823 187.794 60.7081 187.306 60.3818C186.818 60.0554 186.438 59.5915 186.214 59.0488C185.99 58.5061 185.931 57.9089 186.045 57.3328C186.16 56.7567 186.442 56.2274 186.857 55.8121C187.271 55.3967 187.8 55.1138 188.375 54.9992C188.95 54.8846 189.546 54.9434 190.088 55.1682C190.63 55.393 191.093 55.7737 191.419 56.2621C191.744 56.7506 191.918 57.3248 191.918 57.9122C191.917 58.6997 191.605 59.4546 191.049 60.0114C190.493 60.5682 189.739 60.8814 188.953 60.8823ZM188.953 55.4822C188.473 55.4822 188.004 55.6247 187.606 55.8917C187.207 56.1587 186.896 56.5382 186.712 56.9823C186.528 57.4263 186.48 57.9149 186.574 58.3863C186.668 58.8577 186.899 59.2907 187.238 59.6306C187.577 59.9704 188.009 60.2018 188.48 60.2956C188.951 60.3894 189.438 60.3413 189.882 60.1573C190.325 59.9734 190.704 59.6619 190.97 59.2623C191.237 58.8627 191.379 58.3929 191.379 57.9122C191.379 57.268 191.123 56.6503 190.668 56.1947C190.213 55.7391 189.596 55.4829 188.953 55.4822Z" fill="#F2F2F2"/>
<path d="M205.664 75.1926C205.078 75.1926 204.505 75.0184 204.017 74.6921C203.529 74.3657 203.149 73.9019 202.925 73.3591C202.701 72.8164 202.642 72.2192 202.756 71.6431C202.871 71.067 203.153 70.5377 203.568 70.1224C203.982 69.707 204.511 69.4241 205.086 69.3095C205.661 69.1949 206.257 69.2537 206.799 69.4785C207.341 69.7033 207.804 70.084 208.13 70.5724C208.455 71.0609 208.629 71.6351 208.629 72.2225C208.628 73.01 208.316 73.7649 207.76 74.3217C207.204 74.8785 206.45 75.1917 205.664 75.1926ZM205.664 69.7925C205.184 69.7925 204.715 69.935 204.316 70.202C203.918 70.469 203.607 70.8485 203.423 71.2926C203.239 71.7366 203.191 72.2252 203.285 72.6966C203.379 73.168 203.61 73.601 203.949 73.9409C204.288 74.2807 204.72 74.5122 205.191 74.6059C205.662 74.6997 206.149 74.6516 206.593 74.4676C207.036 74.2837 207.415 73.9722 207.681 73.5726C207.948 73.173 208.09 72.7032 208.09 72.2225C208.089 71.5783 207.834 70.9606 207.379 70.505C206.924 70.0494 206.307 69.7932 205.664 69.7925Z" fill="#F2F2F2"/>
<path d="M200.273 79.2428C195.901 79.2428 191.628 77.9443 187.993 75.5114C184.358 73.0786 181.525 69.6207 179.852 65.575C178.179 61.5293 177.742 57.0776 178.595 52.7827C179.447 48.4878 181.553 44.5427 184.644 41.4463C187.735 38.3499 191.673 36.2412 195.961 35.3869C200.248 34.5326 204.692 34.971 208.731 36.6468C212.77 38.3226 216.222 41.1604 218.651 44.8014C221.079 48.4424 222.376 52.7231 222.376 57.1021C222.369 62.9722 220.038 68.5999 215.895 72.7506C211.751 76.9013 206.133 79.2362 200.273 79.2428ZM200.273 35.5015C196.008 35.5015 191.839 36.7683 188.293 39.1418C184.746 41.5153 181.983 44.8889 180.35 48.8359C178.718 52.7829 178.291 57.1261 179.123 61.3162C179.955 65.5063 182.009 69.3552 185.025 72.3761C188.041 75.397 191.883 77.4543 196.066 78.2877C200.249 79.1212 204.585 78.6934 208.525 77.0585C212.465 75.4236 215.833 72.655 218.202 69.1028C220.572 65.5506 221.837 61.3743 221.837 57.1021C221.83 51.3753 219.556 45.8848 215.514 41.8353C211.471 37.7858 205.99 35.5079 200.273 35.5015Z" fill="#F2F2F2"/>
<path d="M200.273 66.0125C181.833 66.0125 167.389 62.0987 167.389 57.1022C167.389 54.1908 171.676 51.689 179.461 50.0576L179.571 50.5863C172.172 52.1369 167.928 54.5118 167.928 57.1022C167.928 61.6394 182.74 65.4725 200.273 65.4725C217.807 65.4725 232.619 61.6394 232.619 57.1022C232.619 54.507 228.361 52.129 220.936 50.578L221.046 50.0493C228.857 51.681 233.158 54.1857 233.158 57.1022C233.158 62.0987 218.713 66.0125 200.273 66.0125Z" fill="#F2F2F2"/>
<path d="M183.68 151.664C182.932 151.664 182.177 151.652 181.435 151.628L181.452 151.089C182.517 151.122 183.603 151.131 184.673 151.117L184.681 151.657C184.348 151.661 184.014 151.663 183.68 151.664ZM187.924 151.538L187.892 150.999C188.959 150.936 190.039 150.848 191.103 150.736L191.159 151.273C190.087 151.386 188.999 151.475 187.924 151.538ZM178.195 151.454C177.119 151.372 176.033 151.264 174.965 151.132L175.031 150.596C176.09 150.726 177.168 150.834 178.236 150.916L178.195 151.454ZM194.378 150.86L194.297 150.327C195.357 150.166 196.424 149.979 197.47 149.771L197.575 150.3C196.521 150.51 195.446 150.698 194.378 150.86ZM171.753 150.663C170.691 150.483 169.619 150.275 168.567 150.046L168.681 149.519C169.725 149.746 170.789 149.951 171.843 150.13L171.753 150.663ZM200.743 149.593L200.613 149.069C201.653 148.811 202.699 148.527 203.722 148.223L203.875 148.741C202.844 149.047 201.791 149.334 200.743 149.593ZM165.412 149.284C164.37 149.006 163.321 148.701 162.295 148.375L162.457 147.861C163.476 148.183 164.516 148.486 165.55 148.762L165.412 149.284ZM206.965 147.744L206.788 147.234C207.797 146.883 208.812 146.503 209.805 146.105L210.005 146.606C209.005 147.007 207.982 147.39 206.965 147.744ZM159.215 147.321C158.203 146.949 157.185 146.547 156.189 146.126L156.398 145.628C157.387 146.046 158.397 146.445 159.402 146.814L159.215 147.321ZM212.983 145.332L212.76 144.84C213.729 144.399 214.703 143.928 215.656 143.441L215.901 143.922C214.941 144.413 213.96 144.887 212.983 145.332ZM153.222 144.793C152.249 144.329 151.273 143.835 150.32 143.325L150.574 142.849C151.52 143.355 152.488 143.845 153.454 144.306L153.222 144.793ZM218.751 142.378L218.484 141.91C219.414 141.378 220.342 140.82 221.242 140.249L221.53 140.706C220.623 141.28 219.688 141.843 218.751 142.378V142.378ZM147.489 141.725C146.564 141.174 145.638 140.593 144.736 139.998L145.032 139.547C145.927 140.137 146.847 140.714 147.765 141.261L147.489 141.725ZM224.229 138.907L223.921 138.464C224.796 137.852 225.669 137.21 226.517 136.558L226.845 136.986C225.992 137.643 225.111 138.29 224.229 138.907V138.907ZM142.064 138.146C141.194 137.513 140.325 136.85 139.481 136.175L139.817 135.753C140.655 136.423 141.518 137.081 142.381 137.709L142.064 138.146ZM229.371 134.948L229.024 134.535C229.84 133.845 230.652 133.127 231.437 132.399L231.803 132.796C231.012 133.529 230.193 134.253 229.371 134.948ZM136.99 134.088C136.18 133.377 135.375 132.637 134.597 131.89L134.971 131.5C135.742 132.242 136.541 132.976 137.345 133.682L136.99 134.088ZM234.135 130.534L233.751 130.155C234.503 129.392 235.247 128.602 235.962 127.807L236.363 128.168C235.642 128.969 234.893 129.765 234.135 130.534H234.135ZM132.307 129.586C131.564 128.803 130.83 127.993 130.125 127.18L130.532 126.826C131.231 127.633 131.96 128.437 132.698 129.214L132.307 129.586ZM238.48 125.703L238.064 125.36C238.743 124.532 239.412 123.678 240.053 122.82L240.484 123.143C239.839 124.007 239.165 124.869 238.48 125.703H238.48ZM128.055 124.678C127.387 123.833 126.729 122.96 126.1 122.085L126.538 121.769C127.162 122.638 127.815 123.504 128.477 124.343L128.055 124.678ZM242.369 120.494L241.924 120.19C242.525 119.304 243.114 118.391 243.674 117.477L244.133 117.76C243.568 118.681 242.975 119.6 242.369 120.494L242.369 120.494ZM124.267 119.406C123.68 118.504 123.105 117.576 122.558 116.646L123.023 116.372C123.565 117.294 124.136 118.215 124.719 119.11L124.267 119.406ZM245.77 114.948L245.298 114.687C245.816 113.748 246.318 112.785 246.793 111.823L247.276 112.062C246.798 113.032 246.291 114.002 245.77 114.948V114.948ZM120.977 113.812C120.475 112.86 119.987 111.884 119.528 110.91L120.016 110.679C120.471 111.646 120.955 112.615 121.454 113.56L120.977 113.812ZM248.649 109.11L248.155 108.893C248.585 107.91 248.997 106.904 249.381 105.902L249.884 106.095C249.497 107.105 249.082 108.119 248.649 109.11V109.11ZM118.214 107.945C117.801 106.951 117.405 105.935 117.038 104.923L117.545 104.739C117.909 105.742 118.302 106.751 118.712 107.737L118.214 107.945ZM250.98 103.026L250.468 102.856C250.805 101.841 251.122 100.803 251.412 99.7713L251.931 99.9174C251.639 100.957 251.319 102.003 250.98 103.026V103.026ZM116 101.843C115.679 100.814 115.377 99.7624 115.104 98.7177L115.625 98.5806C115.897 99.6173 116.196 100.661 116.514 101.682L116 101.843ZM252.737 96.768L252.212 96.6457C252.453 95.6049 252.674 94.542 252.868 93.487L253.398 93.5846C253.203 94.648 252.98 95.7188 252.737 96.768ZM114.353 95.5546C114.128 94.4998 113.925 93.4253 113.748 92.3603L114.28 92.2717C114.455 93.3288 114.657 94.3952 114.88 95.4417L114.353 95.5546ZM253.912 90.3748L253.377 90.3015C253.523 89.2439 253.645 88.1655 253.742 87.096L254.279 87.1445C254.181 88.2224 254.058 89.309 253.912 90.3748ZM113.291 89.1419C113.164 88.0729 113.059 86.9842 112.98 85.906L113.518 85.8664C113.596 86.9367 113.7 88.017 113.826 89.0781L113.291 89.1419ZM254.498 83.9012L253.959 83.877C254.007 82.807 254.032 81.7216 254.032 80.6514H254.571C254.571 81.7298 254.546 82.8233 254.498 83.9012ZM112.817 82.6588C112.799 81.9967 112.789 81.3211 112.789 80.6514C112.789 80.2358 112.793 79.821 112.8 79.4071L113.339 79.4165C113.332 79.8274 113.328 80.239 113.328 80.6514C113.328 81.3161 113.338 81.9866 113.356 82.644L112.817 82.6588ZM254.028 79.898C254.017 78.8274 253.981 77.7422 253.922 76.6724L254.46 76.6424C254.52 77.7203 254.556 78.8136 254.567 79.8922L254.028 79.898ZM113.467 76.1927L112.929 76.1589C112.996 75.0799 113.089 73.9901 113.205 72.9197L113.741 72.9779C113.626 74.0403 113.534 75.1217 113.467 76.1927ZM253.67 73.4562C253.562 72.3916 253.428 71.3144 253.272 70.2544L253.805 70.1756C253.962 71.2436 254.097 72.3289 254.206 73.4016L253.67 73.4562ZM114.16 69.7792L113.627 69.6966C113.793 68.6283 113.985 67.5516 114.198 66.496L114.726 66.603C114.515 67.6506 114.324 68.7192 114.16 69.7792ZM252.728 67.0749C252.522 66.0215 252.29 64.9611 252.038 63.9232L252.562 63.7956C252.816 64.8414 253.049 65.9099 253.257 66.9712L252.728 67.0749ZM115.437 63.4564L114.914 63.3251C115.176 62.2792 115.466 61.2246 115.776 60.1905L116.292 60.3458C115.985 61.372 115.697 62.4185 115.437 63.4564ZM251.204 60.8067C250.903 59.7785 250.575 58.7442 250.228 57.7322L250.737 57.5566C251.087 58.5763 251.419 59.6188 251.721 60.6548L251.204 60.8067ZM117.293 57.2695L116.784 57.0905C117.143 56.0697 117.529 55.0439 117.934 54.0418L118.434 54.2443C118.032 55.2387 117.648 56.2566 117.293 57.2695ZM249.111 54.7059C248.717 53.7121 248.296 52.7147 247.859 51.7413L248.35 51.5196C248.791 52.5005 249.216 53.5055 249.612 54.5068L249.111 54.7059ZM119.713 51.2761L119.223 51.0506C119.673 50.0684 120.152 49.0834 120.647 48.1231L121.126 48.3707C120.635 49.3238 120.159 50.3013 119.713 51.2761ZM246.472 48.8364C245.99 47.883 245.478 46.9277 244.953 45.9973L245.422 45.7313C245.952 46.6689 246.467 47.6315 246.953 48.5922L246.472 48.8364ZM122.671 45.5343L122.204 45.2648C122.742 44.3294 123.309 43.3931 123.89 42.4821L124.344 42.7727C123.768 43.6768 123.205 44.606 122.671 45.5343ZM243.305 43.2298C242.735 42.3214 242.139 41.4164 241.532 40.54L241.975 40.2322C242.586 41.1154 243.188 42.0273 243.761 42.9426L243.305 43.2298ZM126.141 40.0913L125.701 39.7802C126.322 38.8972 126.972 38.0172 127.632 37.1645L128.058 37.4954C127.403 38.3418 126.758 39.2151 126.141 40.0913ZM239.638 37.9333C238.988 37.081 238.312 36.2337 237.627 35.4149L238.04 35.0681C238.73 35.8931 239.412 36.7468 240.066 37.6056L239.638 37.9333ZM130.091 34.9905L129.681 34.6404C130.378 33.8198 131.105 33.003 131.841 32.2128L132.235 32.5812C131.505 33.3655 130.783 34.1762 130.091 34.9905ZM235.503 32.9903C234.779 32.2007 234.027 31.4181 233.27 30.6645L233.65 30.2814C234.413 31.0409 235.17 31.8293 235.9 32.6248L235.503 32.9903ZM134.486 30.2729L134.109 29.8869C134.88 29.1314 135.678 28.3846 136.48 27.6671L136.839 28.07C136.043 28.7819 135.251 29.5231 134.486 30.2729L134.486 30.2729ZM230.935 28.4423C230.141 27.7213 229.322 27.0101 228.499 26.3286L228.843 25.9126C229.672 26.5992 230.497 27.3157 231.297 28.0423L230.935 28.4423ZM139.289 25.9766L138.948 25.5579C139.782 24.8778 140.644 24.207 141.51 23.5641L141.831 23.9979C140.971 24.636 140.116 25.3016 139.289 25.9766ZM225.97 24.3277C225.114 23.6818 224.233 23.0481 223.352 22.4441L223.656 21.9985C224.544 22.6069 225.432 23.2454 226.295 23.8963L225.97 24.3277ZM144.459 22.1379L144.158 21.6899C145.051 21.0884 145.969 20.4995 146.889 19.939L147.169 20.4005C146.257 20.9566 145.345 21.5412 144.459 22.1379ZM220.649 20.6822C219.738 20.1174 218.803 19.5668 217.869 19.0455L218.131 18.5738C219.072 19.0991 220.015 19.654 220.933 20.2229L220.649 20.6822ZM149.955 18.7894L149.696 18.3156C150.64 17.7981 151.608 17.296 152.573 16.8231L152.81 17.3083C151.852 17.7775 150.892 18.2757 149.955 18.7894ZM215.015 17.5382C214.056 17.0595 213.074 16.597 212.095 16.1637L212.313 15.6698C213.299 16.1064 214.289 16.5725 215.256 17.0549L215.015 17.5382ZM155.729 15.9602L155.515 15.4648C156.501 15.0364 157.51 14.6256 158.514 14.2437L158.706 14.7486C157.709 15.1275 156.708 15.5352 155.729 15.9602ZM209.113 14.9249C208.115 14.5372 207.093 14.1672 206.077 13.8255L206.248 13.3134C207.273 13.6579 208.302 14.0306 209.308 14.4215L209.113 14.9249ZM161.742 13.6729L161.574 13.1598C162.599 12.8234 163.644 12.5065 164.681 12.2185L164.825 12.7387C163.796 13.0247 162.759 13.339 161.742 13.6729ZM203 12.87C201.972 12.5764 200.923 12.303 199.883 12.0574L200.007 11.5318C201.055 11.7793 202.112 12.0548 203.148 12.3506L203 12.87ZM167.948 11.9478L167.828 11.4214C168.878 11.181 169.948 10.962 171.007 10.7706L171.103 11.3019C170.052 11.492 168.99 11.7093 167.948 11.9478V11.9478ZM196.732 11.3897C195.682 11.1923 194.613 11.0167 193.554 10.8678L193.629 10.333C194.696 10.4832 195.774 10.6601 196.831 10.8589L196.732 11.3897ZM174.285 10.8021L174.214 10.2668C175.281 10.1242 176.366 10.0042 177.44 9.9106L177.486 10.4485C176.421 10.5416 175.345 10.6605 174.285 10.8021V10.8021ZM190.355 10.4923C189.293 10.3921 188.212 10.3148 187.142 10.263L187.168 9.72354C188.246 9.77588 189.335 9.85367 190.405 9.95467L190.355 10.4923ZM180.701 10.2414L180.678 9.70192C181.669 9.66052 182.679 9.63942 183.68 9.63916L183.924 9.63956L183.922 10.1796L183.68 10.1792C182.687 10.1794 181.684 10.2004 180.701 10.2414V10.2414Z" fill="#F2F2F2"/>
<path d="M122.891 109.215C125.415 106.156 128.266 103.28 131.745 101.38C135.224 99.4801 139.415 98.637 143.213 99.7668C146.049 100.61 148.465 102.466 150.702 104.405C155.285 108.377 159.511 112.925 164.916 115.67C170.322 118.414 177.444 118.927 182.036 114.964C185.669 111.828 187.218 106.396 191.558 104.349C195.835 102.331 200.795 104.498 205.136 106.376C211.031 108.925 217.13 110.969 223.37 112.486C227.591 113.512 231.939 114.298 236.263 113.886C240.587 113.473 244.927 111.739 247.747 108.43" fill="#F2F2F2"/>
<path d="M102.279 94.0186H113.163C113.905 89.7176 113.905 85.3209 113.163 81.02H102.279C103.505 85.2658 103.505 89.7728 102.279 94.0186Z" fill="#6C63FF"/>
<path d="M14.1367 99.9587H25.0201C25.7628 95.6578 25.7628 91.2611 25.0201 86.9602H14.1367C15.3628 91.206 15.3628 95.7129 14.1367 99.9587Z" fill="#6C63FF"/>
<path d="M203.629 60.5376H214.512C215.255 56.2367 215.255 51.84 214.512 47.5391H203.629C204.855 51.7849 204.855 56.2918 203.629 60.5376Z" fill="#6C63FF"/>
<path d="M55.7128 182.502L53.4316 189.774L60.483 190.397L59.8609 182.502H55.7128Z" fill="#FFB9B9"/>
<path d="M89.9336 188.111V198.084H98.0219L95.7407 188.111H89.9336Z" fill="#FFB9B9"/>
<path d="M61.1039 115.606L57.7855 147.185C57.7855 147.185 53.6376 175.023 54.4672 179.386C55.2968 183.749 54.2598 184.372 54.2598 184.372H60.4817C60.4817 184.372 60.2743 181.671 61.5187 180.425C62.763 179.178 62.1409 175.439 62.1409 175.439L77.903 127.241L86.8211 154.248C86.8211 154.248 88.2729 183.957 88.4803 184.372C88.6877 184.788 89.3098 190.397 89.3098 190.397H96.9835C96.9835 190.397 95.9465 187.073 97.3983 186.034C98.8501 184.995 100.094 185.826 98.8501 183.957C97.6057 182.087 97.1909 179.802 97.6057 178.763C98.0205 177.724 98.0205 173.569 98.0205 173.569C98.0205 173.569 97.3983 117.476 93.8726 115.606C90.3468 113.737 61.1039 115.606 61.1039 115.606Z" fill="#2F2E41"/>
<path d="M92.1252 192.798C92.1252 192.798 88.5789 192.266 88.5789 192.443C88.5789 192.621 84.3233 204.166 88.5789 203.988C92.8344 203.811 108.97 201.502 107.906 197.239C106.842 192.976 101.523 194.219 101.523 194.219L96.7354 191.555L92.1252 192.798Z" fill="#2F2E41"/>
<path d="M57.2102 189.12C57.2102 189.12 60.7565 188.587 60.7565 188.765C60.7565 188.942 65.0121 200.487 60.7565 200.31C56.501 200.132 40.3653 197.823 41.4292 193.56C42.493 189.297 47.8125 190.541 47.8125 190.541L52.6 187.876L57.2102 189.12Z" fill="#2F2E41"/>
<path d="M74.168 140.949H84.6415C85.3562 136.811 85.3562 132.579 84.6415 128.44H74.168C75.3479 132.526 75.3479 136.864 74.168 140.949Z" fill="#D0CDE1"/>
<path d="M71.1172 141.386H81.5907C82.3055 137.247 82.3055 133.016 81.5907 128.877H71.1172C72.2971 132.963 72.2971 137.3 71.1172 141.386Z" fill="#6C63FF"/>
<path d="M78.1676 56.2586C82.6752 56.2586 86.3293 52.5982 86.3293 48.0829C86.3293 43.5676 82.6752 39.9072 78.1676 39.9072C73.66 39.9072 70.0059 43.5676 70.0059 48.0829C70.0059 52.5982 73.66 56.2586 78.1676 56.2586Z" fill="#FFB9B9"/>
<path d="M71.6812 47.0483C71.6812 47.0483 70.2294 61.591 68.3628 62.6297C66.4963 63.6685 82.6732 64.7072 82.6732 64.7072C82.6732 64.7072 78.7327 51.4111 79.977 50.1646C81.2214 48.9181 71.6812 47.0483 71.6812 47.0483Z" fill="#FFB9B9"/>
<path d="M89.1034 62.2142C89.1034 62.2142 83.2963 56.6049 76.6596 57.6437C70.0229 58.6825 65.2527 59.929 65.2527 59.929C65.2527 59.929 55.0903 65.3305 54.8829 69.6933C54.6755 74.0561 58.6161 90.4684 58.6161 90.4684C58.6161 90.4684 60.4826 117.268 60.69 117.268C60.8974 117.268 95.7401 116.853 95.7401 116.853L89.3108 81.9506L89.1034 62.2142Z" fill="#575A89"/>
<path d="M87.747 112.205C86.4031 112.569 84.0865 112.066 81.6682 111.273C77.3544 109.854 72.719 107.504 72.719 107.504C72.719 107.504 57.7865 101.479 53.4311 98.3629C49.0758 95.2466 51.9794 82.7815 51.9794 82.7815L58.616 84.859L58.2012 92.5458L74.5856 103.141C77.1601 103.383 79.7022 103.895 82.1701 104.668C84.9285 105.576 87.6081 106.991 88.5766 109.164C88.7276 109.495 88.835 109.845 88.896 110.205C89.093 111.351 88.6284 111.964 87.747 112.205Z" fill="#FFB9B9"/>
<path opacity="0.15" d="M88.5764 109.164C88.2881 110.24 88.0081 111.264 87.7468 112.205C86.4028 112.569 84.0863 112.066 81.668 111.273L82.1699 104.668C84.9283 105.576 87.6078 106.991 88.5764 109.164Z" fill="black"/>
<path d="M85.5779 78.8342L84.3335 89.8451L82.2699 117.013C82.2699 117.013 70.8527 130.772 77.282 131.188C83.7113 131.603 87.237 117.684 87.237 117.684C87.237 117.684 93.6663 95.6621 93.4589 91.0916C93.2515 86.521 93.4589 78.8342 93.4589 78.8342H85.5779Z" fill="#FFB9B9"/>
<path d="M87.3835 47.1703C87.597 47.0848 87.7952 46.9652 87.9704 46.8161C88.416 46.383 88.3409 45.649 88.1474 45.058C87.9539 44.467 87.6712 43.856 87.8097 43.2497C87.8743 42.9672 88.028 42.7088 88.0719 42.4224C88.1763 41.7412 87.6338 41.1204 87.0333 40.784C86.4328 40.4477 85.7421 40.282 85.1747 39.8924C84.3043 39.2949 83.8238 38.2412 82.9402 37.6636C82.0762 37.0987 80.9783 37.0812 79.9465 37.0823L76.8661 37.0858C75.2564 37.0876 73.4874 37.1473 72.2893 38.2244C71.9249 38.5519 71.6363 38.9576 71.2673 39.2799C70.524 39.9291 69.5209 40.1883 68.6955 40.7288C68.0793 41.1417 67.5754 41.7019 67.2297 42.3588C66.8839 43.0158 66.707 43.7487 66.7151 44.4913C66.7443 45.8605 67.4105 47.1905 67.2374 48.549C67.1212 49.4603 66.6302 50.3359 66.7592 51.2454C66.9122 52.3241 67.9 53.0968 68.9129 53.4935C69.9259 53.8902 71.0302 54.0327 72.0158 54.4935C72.8203 54.8695 73.6608 55.469 74.5088 55.2059C75.2262 54.9832 75.6199 54.2242 75.8769 53.5173C76.1775 52.6905 76.3983 51.8368 76.5363 50.9678C76.6395 50.3178 76.708 49.6288 77.0891 49.0927C77.3128 48.8009 77.6074 48.5712 77.9447 48.4255C78.2819 48.2798 78.6508 48.2228 79.0163 48.26C80.6796 48.4065 81.6159 51.2441 83.1454 50.573C83.9039 50.2403 84.4866 49.2444 85.0941 48.7013C85.7814 48.0855 86.5522 47.57 87.3835 47.1703Z" fill="#32270C"/>
<path d="M57.3724 67.8235C57.3724 67.8235 53.2245 69.2778 51.5653 75.0948C49.9062 80.9118 50.5283 84.8591 50.5283 84.8591L59.239 86.3134L57.3724 67.8235Z" fill="#575A89"/>
<path d="M84.9562 61.7986C84.9562 61.7986 92.4225 60.1366 93.4594 67.2002C94.1082 71.9516 94.4546 76.7395 94.4964 81.535C94.4964 81.535 87.4449 78.211 84.334 81.535L84.9562 61.7986Z" fill="#575A89"/>
<path d="M111.592 85.1829H104.314V85.9929H111.592V85.1829Z" fill="#F2F2F2"/>
<path d="M23.4516 91.9331H16.1738V92.7431H23.4516V91.9331Z" fill="#F2F2F2"/>
<path d="M111.592 87.073H104.314V87.883H111.592V87.073Z" fill="#F2F2F2"/>
<path d="M213.211 50.6218H205.934V51.4319H213.211V50.6218Z" fill="#F2F2F2"/>
<path d="M213.211 54.4019H205.934V55.2119H213.211V54.4019Z" fill="#F2F2F2"/>
<path d="M213.211 52.512H205.934V53.322H213.211V52.512Z" fill="#F2F2F2"/>
</g>
</g>
<defs>
<clipPath id="clip0">
<rect width="262" height="199" fill="white"/>
</clipPath>
<clipPath id="clip1">
<rect width="262" height="199" fill="white" transform="translate(0 4.99048)"/>
</clipPath>
</defs>
</svg>
