<svg width="94" height="94" viewBox="0 0 94 94" fill="none" xmlns="http://www.w3.org/2000/svg">
<circle opacity="0.5" cx="47" cy="47" r="47" fill="#E7EDFD"/>
<g clip-path="url(#clip0)">
<path d="M66.2461 31.3333V35.25C66.2461 38.7016 57.5853 41.5166 46.9102 41.5166C36.2351 41.5166 27.5742 38.7016 27.5742 35.25V31.3333C27.5742 27.8817 36.2351 25.0667 46.9102 25.0667C57.5853 25.0667 66.2461 27.8817 66.2461 31.3333ZM66.2461 40.1458V48.9583C66.2461 52.4099 57.5853 55.225 46.9102 55.225C36.2351 55.225 27.5742 52.4099 27.5742 48.9583V40.1458C31.7284 42.9854 39.3319 44.3073 46.9102 44.3073C54.4885 44.3073 62.0919 42.9854 66.2461 40.1458ZM66.2461 53.8541V62.6666C66.2461 66.1182 57.5853 68.9333 46.9102 68.9333C36.2351 68.9333 27.5742 66.1182 27.5742 62.6666V53.8541C31.7284 56.6937 39.3319 58.0157 46.9102 58.0157C54.4885 58.0157 62.0919 56.6937 66.2461 53.8541Z" fill="#8AA5DB"/>
</g>
<defs>
<clipPath id="clip0">
<rect width="38.6719" height="43.8667" fill="white" transform="translate(27.5742 25.0667)"/>
</clipPath>
</defs>
</svg>
