<svg width="94" height="94" viewBox="0 0 94 94" fill="none" xmlns="http://www.w3.org/2000/svg">
<circle opacity="0.5" cx="47" cy="47" r="47" fill="#E2FAEC"/>
<g clip-path="url(#clip0)">
<path d="M67.502 25H26.1365C23.8528 25 22 26.8421 22 29.1125V56.5292C22 58.7996 23.8528 60.6417 26.1365 60.6417H42.6827L41.3039 64.7542H35.0991C33.9529 64.7542 33.0308 65.6709 33.0308 66.8104C33.0308 67.9499 33.9529 68.8667 35.0991 68.8667H58.5395C59.6857 68.8667 60.6078 67.9499 60.6078 66.8104C60.6078 65.6709 59.6857 64.7542 58.5395 64.7542H52.3347L50.9558 60.6417H67.502C69.7858 60.6417 71.6386 58.7996 71.6386 56.5292V29.1125C71.6386 26.8421 69.7858 25 67.502 25ZM66.1232 55.1583H27.5154V30.4833H66.1232V55.1583Z" fill="#45B272"/>
</g>
<defs>
<clipPath id="clip0">
<rect width="49.6386" height="43.8667" fill="white" transform="translate(22 25)"/>
</clipPath>
</defs>
</svg>
