<svg width="84" height="84" viewBox="0 0 84 84" fill="none" xmlns="http://www.w3.org/2000/svg">
<circle opacity="0.5" cx="42" cy="42" r="42" fill="#FDE4F9"/>
<g clip-path="url(#clip0)">
<path d="M30.6649 41.0838L40.8256 30.7815L37.4946 27.4036L32.8378 32.1259C32.7822 32.1824 32.7163 32.2271 32.6437 32.2577C32.5711 32.2882 32.4932 32.3039 32.4146 32.3039C32.336 32.3039 32.2581 32.2882 32.1855 32.2577C32.1129 32.2271 32.047 32.1824 31.9914 32.1259L31.1451 31.2677C30.911 31.0303 30.911 30.646 31.1451 30.4094L35.8019 25.687L33.2621 23.1107C32.3266 22.1621 30.8106 22.1621 29.8752 23.1107L23.1022 29.9791C22.1675 30.9277 22.1667 32.4651 23.1022 33.4137L30.6649 41.0838ZM59.9941 32.1413C61.4104 30.7049 61.4097 28.3767 59.9941 26.9404L56.5777 23.4759C55.1614 22.0396 52.8647 22.0396 51.4476 23.4759L47.9731 26.9986L56.5196 35.6654L59.9941 32.1413ZM46.2645 28.7319L23.8413 51.4679L22.4249 59.6938C22.2339 60.8032 23.1867 61.7694 24.2815 61.5742L32.3938 60.1317L54.811 37.398L46.2645 28.7319ZM60.3549 50.5852L57.8152 48.0096L53.1584 52.732C52.9243 52.9693 52.5453 52.9693 52.312 52.732L51.4657 51.8737C51.2324 51.6364 51.2324 51.252 51.4657 51.0154L56.1225 46.2931L52.7899 42.9136L42.6293 53.2159L50.195 60.8874C51.1305 61.836 52.6465 61.836 53.5819 60.8874L60.3549 54.0198C61.2904 53.0712 61.2904 51.5338 60.3549 50.5852Z" fill="#D47CB6"/>
</g>
<defs>
<clipPath id="clip0">
<rect width="38.6556" height="39.2" fill="white" transform="translate(22.4004 22.3999)"/>
</clipPath>
</defs>
</svg>
